<svg xmlns="http://www.w3.org/2000/svg" viewBox="0 0 454 480"><defs><style>.cls-1{fill:silver;}.cls-1,.cls-2,.cls-3{stroke:#000;stroke-miterlimit:10;}.cls-2{fill:#a47bb5;}.cls-3{fill:none;}.cls-4{fill:#fff;}</style></defs><title>flags</title><g id="Layer_22" data-name="Layer 22"><path class="cls-1" d="M8.59,125.79a11.75,11.75,0,0,1,4.55-4.41,12.26,12.26,0,0,1,6.06-1.47L189,472.56a7,7,0,0,1-3,4.41,7.47,7.47,0,0,1-7.58,0Z"/><path class="cls-2" d="M27.57,140.14C60.86,79.2,117,48.72,139.13,33.72c33.69-22.8,77.23-37.11,84.39-17.92,5.2,13.92-11.43,38.3-5.11,51.77,6.07,12.95,27,3.63,30.69,2,19.63-8.69,21.51-23.6,46.67-44.8,10.33-8.71,21.71-18.07,37.72-20.91C343.57,2.07,355,0,366.09,8.83c17.69,14.09,15.39,40.9,30.69,57.75,8,8.83,21.88,16.05,47.31,6-12,11.74-29.66,24.72-46,15.93C385.81,81.91,385.18,69,372.48,56.62c-21.76-21.23-52.65-15.29-74.16,2-24.27,19.5-35,52.14-38.36,63.72,3.67-4.47,30.8-36.3,66.49-23.9C367.93,112.86,383,173.83,384,178.09c-21.85-40.91-48.86-60.83-66.49-55.76-9.49,2.73-17.9,10-17.9,10-9.34,8-14.12,17.38-19.18,25.89-6.55,11-20.64,34.68-38.36,45.8-11.76,7.38-32.49,13.85-39.64,0-7.44-14.42,6.58-37.82,0-51.77-8.05-17.07-40.52-6.4-62.65,13.94C106.43,196.78,94.18,251.5,89.9,275.67,76.48,230.2,41,185.61,27.57,140.14Z"/><line class="cls-3" x1="221" y1="155.48" x2="231.64" y2="95.38"/><line class="cls-3" x1="228.1" y1="179" x2="245.84" y2="87.54"/><line class="cls-3" x1="240.52" y1="168.55" x2="251.16" y2="111.06"/><path class="cls-4" d="M60.27,144.47a59.07,59.07,0,0,1,2.94,16.45c.18,5.22.27,10.74.59,16.24.81,1.12,1.64,1.57,2.47,1.34s1.64-.44,2.41-.64c4.86.5,9,4,12.66,11a76.43,76.43,0,0,1,6.61,19A156.52,156.52,0,0,1,90.9,228c.54,6.25,1.08,12.88,1.65,19.86a11.71,11.71,0,0,1-.19,4c-.64,2.16-2.15,1.6-3.54-1.19-4.69-9.4-8.64-21-13.85-31.08-4.34-8.42-8.85-16.8-13.16-25.25-1.25-.16-2.36-1.06-3.29-2.67a8.61,8.61,0,0,1-1-2.77,37.3,37.3,0,0,1-.47-3.74c-6.38-12.13-16.11-36.64-17.59-37.09-.39-.12-3.13.49-4.47-2.22a8.91,8.91,0,0,1-.36-2,16.75,16.75,0,0,0-.34-2.27c.17-2.67.65-4.56,1.43-5.67a5.91,5.91,0,0,1,1.59-1.42A17,17,0,0,0,39.25,133a7.34,7.34,0,0,1,5.68-1.69c5.05.6,9,2.32,11.5,5.82A29.13,29.13,0,0,1,60.27,144.47Zm18.33,52.72Q77.82,195.42,77,194a16.29,16.29,0,0,0-4.78-5.91c-2.56.35-4,.91-4.38,1.63a3.85,3.85,0,0,0-.33,1.57c.54.85,1.13,1.83,1.76,2.94,1.1,1.94,2.74,5.07,5,9.68s3.94,8.22,5.14,10.59c1.75,3.45,3.42,6.48,5,9a66.8,66.8,0,0,1-1.2-8.23,58.14,58.14,0,0,0-1-7.39A62.43,62.43,0,0,0,78.61,197.19ZM52.92,144.8c-1.49-2.84-3.47-3.93-5.85-3.26a4.11,4.11,0,0,1-1.81-.08c-.6-.14-1.06-.12-1.31.23a1.65,1.65,0,0,0-.31.86c.07,1.23,1.12,3.22,1.79,4.89a121.78,121.78,0,0,0,5.23,11c2.43,4.62,4.46,8.26,5.9,11a7.12,7.12,0,0,0,.17-2.83c-.07-1.54-.09-2.4-.08-2.57a37.08,37.08,0,0,0-.64-9.54A32.82,32.82,0,0,0,52.92,144.8Z"/><path class="cls-4" d="M76.92,103.38c-1,3.16-2.63,7.34-4.64,12.57a86.73,86.73,0,0,0-4,12.66c.8,3.08,3.09,9.22,7.53,18.73a3.36,3.36,0,0,0,2.24-1.57A23.39,23.39,0,0,0,80,141.84,19.51,19.51,0,0,1,82,138c.94-1.22,2.45-1.76,3.24-1.26a7.86,7.86,0,0,1,2.43,3.19,4.83,4.83,0,0,1,.4,2.2c0,.19.07,1.24.29,3.14.17,1.31,0,2.17-.37,2.58a27,27,0,0,1-3.09,6,15.62,15.62,0,0,0-2.37,7c3.49,9,6.69,16.47,9.21,21.9a86.06,86.06,0,0,0,4.34,8.44c3,2.2,5.51.24,7.82-5.64a6.11,6.11,0,0,0,0-2.66,6.31,6.31,0,0,1-.07-2.5c.33-2,1.83-.14,4.45,6.23a40.52,40.52,0,0,1,2.09,6.73c.52,2.37.67,4,.39,4.9-2,6-4.66,9.88-7.78,10.86-1,.35-2.41-.75-4.35-3.13a51.37,51.37,0,0,1-5.83-9.55c-4.68-9.49-9.62-19-14.16-28.57a8.15,8.15,0,0,1-4.28-4.28,8.66,8.66,0,0,1-.72-3.74,9.59,9.59,0,0,0-.54-3.61c-.38-.93-3-6.07-7-15.29-2.41,1.43-4.36.52-5.77-2.77a17.11,17.11,0,0,1-1.25-9.67c.48-2.75,1.31-5.69,1.89-8.45a67.15,67.15,0,0,1,3.51-11.7c1.44-3.49,3-7,4.62-10.37a4.27,4.27,0,0,1,.7-.93c1.11-1.15,2.74-1.33,4.89-.61.16.39.5,1.09,1,2.09a15.56,15.56,0,0,1,1,2.28A5.64,5.64,0,0,1,76.92,103.38Z"/><path class="cls-4" d="M91.15,81.82a10.64,10.64,0,0,1-.84,6.23,1.84,1.84,0,0,1-1.09,1.18,5.51,5.51,0,0,0-1.12.43,2.76,2.76,0,0,0-.58,1.51A41.19,41.19,0,0,0,89,111a29.56,29.56,0,0,0,2.75,6.17c.46.75,4.16,5.35,10.63,15.45A79.7,79.7,0,0,1,111.68,153a140.22,140.22,0,0,1,3.92,18,90.08,90.08,0,0,1,.73,9.89c.12,3.51,0,5.81-.5,6.75-.18.37-.41.54-.69.52-1.1-.29-2-1.58-2.8-3.85a30.57,30.57,0,0,1-1.14-5.79,4,4,0,0,1,.31-2.13,5.58,5.58,0,0,0,0-3.14A119,119,0,0,0,107.7,158a80.87,80.87,0,0,0-12.13-22.38C89.49,127.52,85.12,121,83,114.87a51.62,51.62,0,0,1-3-15.09,35.61,35.61,0,0,1,2.2-15,11.74,11.74,0,0,1,2.66-4.24c1.89-1.74,3.57-2,5-.95A3.81,3.81,0,0,1,91.15,81.82Z"/><path class="cls-4" d="M134,46.47c-.08,3.72-.76,6.32-1.94,7.73C129,57.89,118.33,65.8,116.38,72c-3.86,12.37,4.62,42.82,8.28,64,1.19,6.89,2.48,13.9,3.93,20.93.45,2.18.78,3.93.94,5.2.27,2,.18,3.23-.16,3.56-.71.68-1.59,0-2.66-2.21a40.23,40.23,0,0,1-2.81-8.22c-1-4.17-2-8.54-2.91-13-2.29-10.94-4.25-22-6-33-1.59-10.18-4.42-30.35-4.94-30.57-.23-.1-2.95,2.49-5,5a60.9,60.9,0,0,1-4.82,5.58c-2.15,1.94-4.17,2.35-6.14,1.22q-1.7-2.86-1.74-3a7,7,0,0,1-.05-2.52c1.18-2.33,4-6,8.35-10.73a46.77,46.77,0,0,0,8.42-12.1,13,13,0,0,0,6.15-2.84A31.83,31.83,0,0,0,121.44,53c.59-.52,2-2.31,4.31-5.2a15.41,15.41,0,0,1,4.45-3.93c.88-.47,1.39-.16,1.42,1.35C133,44.35,133.77,44.76,134,46.47Z"/><path class="cls-4" d="M136.56,60.8c.27,2.92.48,6,.61,9.28.45,11.35.24,22.8.23,34.18,0,12.08.34,24.22,1.45,36.25q.43,4.58,1,9c.13,3.51-.17,5.59-1,6.14-1.12.77-2.12-.88-2.8-4.93s-1.3-8.36-1.81-12.89c-1.3-11.6-1.89-23.33-2.13-35-.23-11-.28-22-1.06-32.9-.19-2.66-.46-5.22-.78-7.67q.47-3.36,2.23-4.53a2.73,2.73,0,0,1,2.92-.17,1.94,1.94,0,0,1,.41-.74c.15-.09.28.39.33,1.38.06,1.23.09,2,.14,2.15S136.45,60.77,136.56,60.8Z"/><path class="cls-4" d="M173.1,28.17c-3.56,15.71-7,31.44-10.51,47.16-2.44,11.46-4.24,23.07-5.82,34.61-1.55,11.33-2.65,22.83-3.41,34.3-.24,1.23-.54,1.94-.9,2.12s-1-.31-1.78-1.6c-2.7-16-3.69-32.3-5-48.36-1.24-14.59-2.51-29.59-7.33-43.62.48-2.78.94-4.3,1.39-4.58a3.52,3.52,0,0,1,1.15-1.45c.81-.49,2.34,0,4.48,1.78a125.05,125.05,0,0,1,4.93,28.13c.77,10.76,1.34,21.61,1.86,32.42,2-14.45,4.54-28.86,7.18-43.15,2.44-13.2,5.06-26.46,7.4-39.72.63-2.79,1.9-4.15,3.87-4.12.21,0,.5.24.84.72a1.05,1.05,0,0,0,1.22.51c.46-.14.74.45.79,1.79A12.12,12.12,0,0,1,173.1,28.17Z"/><path class="cls-4" d="M181.86,115.36a43.18,43.18,0,0,1-.3,5,20.14,20.14,0,0,1-1.79,6.3c-.89,1.82-1.42,2.67-1.65,2.58-1.88-.8-2.73-5.13-2.22-13.55.56-9.14,1.06-17,1.16-23.29-1.54.68-3.16,1.35-4.58,2.1a10.22,10.22,0,0,0-4.42,5.44c-1.16,3.43-2.28,10.89-3.69,20.49-1.3,8.88-2.07,15.43-2.64,19.9-.29,2.12-.89,2.88-1.72,2.29-1.1-.78-1.72-2.32-1.78-4.47A95.22,95.22,0,0,1,160,119.89c1.61-9,3-15.62,3.45-19.42a6.7,6.7,0,0,0-.45-3.37,6.31,6.31,0,0,1-.58-2.79,8.65,8.65,0,0,1,.47-2,5.11,5.11,0,0,1,1.5-2.1,4.17,4.17,0,0,0,1.4-2.32c2.59-11.57,5.15-23.24,7.42-34.78,2-10.28,3.9-20.74,5.49-31.18.25-1.5.84-2.42,1.81-2.75a1.74,1.74,0,0,1,2,.68c1.54,1.9,2.59,5.29,2.8,10.35.18,4.34.13,8.93-.07,13.65C184.74,67.73,182.33,91.5,181.86,115.36ZM177.62,81c.53-4.61,1-9.77,1.23-15.26.19-4.76.28-9.5.31-14.09-2.52,10.43-5,20.88-7.27,31.37C172.64,82.43,174.54,81.7,177.62,81Z"/><path class="cls-4" d="M205,108.33c-.12.13-4.27,5.8-10.92,16.14a138.58,138.58,0,0,1-9.19,13.17,1.22,1.22,0,0,1-.79.58c-.58,0-1.06-.95-1.38-3.06-.51-2.81-.74-4.34-.77-4.46C183.56,114,187,97.49,190.2,81c3.2-16.26,6.64-32.64,7.82-49.11a99.72,99.72,0,0,0-.09-16.72c.57-1.53,1.33-2.37,2.32-2.56,1.88-.34,3.29,1.06,3.54,4,1.28,15.18-2.17,32-5,47.52-3.12,17-6.94,34.24-9.55,51.49a80.62,80.62,0,0,0,6.35-8.56,107.27,107.27,0,0,1,6.71-9.3,4.16,4.16,0,0,0,1.33-.37A3.9,3.9,0,0,1,205,97c1,.05,1.44,1.25,1.43,3.54A18.35,18.35,0,0,1,205,108.33Z"/></g></svg>