<svg xmlns="http://www.w3.org/2000/svg" viewBox="0 0 454 480"><defs><style>.cls-1{fill:silver;}.cls-1,.cls-2,.cls-3{stroke:#000;stroke-miterlimit:10;}.cls-2{fill:#e76970;}.cls-3{fill:none;}.cls-4{fill:#fff;}</style></defs><title>flags</title><g id="Layer_15" data-name="Layer 15"><path class="cls-1" d="M14.59,125.79a11.75,11.75,0,0,1,4.55-4.41,12.26,12.26,0,0,1,6.06-1.47L195,472.56a7,7,0,0,1-3,4.41,7.47,7.47,0,0,1-7.58,0Z"/><path class="cls-2" d="M33.57,140.14C66.86,79.2,123,48.72,145.13,33.72c33.69-22.8,77.23-37.11,84.39-17.92,5.2,13.92-11.43,38.3-5.11,51.77,6.07,12.95,27,3.63,30.69,2,19.63-8.69,21.51-23.6,46.67-44.8,10.33-8.71,21.71-18.07,37.72-20.91C349.57,2.07,361,0,372.09,8.83c17.69,14.09,15.39,40.9,30.69,57.75,8,8.83,21.88,16.05,47.31,6-12,11.74-29.66,24.72-46,15.93C391.81,81.91,391.18,69,378.48,56.62c-21.76-21.23-52.65-15.29-74.16,2-24.27,19.5-35,52.14-38.36,63.72,3.67-4.47,30.8-36.3,66.49-23.9C373.93,112.86,389,173.83,390,178.09c-21.85-40.91-48.86-60.83-66.49-55.76-9.49,2.73-17.9,10-17.9,10-9.34,8-14.12,17.38-19.18,25.89-6.55,11-20.64,34.68-38.36,45.8-11.76,7.38-32.49,13.85-39.64,0-7.44-14.42,6.58-37.82,0-51.77-8.05-17.07-40.52-6.4-62.65,13.94-33.34,30.63-45.59,85.35-49.87,109.52C82.48,230.2,47,185.61,33.57,140.14Z"/><line class="cls-3" x1="227" y1="155.48" x2="237.64" y2="95.38"/><line class="cls-3" x1="234.1" y1="179" x2="251.84" y2="87.54"/><line class="cls-3" x1="246.52" y1="168.55" x2="257.16" y2="111.06"/><path class="cls-4" d="M60.32,152.56A100.12,100.12,0,0,1,65.73,171c1,5.4,1.87,11,2.87,16.58q1.34,2.27,2.46,2.59l2.15.62c4.55,3,8.82,8.41,12.59,16a85.33,85.33,0,0,1,6.5,17.66,88.45,88.45,0,0,1,2.27,14.77c.29,4.17.49,8.31.6,12.35a6.12,6.12,0,0,1-.27,2.3c-.49,1.25-1.44,1-2.27-.69C89.57,247,86.19,238,82,229.57c-4.42-8.94-9-17.86-13.32-26.85a11.06,11.06,0,0,1-3.31-4.13,15.28,15.28,0,0,1-1.22-3.09q-.44-1.62-.86-3.76c-7-14.21-17.73-42.09-20.41-43A5,5,0,0,1,39,146.28a7.85,7.85,0,0,1-.42-1.68,14.37,14.37,0,0,0-.4-1.82,8.82,8.82,0,0,1,.84-4.47,4.32,4.32,0,0,1,1.15-1.15A13.09,13.09,0,0,0,41.57,136a4.15,4.15,0,0,1,4.2-.93c3.93,1.2,7.38,4.06,10,8.45A63.84,63.84,0,0,1,60.32,152.56ZM84,212.9q-.8-1.8-1.59-3.37a34.46,34.46,0,0,0-4.78-7.38c-2.28-.89-3.57-1.11-3.82-.62a2.47,2.47,0,0,0-.15,1.27q.87,1.56,1.87,3.49c1.17,2.25,2.91,5.8,5.12,10.52s3.8,8.13,4.87,10.32c1.56,3.19,3,5.84,4.2,8a58.19,58.19,0,0,1-1.07-6.26,45.79,45.79,0,0,0-1.06-5.95A71.7,71.7,0,0,0,84,212.9ZM53.91,149.76c-1.71-3.4-3.49-5.06-5.4-5.11a4.18,4.18,0,0,1-1.5-.55c-.53-.29-.89-.36-1-.1a1.21,1.21,0,0,0-.17.7c.18,1.28,1.27,3.21,2,5,1,2.43,2.95,6.54,6,12.69,2.84,5.66,5.24,10.36,7,13.8a7.14,7.14,0,0,0-.24-2.73c-.29-1.58-.43-2.45-.45-2.63a50.57,50.57,0,0,0-2-10A62.67,62.67,0,0,0,53.91,149.76Z"/><path class="cls-4" d="M92,179.16c5.9,15.53,13.39,32.38,13.19,49.4a6.23,6.23,0,0,1-.4,2c-.89,2-2.88.08-8.51-8.49-5.88-9.15-10.85-19-15.77-28.58-8-15.68-15.66-31.93-21.65-48.63A120,120,0,0,1,53.77,127c-1.1-5.75-1-8.69-.35-9.54.37-.48,1-.13,1.89,1.18s2.69,2.53,5.36,3.86c2.14,1.06,4.74,4.42,8.23,10.6,5.81,10.25,11.49,20.6,16.57,31.22C88,169.61,90.2,174.58,92,179.16ZM80.78,164.79c-7.16-14.07-11.35-21.65-13.27-23.22q-.42-.31-.56-.13c-.27.38.21,2.68,1.61,7a95.34,95.34,0,0,1,2.72,9.25c.12.79-.37.54-1.49-.78S68.06,155,68,155.15s0,.37.12.82c3.15,10.14,7.86,19.82,12.62,29.25,4.29,8.5,8,15.28,11,20.18,4.12,6.69,6,9.31,6.31,8.66.75-1.51-.38-7.71-4.57-19.27A265.28,265.28,0,0,0,80.78,164.79Z"/><path class="cls-4" d="M112.3,183a38.39,38.39,0,0,1,1.78,4.09,24.12,24.12,0,0,1,1.35,6c.18,2,.19,3,.05,3.06-1.14.67-2.85-2-6-9-3.45-7.66-7-14.6-10.06-20-.55,1.4-1.17,2.84-1.64,4.21a13.08,13.08,0,0,0,.06,7.1c1,3.76,4.1,10.94,7.22,19.88a145.67,145.67,0,0,1,5.19,17.8c.37,1.84.19,2.85-.42,3-.78.2-1.54-.54-2.18-2.21-1.28-3.36-3-8.73-5.5-16.44-2.84-8.83-5.36-15.54-7-19.28a9,9,0,0,0-2-2.92,8.59,8.59,0,0,1-1.85-2.37,13,13,0,0,1-.75-2.1,6.34,6.34,0,0,1-.12-2.63,5.33,5.33,0,0,0-.32-2.78c-4.48-11.92-9.25-23.89-13.45-35.74-3.42-9.66-7-19.72-8.79-30a3.29,3.29,0,0,1,.42-2.83c.37-.4.81-.4,1.34,0,1.38,1.2,2.92,3.8,4.88,8.22C76.16,111.87,78,116,80,120.31,90.68,141.27,101.93,161.94,112.3,183ZM93.9,156.79c-2.07-4.34-4.47-9.18-7.18-14.29-2.34-4.43-4.7-8.82-6.91-13.07,3.54,10.71,7.57,21.25,11.6,31.78A14.81,14.81,0,0,1,93.9,156.79Z"/><path class="cls-4" d="M128.21,174.6a5.42,5.42,0,0,1,.39,1.15,13.18,13.18,0,0,1-.25,6.67c-1.68-2.1-4.32-6.12-9.06-13.18a202.72,202.72,0,0,0-12.84-17.37c1.21,3.23,4.66,11.92,8.87,24.13A140.53,140.53,0,0,1,121,196.27a8,8,0,0,0-.16,1.2c-.07.74-.19,1.13-.35,1.17-.95.5-1.93-1.35-3.52-6.29-.47-1.45-1.08-3.5-1.93-6.2-1-3.12-1.69-5.18-2-6-2.29-6.44-5.46-14.54-9.51-24.24-3.33-7.91-5.09-12-8.47-19.89-5.35-12.72-10.89-25.45-14.8-38.65-1.81-6.09-.66-9.84,2.43-12.33,1.57-1.26,3.47-.48,6.2,3.26a61.3,61.3,0,0,1,7.2,14.38A118.15,118.15,0,0,1,101,120.3a92.54,92.54,0,0,1,2,15,13.91,13.91,0,0,0,1,4.77,17.34,17.34,0,0,0,3,4.76c1,1.13,2,2.25,3,3.36.07.09,4,4.83,10,13A68.94,68.94,0,0,1,128.21,174.6ZM93.11,106c-.68-2.06-1.29-3.83-1.88-5.26a22.25,22.25,0,0,0-2.86-5.13c-1-1.29-1.93-1.47-2.81-.59-.66.66-.86,1.85-.44,3.44a87.91,87.91,0,0,0,3.17,9.1c.55,1.41,2,5,4.64,11.17,2,4.69,3.66,8.71,4.91,11.9C96.76,120.83,95.22,112.58,93.11,106Z"/><path class="cls-4" d="M124.53,120.5c.64,3.06,1.32,6.12,2,9.11.75,3.54,1.22,6.46,1.47,8.7.7,5.39,1.33,10.62,1.87,15.6a87.62,87.62,0,0,1,.69,12.73q.16,2.2.25,4.55a6,6,0,0,1-.26,2.79.38.38,0,0,1-.49.13,6.18,6.18,0,0,1-.72-.31,2.38,2.38,0,0,1-.85-1.36c-1.24-3.79-2.51-8.79-4.22-14.19s-4.59-14.23-8.8-26.19q-4.68-13.32-9.51-26.65c-2.75-7.59-5.11-14-7-19.32-.06-.07-.77-1-2.05-2.53a8.06,8.06,0,0,1-1.62-2.86,9.78,9.78,0,0,1-.32-1.43,3.64,3.64,0,0,1,.43-2.67c.34-.48.68-1,1-1.37,2.91-.61,6.64,1.13,11.77,6.73a31.48,31.48,0,0,1,3.81,5.3,110.53,110.53,0,0,1,9.51,21.58A115.87,115.87,0,0,1,124.53,120.5Zm-9.19-16.89c-2.76-7.28-6.33-12.26-10.82-14.9,6.82,21.11,14.53,41.91,21.39,63-1.84-14.66-4.13-29.11-8.8-43.14C116.55,106.88,116,105.22,115.34,103.6Z"/><path class="cls-4" d="M151.4,148.59c.22,1.9,0,3.19-.67,4-.41.5-.9.06-1.51-1.45a58.72,58.72,0,0,1-1.94-7.67c-.78-3.61-1.88-9.12-3.6-16.92-1.93-8.77-3.61-15.11-4.58-18.45,1.08,6,2.7,15.14,4.19,26.29.79,6.17,1.07,9.44,1.12,10.29.25,3.74,0,5.57-.5,5.76-1.16-.15-2.38-2.17-4-6.51-1.05-2.82-2.6-7.68-5-14.9-2.58-7.93-4.63-13.42-5.76-16.1,4.35,18.45,9.31,37.3,9.75,56.37,0,1.47-.36,1.87-1.18,1.23s-1.2-2-1.66-4.5c-.16-.87-.49-4.17-1.49-10.7-2.49-15-6.15-29.85-9.62-44.67-3.62-15-7.85-29.86-11.08-45,0-.23-.08-1.37-.25-3.2-.13-1.33,0-2.13.41-2.43,1.05-.78,1.91-.77,2.57.08.59,2.55,1.8,6.74,4,13.51s4,12.68,5.21,16.59c2,6.52,4.5,13.64,6.73,20.67,2.5,7.88,4.74,14.08,6.62,18.49C134.8,103.57,129,77.93,125.58,52A2.83,2.83,0,0,1,126.64,49c1.18-.77,2-.28,2.56,1.69.83,3,1.77,6.84,2.91,11.81.36,1.59,1.12,5.07,2.49,10.93,1.14,4.91,2.19,9.11,3,12.31C142.88,106.5,148.71,127.34,151.4,148.59Z"/><path class="cls-4" d="M163.67,127.41a39.8,39.8,0,0,1,.4,4.28,22.88,22.88,0,0,1-.45,5.56c-.36,1.67-.6,2.46-.73,2.45-1-.18-1.57-3.3-2.45-10.57a183.28,183.28,0,0,0-3.78-20.91c-.79.9-1.66,1.81-2.36,2.72a10,10,0,0,0-1.53,5.77c0,3.52,1.09,10.52,1.59,19a104,104,0,0,1-.1,16.45c-.17,1.62-.55,2.3-1,2.1s-1-1.22-1-2.83c-.18-3.23-.33-8.19-.67-15.35a178.64,178.64,0,0,0-1.67-18.25,9.27,9.27,0,0,0-1.13-3.15,9.36,9.36,0,0,1-1.11-2.62,11.78,11.78,0,0,1-.21-2,4.84,4.84,0,0,1,.47-2.18,4.22,4.22,0,0,0,.33-2.38c-1.38-11.48-3.12-23-4.56-34.38-1.17-9.27-2.44-18.79-2.41-28.23,0-1.23.34-2,1-2.35.45-.26.9-.15,1.36.37,1.18,1.39,2.23,4.06,3.24,8.47.87,3.78,1.79,7.92,2.76,12.28C155,83.4,160.52,105.2,163.67,127.41Zm-9.5-30c-.86-4.42-1.93-9.37-3.27-14.64-1.16-4.57-2.38-9.09-3.54-13.43,1,10.26,2.29,20.51,3.62,30.73A9.91,9.91,0,0,1,154.17,97.46Z"/><path class="cls-4" d="M160.53,36.09a9.76,9.76,0,0,1-.85,5c-.21.47-.48.62-.79.52a2.57,2.57,0,0,0-.78-.17c-.19.09-.35.44-.46,1.05-1.07,5.49-.93,12.1.34,20.13A83.79,83.79,0,0,0,159.72,71c.3,1.12,2.93,9,6.64,24.05a127,127,0,0,1,3.87,25.36,76.36,76.36,0,0,1-.93,15.39,34.36,34.36,0,0,1-1.79,6.15c-.74,2-1.37,3-1.83,3.27a.35.35,0,0,1-.46,0,4.92,4.92,0,0,1-.57-3.27,27.46,27.46,0,0,1,.61-3.88,1.91,1.91,0,0,1,.61-1.13,3.14,3.14,0,0,0,.66-1.94,75.72,75.72,0,0,0,.38-13.18c-.55-9.88-3-19.65-5.57-29-2.67-9.91-6-20.13-7.86-30.36a82.59,82.59,0,0,1-1.45-16c.12-5.21,1-8.82,2.37-11.38a5.25,5.25,0,0,1,2-2.27,2.28,2.28,0,0,1,3.31,1A5.71,5.71,0,0,1,160.53,36.09Z"/><path class="cls-4" d="M188.7,23.23c-.14,3.29-.56,5.56-1.3,6.39-1.93,2.18-8.7,6.43-10,9.89-5.21,13.4,3.93,49.83,3.65,74.74a172.43,172.43,0,0,1-1.2,19.48,35,35,0,0,1-.69,3.94c-.36,1.41-.72,2.06-1,2.08-.54,0-.84-.76-.91-2.71s0-4.32.17-7.18c.24-3.65.38-7.78.41-12.37.07-12.66-.6-25.38-1.46-37.93-.84-12.21-1.08-35.18-3.18-36.82-.19-.15-2,.85-3.38,2.2a16.16,16.16,0,0,1-3.36,2.78c-1.5.67-2.91-.17-4.22-2.36-.72-2.46-1.07-3.64-1.08-3.74a8.35,8.35,0,0,1,.07-2.29c.89-1.5,2.93-3.39,5.93-5.58A19,19,0,0,0,173,27a5,5,0,0,0,3.93,0,10.44,10.44,0,0,0,4-2.91,27.62,27.62,0,0,0,2.82-2.75,5.46,5.46,0,0,1,2.82-1.68c.5-.08.82.33.78,1.62C188.19,21,188.64,21.63,188.7,23.23Z"/><path class="cls-4" d="M196.46,38.88a76.26,76.26,0,0,1-4.59,7.42A51.82,51.82,0,0,0,187.41,54c-.07,3.32.23,10.75.58,22.66.47.69,1,1,1.55.84a5.17,5.17,0,0,0,1.88-1.41,4.76,4.76,0,0,1,1.89-1.37c.76-.14,1.62.66,2,2.09a20.58,20.58,0,0,1,.6,5.18,7.41,7.41,0,0,1-.27,2.26c-.05.14-.24,1.11-.56,2.9-.21,1.24-.48,1.81-.79,1.72a5.38,5.38,0,0,1-3,1.67,4.74,4.74,0,0,0-2.87,2.93c-.39,9.77-.82,17.06-1.1,22.15-.19,3.44-.31,6-.32,7.87.7,3.49,2.23,4.68,4.88,4.07.18,0,.43-.41.75-1.23s.55-1.25.68-1.25c.72-.67.88,1.82.1,6.73a21,21,0,0,1-1.14,4.36c-.5,1.27-1,1.93-1.3,2a6,6,0,0,1-6-2.33c-.46-.58-.7-1.93-.84-4.24a72.54,72.54,0,0,1,.08-8.38c.54-9.45.57-19,.53-28.45a22.29,22.29,0,0,1-1.21-6.94,10.87,10.87,0,0,1,.47-3.41,10.93,10.93,0,0,0,.52-3.23c0-1.06-.17-7.47-.74-18.6-1.7-.92-2.7-3.31-3-7.13a20,20,0,0,1,.91-8.8c.75-1.8,1.8-3.69,2.57-5.44a34.82,34.82,0,0,1,3.95-7c1.39-1.83,2.81-3.58,4.26-5.24a1.22,1.22,0,0,1,.55-.3c.83-.22,1.84.61,3,2.65,0,.43.15,1.24.32,2.45s.26,2.12.28,2.7A7.48,7.48,0,0,1,196.46,38.88Z"/><path class="cls-4" d="M207.75,134.19a9.64,9.64,0,0,1-.27,1.54c-.64,2.53-1.7,4.11-3.11,4.92.12-4.51.43-11.71,0-22.72a197.77,197.77,0,0,0-2.74-26.78c-.2,3.61-.54,13.48-2.31,27-1.34,10.2-3.11,17-4.75,21.5,0,0-.24.2-.61.63s-.59.53-.68.33c-.64-1-.22-3.69.84-9.05.31-1.58.76-3.74,1.26-6.59.58-3.3.87-5.51,1-6.36.87-7,1.55-16.08,1.84-27.06.21-9,.2-13.62.09-22.64-.24-14.39-.73-28.83-.54-43.2.08-6.57,1.94-9.33,5.17-9.63,1.63-.15,3.1,1.86,4.38,7.26a84.23,84.23,0,0,1,1.87,18.42,125.5,125.5,0,0,1-1.45,19.19A78,78,0,0,1,204.56,75a15,15,0,0,0-.8,4.69,32.83,32.83,0,0,0,.66,6.55c.34,1.82.69,3.67,1,5.51,0,.14,1.36,7.42,2.43,21A111.09,111.09,0,0,1,207.75,134.19Zm-1.92-91.9c.05-2.32.06-4.34,0-6a33.61,33.61,0,0,0-.9-6.67c-.47-1.88-1.19-2.69-2.15-2.5-.72.14-1.2,1.08-1.29,2.77-.15,2.78-.06,6.24,0,10.22,0,1.62.21,5.78.41,13,.15,5.47.19,10.12.15,13.74A114.37,114.37,0,0,0,205.83,42.29Z"/><path class="cls-4" d="M222.74,18.76a9.92,9.92,0,0,1-1.25,4.94c-.23.39-.47.42-.73.17a3.17,3.17,0,0,0-.65-.55c-.17,0-.34.3-.52.88-1.56,5.25-2.32,12.06-2.4,20.85,0,3.27,0,6.39.24,9.34.85,9.53,1.44,19.05,1.95,28.6.18,10,.36,20.08-1,30.06a90.09,90.09,0,0,1-3.85,17.05,26.13,26.13,0,0,1-3,5.82c-1.13,1.69-2,2.36-2.49,2.14a.94.94,0,0,1-.45-.64,10.92,10.92,0,0,1,.13-5,24.27,24.27,0,0,1,1.41-4.08c.19-.47.47-.7.83-.68s.71-.5,1-1.6a85.83,85.83,0,0,0,3-14.52c1.36-11.29,1.07-22.91.26-34.29-.82-11.58-1.91-23.24-2-34.81a117.08,117.08,0,0,1,1-16.89c.77-5.3,1.88-8.74,3.33-10.85a3,3,0,0,1,2-1.53c1.22-.11,2.12.73,2.72,2.67A9.77,9.77,0,0,1,222.74,18.76Z"/></g></svg>