<svg xmlns="http://www.w3.org/2000/svg" viewBox="0 0 454 480"><defs><style>.cls-1{fill:silver;}.cls-1,.cls-2,.cls-3{stroke:#000;stroke-miterlimit:10;}.cls-2{fill:#e76970;}.cls-3{fill:none;}.cls-4{fill:#fff;}</style></defs><title>flags</title><g id="Layer_16" data-name="Layer 16"><path class="cls-1" d="M4.59,123.79a11.75,11.75,0,0,1,4.55-4.41,12.26,12.26,0,0,1,6.06-1.47L185,470.56a7,7,0,0,1-3,4.41,7.47,7.47,0,0,1-7.58,0Z"/><path class="cls-2" d="M23.57,138.14C56.86,77.2,113,46.72,135.13,31.72c33.69-22.8,77.23-37.11,84.39-17.92,5.2,13.92-11.43,38.3-5.11,51.77,6.07,12.95,27,3.63,30.69,2,19.63-8.69,21.51-23.6,46.67-44.8,10.33-8.71,21.71-18.07,37.72-20.91C339.57.07,351-2,362.09,6.83c17.69,14.09,15.39,40.9,30.69,57.75,8,8.83,21.88,16.05,47.31,6-12,11.74-29.66,24.72-46,15.93C381.81,79.91,381.18,67,368.48,54.62c-21.76-21.23-52.65-15.29-74.16,2-24.27,19.5-35,52.14-38.36,63.72,3.67-4.47,30.8-36.3,66.49-23.9C363.93,110.86,379,171.83,380,176.09c-21.85-40.91-48.86-60.83-66.49-55.76-9.49,2.73-17.9,10-17.9,10-9.34,8-14.12,17.38-19.18,25.89-6.55,11-20.64,34.68-38.36,45.8-11.76,7.38-32.49,13.85-39.64,0-7.44-14.42,6.58-37.82,0-51.77-8.05-17.07-40.52-6.4-62.65,13.94C102.43,194.78,90.18,249.5,85.9,273.67,72.48,228.2,37,183.61,23.57,138.14Z"/><line class="cls-3" x1="217" y1="153.48" x2="227.64" y2="93.38"/><line class="cls-3" x1="224.1" y1="177" x2="241.84" y2="85.54"/><line class="cls-3" x1="236.52" y1="166.55" x2="247.16" y2="109.06"/><path class="cls-4" d="M46.43,157.14a133.28,133.28,0,0,1,7.33,18.21c1.63,5.25,3.28,10.73,5.05,16.06a7.73,7.73,0,0,0,2.58,2.81l2,.85c4.51,3.31,9.14,8.68,13.17,16.17a72.43,72.43,0,0,1,6.73,17.34,74.32,74.32,0,0,1,2,14.5,112.15,112.15,0,0,1-.13,12,16.08,16.08,0,0,1-.28,2.24c-.26,1.21-.48,1-.75-.74a88.63,88.63,0,0,0-7.81-23.79c-4.5-9.28-9.51-18.53-14.71-27.59a22.52,22.52,0,0,1-3.45-4.65,29,29,0,0,1-1.61-3.1c-.46-1-1-2.23-1.47-3.58-8.55-14.67-17.86-40.7-24-45a9.86,9.86,0,0,1-2.67-4.36,17.27,17.27,0,0,1-.41-1.68c-.15-.77-.27-1.36-.37-1.79a7.07,7.07,0,0,1,.1-3.22.64.64,0,0,1,.53-.3,1.87,1.87,0,0,0,.74-.26c.62-.36,1.5-.1,2.82.86a38.33,38.33,0,0,1,9.36,9.89A92.61,92.61,0,0,1,46.43,157.14Zm29.23,60.1q-.86-1.79-1.72-3.35a42.57,42.57,0,0,0-5-7.49c-2.09-1.07-3.21-1.51-3.34-1.09a2.39,2.39,0,0,0,.09,1.16q1,1.61,2.12,3.57c1.32,2.29,3.32,5.89,5.72,10.65s4,8.18,5,10.37c1.48,3.2,2.66,5.86,3.62,8q-.59-2.58-1.21-6.11a51.85,51.85,0,0,0-1.31-5.82A70.28,70.28,0,0,0,75.67,217.24ZM40.1,153.59c-1.93-3.49-3.67-5.38-5.25-6a5.08,5.08,0,0,1-1.27-1c-.46-.45-.73-.63-.83-.46a.91.91,0,0,0-.05.56,31.6,31.6,0,0,0,2.19,5.13c1.16,2.51,3.26,6.79,6.87,13.18,3.32,5.89,6.23,10.74,8.3,14.27a8.24,8.24,0,0,0-.67-2.54c-.51-1.51-.78-2.34-.82-2.5a70.47,70.47,0,0,0-3.28-9.59A98.94,98.94,0,0,0,40.1,153.59Z"/><path class="cls-4" d="M82.17,179.65c6.28,15,13.86,31.26,11.53,48a12.56,12.56,0,0,1-.54,2.18c-.87,2.38-1.43,1.44-6.07-6.28-5.33-9.11-10.56-18.31-15.86-27.42-9.13-15.69-18.56-31.5-25.8-48.21a88.76,88.76,0,0,1-5.77-17.45c-1.11-5.56-.83-8.33-.16-9.16.38-.47.93-.16,1.81,1.05s2.65,2.32,5.54,3.35c2.3.82,5.14,3.85,9.09,9.69,6.62,9.76,13.16,19.62,18.94,29.89C77.75,170.37,80.19,175.19,82.17,179.65Zm-12.47-13C61.47,153,56.59,145.7,54.44,144.29q-.47-.28-.62-.07c-.29.41.3,2.71,2,7,1.93,4.93,3.12,8.1,3.35,9.21.17.8-.36.58-1.63-.69s-1.93-1.83-2-1.7,0,.37.17.82c4,10.1,9.57,19.6,15.05,28.9,4.91,8.32,8.84,14.87,11.86,19.46,4.12,6.26,5.66,8.5,6,7.74.67-1.74-.12-7.89-4.61-19.09A199.88,199.88,0,0,0,69.7,166.63Z"/><path class="cls-4" d="M96.1,156.72c4.92,14.66,11.24,30.88,8.09,46.65a10.81,10.81,0,0,1-.72,2.15c-1.16,2.4-2.21,1.82-6.91-5.14-5.36-8.26-10-17.07-14.69-25.67-8.15-14.95-16.22-30.31-22.12-46.38a78.26,78.26,0,0,1-4.44-17c-.68-5.45-.14-8.28.8-9.3.54-.58,1.23-.43,2.22.58s3.05,1.72,6.32,2.29c2.6.45,5.48,3.16,9.06,8.73,5.86,9.45,11.69,18.93,16.46,29C92.54,147.62,94.53,152.35,96.1,156.72ZM84.43,144.35C77.39,131.13,73,124.14,70.8,123q-.49-.23-.69,0c-.39.47-.06,2.76,1.2,7a74,74,0,0,1,2.38,9.14c.06.81-.49.66-1.74-.49s-1.92-1.63-2-1.47-.06.39.07.83c2.88,9.82,7.76,19.1,12.57,28,4.29,8,7.83,14.2,10.66,18.48,3.86,5.85,5.43,7.88,5.83,7.1.92-1.8.32-7.57-3-18.71A158.54,158.54,0,0,0,84.43,144.35Z"/><path class="cls-4" d="M127.44,158.32a4.72,4.72,0,0,1-.67,4.17c-.56.84-1.31.91-2.25.07s-1.73-2.54-3-5.77c-1.19-3-2.84-7.75-5.27-14.8-2.73-7.93-5-13.77-6.33-16.79,1.49,5.82,3.75,14.7,6,25.29,1.22,5.89,1.71,9,1.8,9.79.47,3.6.26,5.56-.44,6.2-1.53.82-3.17-.2-5.38-3.55-1.44-2.18-3.57-6.21-6.78-12.52a161.28,161.28,0,0,0-7.85-14.1c5.94,16.93,13.35,34.83,14.12,53,0,1.36-.47,2.14-1.47,2.34-.83.17-1.46-.73-2-2.89-.2-.75-.64-3.76-2.08-9.92-3.67-14.51-9-28.62-13.87-42.73-5.21-14.64-11.15-29-15.6-43.95,0-.26-.13-1.45-.39-3.36-.19-1.38,0-2.31.49-2.83,1.36-1.33,2.48-1.73,3.37-1.14a121.61,121.61,0,0,0,5.46,12.78c3,6.32,5.45,11.92,7.1,15.55,2.73,6,6.12,12.56,9.17,18.94a103.68,103.68,0,0,0,9,15.89C104,122.66,96.38,97.42,91.81,71.6a3.94,3.94,0,0,1,1.46-3.66c1.63-1.43,2.8-1.34,3.55.49,1.13,2.74,2.39,6.46,3.89,11.25.48,1.53,1.47,4.92,3.24,10.55,1.49,4.71,2.86,8.71,3.93,11.73C114.61,120.65,121.77,139.27,127.44,158.32Z"/><path class="cls-4" d="M139.8,34.58c-.1,3.08-.66,5.45-1.79,6.7C135.1,44.56,124.65,52,123.07,57.58c-3.59,12.66,8.87,45.57,13.42,68.33,1.3,6.49,2.38,12.38,3.2,17.32a24.48,24.48,0,0,1,.39,3.52c0,1.35-.24,2.14-.66,2.49-.83.7-1.61.57-2.43-.69a17.09,17.09,0,0,1-2-5.59c-.68-3.18-1.48-6.86-2.4-11-2.57-11.55-5.23-23.1-7.87-34.63C122.16,86.18,118,64.23,117,63.8c-.26-.11-2.9,2.31-4.86,4.7a51.57,51.57,0,0,1-4.7,5.29c-2.13,1.81-4.22,2-6.26.86-1.22-1.9-1.8-2.81-1.83-2.89a5.71,5.71,0,0,1-.07-2.3c1.16-2.13,3.91-5.45,8.23-9.81a49.35,49.35,0,0,0,8.33-10.7,16.1,16.1,0,0,0,5.95-2.84,34.3,34.3,0,0,0,6-5.52c.57-.46,2-2,4.22-4.43a16.57,16.57,0,0,1,4.31-3.39c.85-.44,1.31-.25,1.3.94C138.89,32.91,139.63,33.17,139.8,34.58Z"/><path class="cls-4" d="M157.18,103.73c-.34,11.76.69,26.93-5.25,37.74a4.35,4.35,0,0,1-1.12,1.23c-1.68,1.15-3.37-.26-6.19-6.87-1.9-4.48-3.81-11.83-5.84-22.7a356.52,356.52,0,0,1-5-41.78,100,100,0,0,1,.53-16.52c.69-5.45,1.78-8.4,3.1-9.21.75-.47,1.58-.09,2.46,1.22s3,2.56,6.1,4.1c2.47,1.22,4.45,4.73,5.93,10.72a173.58,173.58,0,0,1,4.78,29.14C157.08,95.53,157.24,99.86,157.18,103.73Zm-5.85-13.66c-1.66-12.55-3.34-19.7-5-21.29-.25-.21-.47-.27-.64-.17-.51.3-.95,2.37-1.21,6.24a52.08,52.08,0,0,1-.9,8.14c-.22.67-.67.43-1.43-.77s-1.23-1.74-1.39-1.63-.2.32-.22.71c-.59,6.06.16,14.64,1.87,25.11a121.71,121.71,0,0,0,3.65,16.65c1.74,5.46,2.73,7.59,3.32,7.18,1.36-1,2.3-5.32,2.75-14.76A144.58,144.58,0,0,0,151.33,90.07Z"/><path class="cls-4" d="M184.37,17.26c1.08,1,1.61,2.66,1.58,5.13a45.5,45.5,0,0,1-.94,7.14c-.78,4.18-1.19,6.77-1.25,7.32-2.17,16.9-3.29,34-4.45,50.93-1,14.5-1.76,29.1-3,43.61-.18,2-.68,2.82-1.52,2.81a1.29,1.29,0,0,1-1-.67c-1.14-1.71-2-5.09-2.53-11.44,0-.58-.37-6.11-1.11-19.22-.39-6.9-.79-14.73-1.25-23.15-.82,10.1-1.09,20.26-1.37,30.37-.35,12.88-.91,19.12-1.66,21.86-.22.84-.73.85-1.27.67s-1.64-1.56-2-4.82c-.35-2.87-.66-6.08-1-9.43-1.78-15.3-3.09-30.69-4.6-46-1.37-13.9-2.57-28.07-5.45-41.81a8.94,8.94,0,0,1-.08-3.48,3.68,3.68,0,0,1,1.1-2.27,6.59,6.59,0,0,1,1.15-.84c1.37-.67,2.51-.09,3.42,2,3.43,21.29,4.67,43,6.23,64.46.18-2.57.32-7.35.44-14.37s.46-12.21.65-15.3c.34-5.43.28-11.16.48-16.33.24-6.3,1.35-9.53,3.11-10.13a2.32,2.32,0,0,1,1.54.05c.06.74.28,1.12.65,1.13s.58.14.63.38c1.14,6,2,14.93,2.4,27.08.37,10,.69,20,1,30,.73-13.44,1.42-27,2.39-40.3.81-11.11,1.65-22.52,3.8-33.58.31-1.47,1-2.27,2-2.48A2.11,2.11,0,0,1,184.37,17.26Z"/><path class="cls-4" d="M214.84,20.39c-1.55,15.41-4.06,30.72-6.5,46-2.68,16.79-5.47,33.66-7.31,50.57-.45,4.1-.79,8-1,11.69a10.49,10.49,0,0,1-.84,3.92c-.45.89-.9,1.12-1.37.73-.91-.75-1.58-3.29-1.89-8.13-1.56-24.65-1-49.43-1.9-74.11,0-.73-.1-1.1-.23-1.11-.29,0-.53.8-.74,2.48-2.1,18.28-3.84,36.63-5.07,55-.58,8.62-.93,16.78-1,23.66,0,2.52-.3,4-.85,4.61-.21.45-.44.63-.68.54s-.47-.42-.81-1-.73-1.13-.85-1.32a5.3,5.3,0,0,1-.69-3.11c0-1.32,0-2.79,0-4.33,0-5.09.23-11.06.56-17.77.78-15.86,2-31.74,3.31-47.57,1.17-14.48,2.59-29.12,3.18-43.51a2.81,2.81,0,0,1,2.55-3c.71-.12,1.93.7,3.36,3.09,2.42,10.56,2.77,21.56,3.08,32.22.37,12.93.26,26.17.61,39.25,3.44-23.5,7.55-47,10-70.59.2-1.79.83-2.5,1.92-2.21a3.63,3.63,0,0,1,1.31.77c.66.55,1,.91,1.17,1A4,4,0,0,1,214.84,20.39Z"/></g></svg>