<svg xmlns="http://www.w3.org/2000/svg" viewBox="0 0 454 480"><defs><style>.cls-1{fill:silver;}.cls-1,.cls-2,.cls-3{stroke:#000;stroke-miterlimit:10;}.cls-2{fill:#f08274;}.cls-3{fill:none;}.cls-4{fill:#fff;}</style></defs><title>flags</title><g id="Layer_9" data-name="Layer 9"><path class="cls-1" d="M9.59,127.79a11.75,11.75,0,0,1,4.55-4.41,12.26,12.26,0,0,1,6.06-1.47L190,474.56a7,7,0,0,1-3,4.41,7.47,7.47,0,0,1-7.58,0Z"/><path class="cls-2" d="M28.57,142.14C61.86,81.2,118,50.72,140.13,35.72c33.69-22.8,77.23-37.11,84.39-17.92,5.2,13.92-11.43,38.3-5.11,51.77,6.07,12.95,27,3.63,30.69,2,19.63-8.69,21.51-23.6,46.67-44.8,10.33-8.71,21.71-18.07,37.72-20.91,10.08-1.79,21.56-3.82,32.61,5,17.69,14.09,15.39,40.9,30.69,57.75,8,8.83,21.88,16.05,47.31,6-12,11.74-29.66,24.72-46,15.93C386.81,83.91,386.18,71,373.48,58.62c-21.76-21.23-52.65-15.29-74.16,2-24.27,19.5-35,52.14-38.36,63.72,3.67-4.47,30.8-36.3,66.49-23.9C368.93,114.86,384,175.83,385,180.09c-21.85-40.91-48.86-60.83-66.49-55.76-9.49,2.73-17.9,10-17.9,10-9.34,8-14.12,17.38-19.18,25.89-6.55,11-20.64,34.68-38.36,45.8-11.76,7.38-32.49,13.85-39.64,0-7.44-14.42,6.58-37.82,0-51.77-8.05-17.07-40.52-6.4-62.65,13.94C107.43,198.78,95.18,253.5,90.9,277.67,77.48,232.2,42,187.61,28.57,142.14Z"/><line class="cls-3" x1="222" y1="157.48" x2="232.64" y2="97.38"/><line class="cls-3" x1="229.1" y1="181" x2="246.84" y2="89.54"/><line class="cls-3" x1="241.52" y1="170.55" x2="252.16" y2="113.06"/><path class="cls-4" d="M85.49,117c.64,5.35-.47,12.64-3.37,21.1-2.66,7.78-5.42,15.94-7.48,24.12,1,.94,2.32.82,4-.36s3.41-2.29,5-3.35c9.36-4,16.17-2.7,19.81,3.4,2.8,4.7,3.75,10.86,3.11,18.85-.49,6.15-2,13.94-4.36,23.76-1.89,7.91-3.71,16.24-5.32,25a29,29,0,0,1-1.78,6.05c-1.84,4.34-4.47,6.19-5.39,5.2-4.15-4.47-7.89-16.89-12.38-25-5.39-9.7-9.92-17.93-13-24.77-1.9,1-3.29.62-4.27-1a6.79,6.79,0,0,1-.75-3.42,44.35,44.35,0,0,1,.36-5.4C54,169.34,43.92,144.88,43.92,144.88c-.53-.1-4.53,4.12-5.5,2.51a6.14,6.14,0,0,1,0-1.93,13.57,13.57,0,0,0,.14-2.16,28.47,28.47,0,0,1,3.45-8.08,35.42,35.42,0,0,1,2.85-3.71c1.79-2.09,3.11-3.59,3.72-4.3A51.7,51.7,0,0,1,60,117.47c9.85-6.12,18-8.64,21.35-6.59A8.3,8.3,0,0,1,85.49,117Zm7.65,60.16a16.73,16.73,0,0,0-1.42-3,7,7,0,0,0-6.33-3.71c-5.15,3.23-8.06,5.62-9,7.11a10.89,10.89,0,0,0-1.27,2.79,29.63,29.63,0,0,1,1.9,2.7,89.68,89.68,0,0,1,4.78,9.37c2,4.44,3.64,7.68,4.82,9.64a22.14,22.14,0,0,0,5.31,6.36,55.11,55.11,0,0,1,1.35-10.38,63.64,63.64,0,0,0,1.52-9.47A31.26,31.26,0,0,0,93.14,177.18ZM69.78,125c-1.57-2.26-5.19-1.41-10.12,2.33a25.22,25.22,0,0,1-3.42,2.09,7.58,7.58,0,0,0-2.52,1.9,4.18,4.18,0,0,0-.91,1.47c-.11.92.73,2.79,1.26,4.25a66.85,66.85,0,0,0,4.83,9.77c2.42,4.21,4.49,7.8,5.9,10.54a15.64,15.64,0,0,0,1.6-4.47c.58-2.26.95-3.53,1.06-3.81A54.68,54.68,0,0,0,71,135.62C71.64,130.78,71.28,127.2,69.78,125Z"/><path class="cls-4" d="M120.36,64.33c.35,1.31-1,3.71-4.09,7.21a10.51,10.51,0,0,1-2.92,2.3c-1.69.91-2.6,1.47-2.71,1.55a7.55,7.55,0,0,0-1.87,2.2c-5,8.46-6.18,15.67-3.73,21.7a11.14,11.14,0,0,0,4.09,5.18c.79.53,7.64,3.11,19.88,10.11,8.16,4.67,13.08,10.4,15.38,16a33.75,33.75,0,0,1,2.12,15.48c-.14,1.9-1.2,5.07-3.16,9.62a26.29,26.29,0,0,1-5.16,8.27,11.19,11.19,0,0,1-2.24,1.76c-2.95,1.54-4.84,1.66-5.68.14-.5-.91-.5-2.67,0-5.25a7.24,7.24,0,0,1,2-3.07,5.54,5.54,0,0,0,1.79-3.81,30,30,0,0,0-2.72-13.28c-2.6-5.34-9.3-11-20.63-15.58s-18.43-9.14-20.89-14.71a22.92,22.92,0,0,1-1-15.16c1.55-6.26,5-12.34,10.19-18.35a52,52,0,0,1,7.38-7.07c4.81-3.74,8.68-5.79,11.53-6.13C119.39,63.32,120.17,63.61,120.36,64.33Z"/><path class="cls-4" d="M215.93,21.43c-.93,3.26-2.59,5.29-5,5.93-12.34,3.29-32.13,9.07-35.17,13.88-5.31,8.42.27,42.66,2.9,63.78.8,6.41,1.69,12.55,2.8,18.08A17.76,17.76,0,0,1,182,127c-.07,1.44-.64,2.13-1.67,2.22a7.79,7.79,0,0,1-5.89-2,12.67,12.67,0,0,1-4.11-6.16c-1-3.25-1.88-6.88-2.7-10.78a280.89,280.89,0,0,1-4.45-31.26c-.93-9.78-2.2-28.85-3.25-29.41-.64-.34-7.48,3.86-13,7.64-6.3,4.34-10.65,7.51-13.1,9.1-5.71,3.71-10.63,6-14.78,6.68-2-.87-2.92-1.28-2.94-1.35a3.72,3.72,0,0,1,.77-2.44,189.17,189.17,0,0,1,22.76-17.78c7.65-5.22,15.56-10.43,22.71-16.4A151.07,151.07,0,0,0,176.6,30c5.18-2.11,10-4.2,14.41-6.39,1.31-.47,4.65-2.08,9.74-4.12a28.24,28.24,0,0,1,9.16-2.11c1.7-.07,2.51.41,2.22,1.71C214.75,19,216,19.79,215.93,21.43Z"/></g></svg>