<svg xmlns="http://www.w3.org/2000/svg" viewBox="0 0 454 480"><defs><style>.cls-1{fill:silver;}.cls-1,.cls-2,.cls-3{stroke:#000;stroke-miterlimit:10;}.cls-2{fill:#f08274;}.cls-3{fill:none;}.cls-4{fill:#fff;}</style></defs><title>flags</title><g id="Layer_10" data-name="Layer 10"><path class="cls-1" d="M4.59,125.79a11.75,11.75,0,0,1,4.55-4.41,12.26,12.26,0,0,1,6.06-1.47L185,472.56a7,7,0,0,1-3,4.41,7.47,7.47,0,0,1-7.58,0Z"/><path class="cls-2" d="M23.57,140.14C56.86,79.2,113,48.72,135.13,33.72c33.69-22.8,77.23-37.11,84.39-17.92,5.2,13.92-11.43,38.3-5.11,51.77,6.07,12.95,27,3.63,30.69,2,19.63-8.69,21.51-23.6,46.67-44.8,10.33-8.71,21.71-18.07,37.72-20.91C339.57,2.07,351,0,362.09,8.83c17.69,14.09,15.39,40.9,30.69,57.75,8,8.83,21.88,16.05,47.31,6-12,11.74-29.66,24.72-46,15.93C381.81,81.91,381.18,69,368.48,56.62c-21.76-21.23-52.65-15.29-74.16,2-24.27,19.5-35,52.14-38.36,63.72,3.67-4.47,30.8-36.3,66.49-23.9C363.93,112.86,379,173.83,380,178.09c-21.85-40.91-48.86-60.83-66.49-55.76-9.49,2.73-17.9,10-17.9,10-9.34,8-14.12,17.38-19.18,25.89-6.55,11-20.64,34.68-38.36,45.8-11.76,7.38-32.49,13.85-39.64,0-7.44-14.42,6.58-37.82,0-51.77-8.05-17.07-40.52-6.4-62.65,13.94C102.43,196.78,90.18,251.5,85.9,275.67,72.48,230.2,37,185.61,23.57,140.14Z"/><line class="cls-3" x1="217" y1="155.48" x2="227.64" y2="95.38"/><line class="cls-3" x1="224.1" y1="179" x2="241.84" y2="87.54"/><line class="cls-3" x1="236.52" y1="168.55" x2="247.16" y2="111.06"/><path class="cls-4" d="M44.63,124.9a10.63,10.63,0,0,1-.9,7.2c-1.52,3-2.3,5.29-2.35,7-.68,20.08,7.08,38.6,15.83,56a218.84,218.84,0,0,0,15,25c3.9,5.67,6.17,9.19,7.28,10.74,2.73,3.78,4.65,5.73,6.06,6.06.52,0,1.11-.23,1.49-.25s1.16.9,1.68,2.37a22.31,22.31,0,0,1,1.06,4.68,5.41,5.41,0,0,1-.12,2.92,3.31,3.31,0,0,1-1.5,1.09c-1.59-.25-4.26-3.18-9.52-9.68q-2-2.47-4.31-5.25c-1.54-1.85-3-3.79-4.39-5.78-1-1.45-4.81-7.92-11.92-19.69-2.2-3.64-4.3-7.32-6.28-10.9C42.69,180,35.3,161,35.56,141.92c.18-9.64,2.28-15.54,4.78-18.44,1.07-1.25,2.16-1.63,3.32-1.12C44,122.5,44.31,123.34,44.63,124.9Z"/><path class="cls-4" d="M95.6,193.47a35.51,35.51,0,0,1,1.74,4.42,28.06,28.06,0,0,1,1.22,7c.12,2.39.1,3.64-.06,3.8-1.29,1.21-3.13-1.6-6.28-9.19-3.42-8.24-6.87-15.4-9.86-20.93-.76,1.87-1.57,3.8-2.22,5.65a16.6,16.6,0,0,0-.44,8.59c.91,4.07,4,11.88,7.21,21.89a183.61,183.61,0,0,1,5.57,20.66c.42,2.24.26,3.57-.41,3.92-.82.44-1.67-.32-2.38-2.25-1.44-3.89-3.39-10.07-6-18.75-3-9.95-5.53-17.24-7.17-21.24a6.74,6.74,0,0,0-2.16-2.86,6.3,6.3,0,0,1-2-2.25,11.64,11.64,0,0,1-.74-2.3,7.67,7.67,0,0,1,0-3.14,6.15,6.15,0,0,0-.15-3.25c-4.22-12.87-8.68-25.87-11.82-38.9C57,133,54.55,121.38,54.62,109.49a5.51,5.51,0,0,1,1.2-3.75c.55-.6,1.09-.67,1.64-.22,1.41,1.27,2.69,4.28,4.16,9.28,1.26,4.29,2.73,8.84,4.37,13.52C75.1,150.39,85.67,171.75,95.6,193.47ZM77.07,168c-1.92-4.54-4.15-9.57-6.65-14.86-2.16-4.57-4.34-9.15-6.31-13.64,2.79,11.75,6,23.13,9.62,34.66A27.74,27.74,0,0,1,77.07,168Z"/><path class="cls-4" d="M119,171.66a7.29,7.29,0,0,1-.44,5.23c-.5.93-1.23.77-2.18-.58-.81-1.15-1.77-3.7-3-7.81-1.14-3.79-2.66-9.65-4.64-17.83-2.23-9.21-3.91-15.73-4.9-19.13,1.45,9.58,2.94,19.14,4.43,28.71,1,6.9,1.52,10.69,1.62,11.69.47,4.37.35,6.78-.31,7.39-1.45.63-3.09-1-5.18-5.32-1.36-2.79-3.34-7.77-6.08-15.17-3-8.14-5.23-13.69-6.48-16.33,5,21.19,10.86,42.53,13.24,64.22.21,1.9-.24,2.71-1.37,2.42-.93-.24-1.76-1.78-2.56-4.75-.28-1-1-5.1-2.59-12.75C94.92,175,90.65,158.51,86.88,141.9c-3.74-16.79-7.72-33.57-9.27-50.74,0-.3.1-1.72.19-4.1.06-1.71.35-2.83.87-3.33,1.36-1.32,2.36-1.54,3-.62a110.89,110.89,0,0,0,2.92,15.72c1.84,7.51,3.45,13.83,4.59,18,1.86,6.83,4.37,14.24,6.72,21.5a119.59,119.59,0,0,0,7.41,18.47C98.49,128.11,93.3,99.14,93.5,70a5.45,5.45,0,0,1,1.73-4.1c1.51-1.31,2.38-.84,2.71,1.53.49,3.57,1,8.11,1.72,13.69.22,1.78.66,5.71,1.62,12.06.81,5.32,1.65,9.75,2.33,13.11C108.32,128.16,113.79,149.87,119,171.66Z"/><path class="cls-4" d="M123.6,87c-.38,11-.57,18.68-1,22.81-.7,6.43-1,10-1,10.58a66.64,66.64,0,0,1-1.91,7.92c-.33,1.8.69,5.42,1.21,8.61.37,2.24,1,5.58,1.77,9.84s1.31,7.29,1.61,9.23a72.91,72.91,0,0,1,1,17.08l-1.31-.66c-.54-.26-.92-1-1.17-2.22-1.22-6.11-2.71-13.79-4.42-23.06-1.76-9.57-3.42-19.2-5-28.77s-3-19.4-4.4-29.11c-1.28-9.13-2.32-16.91-3.13-23.26-.3.57-.64.31-1-.77s-.64-1.61-.85-1.64c0-3.33.39-5.08.88-5.48a8.51,8.51,0,0,1,3.8-2.77c5.34-2.24,9.4.1,12.65,8.26a38.11,38.11,0,0,1,2.07,10.52A117.13,117.13,0,0,1,123.6,87Zm-5-10.61c-.25-4.74-1.18-7.71-2.91-9-.08.06-1.62-.43-4.64-1.23,1.7,15,3.92,29.84,6,44.75C118.11,99.4,119.21,87.88,118.6,76.35Z"/><path class="cls-4" d="M144.26,61.94A73.64,73.64,0,0,1,141,79.1c-1.57,4.84-3.3,9.85-4.81,14.79.21,1.48.64,2.38,1.28,2.72s1.25.68,1.83,1c3.12,3.57,4.71,9.33,5.07,16.75a82,82,0,0,1-.88,16.64,98.89,98.89,0,0,1-3,13.14c-1.09,3.64-2.19,7.29-3.24,10.89a5,5,0,0,1-.94,1.94c-.86.94-1.79.41-2.13-1.32-1.25-6.26-1.5-14.88-2.36-23-1-9.82-1.84-18.57-2.25-25.56A6.64,6.64,0,0,1,128,103a10.32,10.32,0,0,1,.11-2.9q.26-1.49.8-3.45c-1-13.87-1.16-40.45-2.77-41.6-.36-.26-3.25-.47-3.94-2.85a5.46,5.46,0,0,1,.17-1.68,9.08,9.08,0,0,0,.24-1.82,9.84,9.84,0,0,1,3.1-4.26,8.1,8.1,0,0,1,2.08-.93c1.21-.38,2-.69,2.39-.85a7.36,7.36,0,0,1,5.87,0,13.16,13.16,0,0,1,7.74,10.19A39,39,0,0,1,144.26,61.94Zm-4.11,56.91q0-1.72-.12-3.23a24.25,24.25,0,0,0-1.45-7.39c-1.81-1.29-3-1.72-3.44-1.35a2.61,2.61,0,0,0-.69,1.06q.18,1.51.34,3.36c.19,2.15.39,5.54.62,10s.45,7.78.65,9.9a75.15,75.15,0,0,0,1.11,7.89,40.59,40.59,0,0,1,1.22-5.62,42.27,42.27,0,0,0,1.22-5.3A64.42,64.42,0,0,0,140.15,118.86Zm-1.48-60.94c-.27-3.41-1.52-5.34-3.75-5.76a4.63,4.63,0,0,1-1.54-.8c-.49-.36-.91-.5-1.23-.29a1.41,1.41,0,0,0-.53.63c-.31,1.08,0,3.2.1,5,.09,2.41.35,6.5.81,12.51.43,5.54.75,10.08.93,13.39a6.62,6.62,0,0,0,1-2.44c.44-1.44.71-2.23.78-2.38a40.5,40.5,0,0,0,2.62-9.12A40.51,40.51,0,0,0,138.67,57.92Z"/><path class="cls-4" d="M167.08,32.31c-1.54,2.35-3.79,5.32-6.7,9.06a74.68,74.68,0,0,0-6.55,9.69c-.4,3.6-.77,11.5-1,24.28a1.59,1.59,0,0,0,2,.27,11.79,11.79,0,0,0,2.54-2.26,9.84,9.84,0,0,1,2.56-2.18,1.89,1.89,0,0,1,2.49,1.51,16.65,16.65,0,0,1,.52,5.29,7.71,7.71,0,0,1-.46,2.51c-.07.17-.36,1.27-.83,3.29-.32,1.4-.67,2.11-1.08,2.14a12.3,12.3,0,0,1-3.94,3,9.35,9.35,0,0,0-3.79,4.48c-.61,10.81-.75,19-.63,24.68a74.64,74.64,0,0,0,.57,8.69c1.48,3.31,3.82,3.54,7.16,1.44.23-.1.47-.66.73-1.7s.48-1.59.65-1.67c.82-1.08,1.32,1.47,1.64,7a27.57,27.57,0,0,1-.14,5.09c-.2,1.57-.52,2.49-1,2.75-3.15,1.86-6.32,2.48-8.9,1.53-.81-.27-1.6-1.5-2.37-3.86a38,38,0,0,1-1.53-9.08c-.7-10.47-1.1-21.11-1-31.62a16.09,16.09,0,0,1-1.45-7.06,12.26,12.26,0,0,1,.72-4,13.29,13.29,0,0,0,.81-3.8c.05-1.17.07-8.14.25-20.09-2.13-.33-3.22-2.57-3.22-6.65a21.92,21.92,0,0,1,2-10c1.17-2.27,2.68-4.58,3.87-6.76a53.64,53.64,0,0,1,5.78-8.65c2-2.34,4-4.57,6-6.66a2.33,2.33,0,0,1,.73-.45c1.08-.43,2.32.19,3.69,2,0,.44.1,1.25.21,2.47a23,23,0,0,1,.13,2.74A7.08,7.08,0,0,1,167.08,32.31Z"/><path class="cls-4" d="M182.47,22a10,10,0,0,1-2,5.39c-.34.46-.68.56-1,.37a3.08,3.08,0,0,0-.85-.37c-.24.06-.49.41-.75,1.05-2.41,5.81-3.87,12.91-4.46,21.48a78.32,78.32,0,0,0-.14,8.9c.06,1.21.85,9.66,1.88,25.88a219.22,219.22,0,0,1,.21,27.16,145,145,0,0,1-1.9,16.26,33.18,33.18,0,0,1-2,6.29c-.8,2-1.52,3-2.18,3.1a.83.83,0,0,1-.73-.23,5.7,5.7,0,0,1-1.35-4,16.76,16.76,0,0,1,.64-4.17,1.43,1.43,0,0,1,.83-1c.43-.19.73-.82.89-1.91A126.92,126.92,0,0,0,171,112.15a221.71,221.71,0,0,0-1.21-30.92c-1-10.71-2-21.62-1.45-32.35a99,99,0,0,1,2.27-17.34c1.32-5.71,3-9.72,5-12.4A5.53,5.53,0,0,1,178.37,17c1.66-.44,2.89.24,3.64,2.13A6.94,6.94,0,0,1,182.47,22Z"/><path class="cls-4" d="M216.89,19.19c-.49,3.74-1.33,6-2.32,6.48C212,27,203.22,28.6,201.16,31.3c-8,10.49-8.25,51.57-11.19,77.47-.86,7.59-1.48,14.74-1.72,21.16-.07,2-.14,3.47-.26,4.45-.18,1.55-.48,2.14-.91,1.93-.78-.4-1.52-1.75-2-4.27a36.35,36.35,0,0,1-.53-8.49c.18-4,.52-8.49,1-13.32,1.28-13,3.22-26,5.11-39,1.85-12.73,7.16-35.38,5-38.29-.2-.27-2.47.15-4.37,1.08a19.38,19.38,0,0,1-4.49,1.82c-1.88.25-3.29-1-4.3-3.61-.27-2.77-.42-4.13-.42-4.23a8.86,8.86,0,0,1,.55-2.45c1.32-1.4,4-2.92,7.85-4.36a16.67,16.67,0,0,0,7.77-5.48,7,7,0,0,0,4.55,1.7,9,9,0,0,0,5-1.47,19.58,19.58,0,0,0,3.51-1.79,4.31,4.31,0,0,1,3.38-.46c.55.17,1,.88.81,2.39C216.47,16.28,217,17.29,216.89,19.19Z"/></g></svg>