<svg xmlns="http://www.w3.org/2000/svg" viewBox="0 0 454 480"><defs><style>.cls-1{fill:silver;}.cls-1,.cls-2,.cls-3{stroke:#000;stroke-miterlimit:10;}.cls-2{fill:#e76970;}.cls-3{fill:none;}.cls-4{fill:#fff;}</style></defs><title>flags</title><g id="Layer_17" data-name="Layer 17"><path class="cls-1" d="M9.59,123.79a11.75,11.75,0,0,1,4.55-4.41,12.26,12.26,0,0,1,6.06-1.47L190,470.56a7,7,0,0,1-3,4.41,7.47,7.47,0,0,1-7.58,0Z"/><path class="cls-2" d="M28.57,138.14C61.86,77.2,118,46.72,140.13,31.72c33.69-22.8,77.23-37.11,84.39-17.92,5.2,13.92-11.43,38.3-5.11,51.77,6.07,12.95,27,3.63,30.69,2,19.63-8.69,21.51-23.6,46.67-44.8,10.33-8.71,21.71-18.07,37.72-20.91C344.57.07,356-2,367.09,6.83c17.69,14.09,15.39,40.9,30.69,57.75,8,8.83,21.88,16.05,47.31,6-12,11.74-29.66,24.72-46,15.93C386.81,79.91,386.18,67,373.48,54.62c-21.76-21.23-52.65-15.29-74.16,2-24.27,19.5-35,52.14-38.36,63.72,3.67-4.47,30.8-36.3,66.49-23.9C368.93,110.86,384,171.83,385,176.09c-21.85-40.91-48.86-60.83-66.49-55.76-9.49,2.73-17.9,10-17.9,10-9.34,8-14.12,17.38-19.18,25.89-6.55,11-20.64,34.68-38.36,45.8-11.76,7.38-32.49,13.85-39.64,0-7.44-14.42,6.58-37.82,0-51.77-8.05-17.07-40.52-6.4-62.65,13.94C107.43,194.78,95.18,249.5,90.9,273.67,77.48,228.2,42,183.61,28.57,138.14Z"/><line class="cls-3" x1="222" y1="153.48" x2="232.64" y2="93.38"/><line class="cls-3" x1="229.1" y1="177" x2="246.84" y2="85.54"/><line class="cls-3" x1="241.52" y1="166.55" x2="252.16" y2="109.06"/><path class="cls-4" d="M41.85,130.42a9,9,0,0,1,.66,6,14.46,14.46,0,0,0-.58,5.83c2.8,17.65,10.76,34.25,18.91,49.72a198.05,198.05,0,0,0,14.38,23.26c3.86,5.35,6.3,8.68,7.5,10.15,2.94,3.59,5.16,5.41,6.81,5.62.61-.08,1.27-.33,1.74-.38s1.42.81,2.13,2.27A20.17,20.17,0,0,1,95,237.6c.35,1.69.27,2.71,0,3A4.76,4.76,0,0,1,93,241.93c-2.07-.1-5.58-2.93-11.14-9.15q-2.11-2.37-4.41-5a57.88,57.88,0,0,1-4.26-5.52c-.95-1.39-4.59-7.66-11-18.73-2-3.42-3.94-6.84-5.66-10.19-7.87-15.29-15.33-31.58-18.4-48.85-1.52-8.26-1.29-13.06,0-15.38a1.66,1.66,0,0,1,2.37-.82C40.85,128.41,41.27,129.11,41.85,130.42Z"/><path class="cls-4" d="M102.81,195.55a4.88,4.88,0,0,1,.76,1.16,14.17,14.17,0,0,1,1.11,8.1c-3-1.77-7.42-5.3-13.89-11-7.23-6.42-12.78-11.06-16-13.35,1.54,3,5.73,10.9,12,23.18,4.72,9.24,8.07,16.56,10.24,22.15a9.8,9.8,0,0,0,0,1.65c0,1,0,1.58-.27,1.71-1.31,1.09-3.2-1-6-6.41-.81-1.6-1.87-3.86-3.22-6.76-1.56-3.34-2.59-5.44-3-6.26-3.34-6.58-7.55-14.44-12.51-23.44C68,178.9,66,175.23,62,168.08c-6.32-11.72-12.68-23.44-17.63-35.78-2.41-6-2-10.35.74-13.71,1.38-1.71,3.45-1.26,6.63,1.84a48.92,48.92,0,0,1,8.69,12.43,91.56,91.56,0,0,1,6.33,16.24A83.31,83.31,0,0,1,70,164a12.2,12.2,0,0,0,1.38,4.67,11.45,11.45,0,0,0,3.52,3.8c1.12.78,2.29,1.54,3.43,2.31.08.07,4.47,3.38,12.46,9.52A69.74,69.74,0,0,1,102.81,195.55ZM57.67,137.29c-.86-1.88-1.62-3.5-2.34-4.77A17.73,17.73,0,0,0,52,128.14c-1.13-1-2.07-1-2.83.22a4.14,4.14,0,0,0-.06,3.72,81.43,81.43,0,0,0,4,8.48c.66,1.28,2.41,4.53,5.49,10,2.34,4.17,4.3,7.75,5.8,10.63C62.51,151.22,60.34,143.32,57.67,137.29Z"/><path class="cls-4" d="M75.22,96.28c-.54,2.66-1.49,6.17-2.72,10.64A65.53,65.53,0,0,0,70.34,118c1.13,3.07,4.09,9.52,9.44,20.08a2,2,0,0,0,2-.94,14,14,0,0,0,1.45-3.36,12.33,12.33,0,0,1,1.49-3.32,2.13,2.13,0,0,1,3-.4,12.08,12.08,0,0,1,2.81,3.81,6,6,0,0,1,.67,2.28c0,.19.22,1.24.66,3.18.31,1.33.29,2.15-.09,2.44a16.21,16.21,0,0,1-2.45,5.11,11.3,11.3,0,0,0-1.72,6.18c4.14,9.48,7.57,16.8,10.15,21.82a68.81,68.81,0,0,0,4.31,7.52c2.89,2,5.28.39,7.48-4.3a4.08,4.08,0,0,0,0-2.15,4.44,4.44,0,0,1-.1-2c.29-1.65,1.84.13,4.33,5a24.1,24.1,0,0,1,1.9,5,6.28,6.28,0,0,1,.25,3.54c-2,4.64-4.63,7.76-7.55,8.79-.91.35-2.2-.3-4-2.05A33.81,33.81,0,0,1,99,186.48c-5-9.1-10.06-18.34-14.65-27.71a12.62,12.62,0,0,1-4.48-5.2,10.55,10.55,0,0,1-1-3.81A11.19,11.19,0,0,0,78,146.1c-.45-1-3.46-6.89-8.33-16.74-2.15.81-4.11-.52-5.78-3.88a17.91,17.91,0,0,1-2.18-9c.16-2.37.62-4.92.86-7.22a44.78,44.78,0,0,1,2-9.6q1.41-4.19,3.12-8.17a2.89,2.89,0,0,1,.53-.73c.87-.9,2.27-1.07,4.25-.4.19.32.55.9,1.12,1.76a15.93,15.93,0,0,1,1.17,2A5.18,5.18,0,0,1,75.22,96.28Z"/><path class="cls-4" d="M122.81,147.05a34.43,34.43,0,0,1,1.71,3.92,21.5,21.5,0,0,1,1.23,5.78c.13,1.9.11,2.87,0,2.95-1.37.52-3.38-2.26-6.42-8.88-3.3-7.19-6.42-13.34-9.13-18.08-.78,1.33-1.64,2.69-2.32,4a10.51,10.51,0,0,0-.74,6.59c.72,3.3,3.36,9.76,6.36,18.17,2.78,7.78,4.61,13.51,5.71,17.48.51,1.9.33,2.94-.45,3.06-1,.16-2-.64-2.81-2.33A143.62,143.62,0,0,1,110,163.81c-2.67-8.28-4.75-14.26-6.15-17.57a6,6,0,0,0-1.94-2.47,5.8,5.8,0,0,1-1.79-2,8.42,8.42,0,0,1-.6-1.86,5,5,0,0,1,.18-2.44,4,4,0,0,0,0-2.54c-3.45-10.27-7-20.52-10.3-30.83-4-12.31-6-20.66-6.91-26.17a2.78,2.78,0,0,1,.73-2.72,1.43,1.43,0,0,1,1.72-.18c1.67.9,3.39,3.09,5.22,6.86,1.57,3.23,3.21,6.74,4.92,10.4C104.41,110.51,113.73,128.72,122.81,147.05Zm-17.42-23.22c-1.7-3.75-3.7-7.88-6-12.18-2-3.72-4-7.4-5.93-11,2.5,9.24,5.42,18.44,8.58,27.47A17.73,17.73,0,0,1,105.39,123.83Z"/><path class="cls-4" d="M145.18,141.94c.47,2,.34,3.43-.34,4.22-.44.51-1.13,0-2-1.66a47,47,0,0,1-2.95-8c-1.12-3.68-2.61-9.19-4.55-16.72-2.18-8.47-3.85-14.39-4.85-17.51,1,5.68,2.53,14.32,4.43,25.28,1,6.07,1.53,9.4,1.63,10.26.49,3.79.41,5.71-.23,5.92-1.41-.12-3.06-2.16-5.13-6.39-1.35-2.75-3.3-7.45-6-14.22-2.94-7.44-5.11-12.42-6.33-14.82,4.91,18.44,10.06,36.89,13.57,55.66.3,1.63-.14,2.08-1.36,1.36-1-.59-2-2.16-2.86-4.82-.31-.92-1.19-4.46-2.8-11-3.66-14.25-7.59-28.42-11.33-42.65-3.68-13.91-7.82-27.68-11.41-41.61,0-.23-.07-1.34-.29-3.14-.16-1.3,0-2.14.49-2.51,1.3-1,2.36-1.1,3.19-.37.72,2.44,2.14,6.39,4.49,12.59s4.15,11.62,5.38,15.16c2,5.9,4.59,12.42,6.92,18.89A142.2,142.2,0,0,0,130.1,123c-4.65-24.43-9.21-48.86-12.95-73.44a3,3,0,0,1,1.32-3.11c1.47-1,2.52-.55,3.17,1.36,1,2.87,2,6.61,3.08,11.33.35,1.51,1.08,4.82,2.33,10.32,1.05,4.61,2,8.53,2.78,11.52C135.05,101.25,140.41,121.52,145.18,141.94Z"/><path class="cls-4" d="M150.68,31.7a13.47,13.47,0,0,1-.29,4.42,6.52,6.52,0,0,1-1.6,3.31c-.29.31-.73.34-1.33.11a1.36,1.36,0,0,0-1.36,0c-1.66,1.18-3.6,3.46-5.71,6.94-2.66,4.4-5,7.57-5.16,8.4-.78,3.21,1.85,11,3,17s2.42,12.21,3.72,18.45a1.27,1.27,0,0,0,.86-.19c.63-.37,1.6-1.87,3-4.32,1.3-2.23,2.52-3.41,3.36-3.58s1.17.5,1.31,2c.34,4,.07,7.63-1.07,10.16-.85,1.89-2.08,4-3.06,6.07a22.62,22.62,0,0,0-2,2.84q.44,3,1.08,6.59c.41,2.31,1.06,5.81,1.88,10.36s1.36,7.83,1.68,10a103.51,103.51,0,0,1,1.41,17.65c0,.94-.16,1.49-.41,1.68s-.55,0-.93-.64a8.4,8.4,0,0,1-.92-2.37c-.57-2.28-1.15-5.13-1.74-8.63-.2-1.2-.82-5.37-2.07-13.14-.91-5.61-1.85-10.23-2.76-13.64a3.81,3.81,0,0,0-1.47-2.44,5,5,0,0,1-1.75-1.44,38.73,38.73,0,0,1-1.19-5.82c.4-.05.63-.64.67-1.78s.2-1.78.44-1.94a.6.6,0,0,1,.4-.1c-.69-4.93-1.64-10.34-2.86-16.08-.42-2-2.18-9.5-4.88-20.59a4.13,4.13,0,0,1-2.72-1.62,7.77,7.77,0,0,1-2-3.71,4.65,4.65,0,0,1,1.32-4.73c1.78-1.68,4.87-5.75,9.61-11.68,4.16-5.22,7.78-8.44,10.55-9.87a1.89,1.89,0,0,1,2,0A2.88,2.88,0,0,1,150.68,31.7Z"/><path class="cls-4" d="M153.77,47.42c.4,3,.78,6.21,1.15,9.65,1.27,12.09,2.17,24.28,3,36.39.84,11.89,1.61,23.85,2.27,35.77q.23,4.1.4,7.77c-.1,2.84-.51,4.29-1.15,4.49-.9.29-1.51-1.13-1.82-4.54s-.67-7.22-1-11.43c-1.06-11.79-2.07-23.62-3.14-35.4S151.36,66.63,149.9,55c-.35-2.78-.73-5.42-1.12-7.9.13-2.1.67-3.34,1.57-3.78a2,2,0,0,1,2.33.61q.17-.56.29-.61c.11-.05.24.43.33,1.43.11,1.22.18,2,.23,2.15A1.23,1.23,0,0,0,153.77,47.42Z"/><path class="cls-4" d="M175.28,31.64c-1.29,2.16-3.19,4.86-5.67,8.19a60.21,60.21,0,0,0-5.5,8.6c-.11,3.35.18,10.72.82,22.93a1.65,1.65,0,0,0,1.87.57,7.65,7.65,0,0,0,2.23-1.8,7,7,0,0,1,2.24-1.76c.91-.28,1.95.42,2.39,1.79a18.25,18.25,0,0,1,.78,5.25,7.3,7.3,0,0,1-.28,2.4c-.06.16-.26,1.2-.59,3.11-.22,1.33-.51,2-.88,1.93a7.72,7.72,0,0,1-3.46,2.29A6.28,6.28,0,0,0,166,88.75c0,10.33.06,18.25.25,23.82.13,3.76.3,6.62.54,8.67,1.25,3.71,3.16,4.76,6,3.56.2,0,.42-.54.67-1.51s.45-1.48.6-1.51c.72-.88,1.13,1.8,1,7.44a29.44,29.44,0,0,1-.52,5.12c-.3,1.54-.66,2.39-1,2.52a6.38,6.38,0,0,1-7-1.41c-.62-.57-1.19-2.07-1.77-4.65a60.94,60.94,0,0,1-1.23-9.36c-.65-10.19-1.39-20.43-1.87-30.65a19,19,0,0,1-1.75-7,10.31,10.31,0,0,1,.45-3.64,10.81,10.81,0,0,0,.53-3.45c0-1.1-.43-7.73-1.18-18.88-2.07-.57-3.32-2.78-3.65-6.54a17.39,17.39,0,0,1,1.15-9c.94-2,2.24-4,3.22-5.92a41.2,41.2,0,0,1,5-7.64c1.74-2.07,3.51-4,5.31-5.92a2,2,0,0,1,.67-.4c1-.37,2.23.22,3.62,2,0,.41.16,1.17.34,2.32a22.68,22.68,0,0,1,.29,2.59A6.44,6.44,0,0,1,175.28,31.64Z"/><path class="cls-4" d="M188.76,110.38c-.06.13-2.08,6-5.79,15.85a82.82,82.82,0,0,1-5.39,12.12q-.25.48-.46.49c-.32,0-.51-.87-.61-2.77-.18-2.53-.31-3.92-.33-4,1-15.76,1.51-31.59,1.83-47.33.32-15.93.52-32,.26-47.94-.1-6.06-.29-11.32-.52-15.75.45-1.44,1-2.26,1.78-2.48,1.39-.43,2.3.73,2.44,3.49.77,14.79.11,30.7-.18,46-.32,16.61-.81,33.33-1.66,50a72.49,72.49,0,0,0,3.29-8.35c1.56-4.54,2.69-7.72,3.37-9.27a1.78,1.78,0,0,0,.74-.44,1.66,1.66,0,0,1,.78-.44c.55,0,.88,1.11,1,3.32A28.54,28.54,0,0,1,188.76,110.38Z"/><path class="cls-4" d="M203.49,84.85c-.57,3.54-1.12,7.09-1.7,10.55-.68,4.07-1.37,7.26-2,9.58-1.41,5.66-2.82,11.07-4.23,16.11a73.27,73.27,0,0,1-4.13,12q-.68,2.14-1.47,4.32c-.52,1.45-.93,2.12-1.21,2.07s-.28-.22-.41-.59-.28-.8-.43-1.29a6.34,6.34,0,0,1-.15-2.33c.43-4.78,1.26-10.7,1.9-17.24,1-10.59,1.84-21.2,2.52-31.82q1.05-16.41,1.63-32.84c.32-9.46.43-17.64.39-24.44,0-.12-.36-1.55-1-4.08a14.85,14.85,0,0,1-.6-4.12A14.8,14.8,0,0,1,192.7,19a3.42,3.42,0,0,1,1.15-2.54,10.32,10.32,0,0,1,1.32-.73c2.8,1.43,5.62,6.11,8.11,16.15a62.88,62.88,0,0,1,1.44,8.65,168.87,168.87,0,0,1,.39,30.1C204.75,75.6,204.21,80.39,203.49,84.85ZM202.1,59.76c.27-9.57-1-17.69-3.89-23.89-1.12,26.22-2.56,52.39-4.87,78.53a225.08,225.08,0,0,0,8.47-48.22C201.94,64,202,61.89,202.1,59.76Z"/><path class="cls-4" d="M217.66,19.73a10.43,10.43,0,0,1-1.32,5.12c-.23.38-.47.38-.71.06a3.8,3.8,0,0,0-.61-.69c-.17,0-.34.27-.53.87-1.7,5.43-2.79,12.64-3.31,21.91-.19,3.45-.27,6.74-.21,9.85.4,10,.63,20,.81,30-.08,10.31-.12,20.63-1.47,30.86A104.52,104.52,0,0,1,206.69,135a26,26,0,0,1-2.84,5.89c-1.08,1.72-1.93,2.41-2.5,2.19a1.09,1.09,0,0,1-.55-.65,10.17,10.17,0,0,1-.26-5.12,20.85,20.85,0,0,1,1.28-4.17c.18-.48.47-.71.86-.68s.74-.5,1-1.62a100.38,100.38,0,0,0,2.91-14.8c1.43-11.72,1.28-23.7,1-35.46-.26-12.14-.9-24.52-.34-36.69a141.94,141.94,0,0,1,1.83-18c1-5.65,2.21-9.3,3.68-11.41.67-1,1.31-1.41,1.93-1.37,1.17.09,2,1.19,2.55,3.43A12.79,12.79,0,0,1,217.66,19.73Z"/></g></svg>