<svg xmlns="http://www.w3.org/2000/svg" viewBox="0 0 454 480"><defs><style>.cls-1{fill:silver;}.cls-1,.cls-2,.cls-3{stroke:#000;stroke-miterlimit:10;}.cls-2{fill:#eb84b4;}.cls-3{fill:none;}.cls-4{fill:#fff;}</style></defs><title>flags</title><g id="Layer_5" data-name="Layer 5"><path class="cls-1" d="M9.59,125.79a11.75,11.75,0,0,1,4.55-4.41,12.26,12.26,0,0,1,6.06-1.47L190,472.56a7,7,0,0,1-3,4.41,7.47,7.47,0,0,1-7.58,0Z"/><path class="cls-2" d="M28.57,140.14C61.86,79.2,118,48.72,140.13,33.72c33.69-22.8,77.23-37.11,84.39-17.92,5.2,13.92-11.43,38.3-5.11,51.77,6.07,12.95,27,3.63,30.69,2,19.63-8.69,21.51-23.6,46.67-44.8,10.33-8.71,21.71-18.07,37.72-20.91C344.57,2.07,356,0,367.09,8.83c17.69,14.09,15.39,40.9,30.69,57.75,8,8.83,21.88,16.05,47.31,6-12,11.74-29.66,24.72-46,15.93C386.81,81.91,386.18,69,373.48,56.62c-21.76-21.23-52.65-15.29-74.16,2-24.27,19.5-35,52.14-38.36,63.72,3.67-4.47,30.8-36.3,66.49-23.9C368.93,112.86,384,173.83,385,178.09c-21.85-40.91-48.86-60.83-66.49-55.76-9.49,2.73-17.9,10-17.9,10-9.34,8-14.12,17.38-19.18,25.89-6.55,11-20.64,34.68-38.36,45.8-11.76,7.38-32.49,13.85-39.64,0-7.44-14.42,6.58-37.82,0-51.77-8.05-17.07-40.52-6.4-62.65,13.94C107.43,196.78,95.18,251.5,90.9,275.67,77.48,230.2,42,185.61,28.57,140.14Z"/><line class="cls-3" x1="222" y1="155.48" x2="232.64" y2="95.38"/><line class="cls-3" x1="229.1" y1="179" x2="246.84" y2="87.54"/><line class="cls-3" x1="241.52" y1="168.55" x2="252.16" y2="111.06"/><path class="cls-4" d="M72.39,189.71c1.45,3.26,2.94,6.52,4.36,9.7,1.69,3.78,2.94,7,3.78,9.52,2.13,6.06,4.16,12,6.06,17.75a97.79,97.79,0,0,1,4.12,15.5q.79,2.64,1.55,5.54a8.42,8.42,0,0,1,.4,4,1.69,1.69,0,0,1-.65.91,9.67,9.67,0,0,1-1.07.66c-.4.21-1,0-1.44-.66-2.49-3.48-5-9-8-14.9C76.64,228,72,218.2,67.41,208.37c-4.83-10.29-9.67-20.58-14.62-30.8-4.29-8.86-8.12-16.47-11.42-22.78-.07-.1-.83-1.22-2.19-3.36a42.3,42.3,0,0,1-2.11-3.73q-.42-.83-.83-1.7a13.88,13.88,0,0,1-1.1-2.75,8.5,8.5,0,0,1-.14-1.1c1.29.38,4.71,3,11,8.64A57.48,57.48,0,0,1,51,156.08a147.79,147.79,0,0,1,15.21,21.49A128.8,128.8,0,0,1,72.39,189.71ZM59.2,173.81a52.58,52.58,0,0,0-13.31-15.44c12.05,23,23.56,46.27,35.83,69.15-5.14-16.68-11-33.22-19.52-48.49C61.21,177.26,60.21,175.51,59.2,173.81Z"/><path class="cls-4" d="M89.3,169.51c6.51,13.06,16.34,28.09,17.35,43.17a6.34,6.34,0,0,1-.48,2.42c-1.3,2.94-5.34,3.57-12.64-2.16-7.58-6.29-13-15.54-17.86-23.62-8.33-13.86-15.85-29-23.47-43.63-3.23-6.2-5.74-11.19-7.62-15.17-2.23-4.72-3-7-2.3-7.88.38-.5,1.29-.41,2.74.39s3.91,1.32,7.48,1.58c2.84.21,6.46,2.32,10.8,7A162.88,162.88,0,0,1,82.22,156.9C84.94,161.34,87.33,165.57,89.3,169.51ZM76.59,159.18c-7.75-11.83-12.68-17.9-14.94-18.83-.33-.12-.55-.1-.65.05-.31.45.31,2.52,1.92,6.38A57.06,57.06,0,0,1,66,155.17c.12.76-.4.66-1.64-.34s-1.89-1.42-2-1.27,0,.37.14.78c3.47,9.17,8.55,17.79,13.47,26.1a100.65,100.65,0,0,0,12,16.89c4.78,5.12,7.34,6.65,7.77,5.74,1-2.1-.84-7.65-5.39-17.94A183.56,183.56,0,0,0,76.59,159.18Z"/><path class="cls-4" d="M80.08,86.52a4.17,4.17,0,0,1,4.15,2.06A22,22,0,0,1,86.6,94c1.11,3.41,1.84,5.52,2,5.94,5.34,13.21,11,26.4,17.09,39.19,5.41,11.44,11,23,17.84,33.75,1,1.58,1.15,2.78.41,3.82a1.86,1.86,0,0,1-1.35.83c-2.11.21-5-1.17-8.91-5.2a151,151,0,0,1-10.28-13.13c-3.46-4.8-7.18-10.37-11.12-16.37a215.06,215.06,0,0,0,11.88,24.45c5.66,10.28,8.9,15.66,9.86,18.63a1.68,1.68,0,0,1-.88,2c-1,.69-2.76.64-5-1.53-2-1.91-4-4.23-6-6.61-9-10.61-16.45-22.64-24.05-34.13-7-10.51-14-21.61-23.43-30.29a9,9,0,0,1-2-2.54,2.38,2.38,0,0,1-.29-2.08,4.5,4.5,0,0,1,.6-1.07c.92-1,2.42-1.15,4.48,0,14,12.88,23.78,30.4,34,46.1-.91-2.19-2.76-6.09-5.53-11.66s-4.61-9.81-5.72-12.3c-1.93-4.32-4.44-8.71-6.53-12.68-2.55-4.84-3.06-7.82-1.65-9.35a3.62,3.62,0,0,1,1.51-.94c.41.49.79.62,1.15.38s.62-.28.78-.14c3.83,3.52,8.48,9.42,14,17.9,7.78,12,12.34,19.18,13.58,21-4.95-10.35-9.82-20.75-14.62-31.14-4-8.58-8-17.2-11.5-26a2.7,2.7,0,0,1,.79-3.12A4,4,0,0,1,80.08,86.52Z"/><path class="cls-4" d="M115.19,55.69c4.75,11.9,8,24.46,11.4,36.76,3.8,13.75,7.45,27.68,12.6,41,1.21,3.12,2.46,6,3.72,8.57a9,9,0,0,1,1,3.54,2.7,2.7,0,0,1-.61,2.29c-.91.76-2.45.09-4.7-2.53-12.26-14.47-21.49-31.59-32.2-47.2q-.51-.72-.7-.54c-.3.27-.19,1.08.32,2.45,5.76,14.76,11.63,29.59,18.55,43.62a94.05,94.05,0,0,0,10.32,16.75c1.29,1.61,1.92,2.83,1.92,3.89a1.29,1.29,0,0,1-.14,1.16,2,2,0,0,1-1.12.42c-.69.11-1.17.22-1.37.25-.53.22-1.34-.1-2.28-1.09-.76-.8-1.54-1.76-2.34-2.78a95.79,95.79,0,0,1-8.19-12.68c-6.67-12.05-12-24.89-17.61-37.48-5-11.28-9.74-23.18-16.53-33.21-.86-1.26-.32-2.58,1.21-4.1.73-.73,2.46-1.29,5.16-1.1,4.05,2.21,10.17,7.46,17.44,18.44,5.51,8.32,10.76,17,16.38,25.4-6-19.05-10.78-38.69-18.62-57.11-.56-1.33-.17-2.46,1.18-3.51a8,8,0,0,1,1.79-1c1-.41,1.55-.64,1.74-.7A1.67,1.67,0,0,1,115.19,55.69Z"/><path class="cls-4" d="M158.39,121.32c0,.15-1.18,6.49-2,15.83a91.61,91.61,0,0,1-1.42,11.27.87.87,0,0,1-.32.61c-.38.26-1.08,0-2.12-1-1.43-1.24-2.19-2-2.26-2.08-6.21-12.28-9.56-25.92-13-39-3.72-14.37-6.84-29.35-11.61-43.46A68.17,68.17,0,0,0,120.23,51a4.64,4.64,0,0,1,1.92-3.28c2-1.45,3.93-1.28,4.93.68,5.91,11.55,8.16,27,11.28,40.64,3.39,14.81,6.58,29.79,11.49,44.2a78.47,78.47,0,0,0,1.54-8.91,90.94,90.94,0,0,1,1.75-10,4,4,0,0,0,.85-.88,3.72,3.72,0,0,1,.91-.9c.71-.38,1.43.37,2.12,2.18A18.08,18.08,0,0,1,158.39,121.32Z"/><path class="cls-4" d="M175.5,97.75c-.3,12.59,1.71,30.07-2.71,42.41a1.51,1.51,0,0,1-.89.75c-1.53.4-4.25-1.75-8.28-10.46-4.07-9-6-19.08-7.62-28.48C153.25,86.12,152.1,69.49,151.3,53a117.86,117.86,0,0,1,.51-17.19c.63-5.36,1.68-8,3.18-8.77.85-.45,1.85-.16,2.93,1.08s3.53,2.48,7,4.35c2.76,1.48,4.92,5.45,6.37,12.59a236,236,0,0,1,4.06,36.35C175.58,87.48,175.62,92.94,175.5,97.75Zm-5.72-18.91c-1.37-15.82-2.92-24.45-4.67-26.6-.27-.3-.5-.4-.68-.32-.56.25-1.07,2.52-1.46,6.94a61.25,61.25,0,0,1-1.2,9.29c-.25.74-.74.33-1.52-1.26s-1.28-2.3-1.46-2.21-.22.32-.26.77c-1.05,10,.26,20.25,1.45,30a131.69,131.69,0,0,0,4.16,21.09c2.12,7.17,3.47,10.08,4.06,9.89,1.36-.45,1.77-5.05,2.13-16.25A267.89,267.89,0,0,0,169.78,78.84Z"/><path class="cls-4" d="M195.08,121.87c.11,2,.15,3.6.12,4.95a19.18,19.18,0,0,1-.75,5.41c-.45,1.38-.73,1.95-.89,1.81-1.3-1.25-2.29-5-2.61-13.39-.35-9.07-.61-17.88-1.06-25a33.6,33.6,0,0,0-3.48,1.3c-1.29.62-2.68,2.69-3.1,5.09-.65,3.72-.72,11.62-.78,20.41-.05,8.12.09,12.88.16,15.76,0,1.36-.37,1.67-1.14,1.11a5.28,5.28,0,0,1-2-3.39c-.62-3.08-1-7.8-.74-15,.27-8.25.65-15.28.63-19.37a10.73,10.73,0,0,0-.81-3.86,10.67,10.67,0,0,1-.86-3.28,10.42,10.42,0,0,1,.17-2.18A3.91,3.91,0,0,1,179,90.1a3.53,3.53,0,0,0,1-2.37c1-13.13,1.93-26.28,3-39.37.91-10.68,1.75-21.45,3.26-32.09.21-1.34.78-2.09,1.7-2.31a1.82,1.82,0,0,1,1.89.78c1.47,1.87,2.44,5.19,2.79,10.52.29,4.56.43,9.62.51,15C194.12,67.44,193.74,94.69,195.08,121.87Zm-5.69-39.5c0-5.32,0-11.39-.24-17.9-.22-5.66-.52-11.26-.83-16.59-1.38,11.84-2.55,23.64-3.54,35.52C185.37,82.9,186.94,82.48,189.39,82.38Z"/><path class="cls-4" d="M212.21,92c-.78,3.8-1.51,7.6-2.22,11.27-.83,4.29-1.59,7.57-2.24,9.87-1.49,5.67-2.85,10.92-4,15.58-1.41,5.64-2.34,8.74-3.12,10.27-.27,1.16-.55,2.29-.83,3.37s-.54,1.48-.83,1.33a1.65,1.65,0,0,1-.52-.65q-.3-.55-.67-1.27a5.73,5.73,0,0,1-.54-2.1,152.11,152.11,0,0,1,.2-16.17c.49-11.37,1.4-22.76,2.32-34.09,1-12.35,2.12-24.75,3-37.12.79-10.69,1.27-19.79,1.38-27.05,0-.13-.41-1.75-1.24-4.51a14,14,0,0,1-.76-4.32,11.24,11.24,0,0,1,.15-1.7c.23-1.34.76-2.05,1.47-2.29a11.5,11.5,0,0,1,1.72-.45c3.68,2,7.29,7.36,9.72,19.39a67.69,67.69,0,0,1,1.17,10.25,283.65,283.65,0,0,1-1.63,34.75C214.15,81.87,213.2,87.18,212.21,92Zm-.07-29.65c1.06-8.88.33-20.18-3.24-28.53-2.55,29-5.63,58-7.74,87a327.55,327.55,0,0,0,10.27-51.23C211.7,67.19,211.94,64.75,212.14,62.32Z"/></g></svg>