<svg xmlns="http://www.w3.org/2000/svg" viewBox="0 0 454 480"><defs><style>.cls-1{fill:silver;}.cls-1,.cls-2,.cls-3{stroke:#000;stroke-miterlimit:10;}.cls-2{fill:#eb84b4;}.cls-3{fill:none;}.cls-4{fill:#fff;}</style></defs><title>flags</title><g id="Layer_6" data-name="Layer 6"><path class="cls-1" d="M9.59,125.79a11.75,11.75,0,0,1,4.55-4.41,12.26,12.26,0,0,1,6.06-1.47L190,472.56a7,7,0,0,1-3,4.41,7.47,7.47,0,0,1-7.58,0Z"/><path class="cls-2" d="M28.57,140.14C61.86,79.2,118,48.72,140.13,33.72c33.69-22.8,77.23-37.11,84.39-17.92,5.2,13.92-11.43,38.3-5.11,51.77,6.07,12.95,27,3.63,30.69,2,19.63-8.69,21.51-23.6,46.67-44.8,10.33-8.71,21.71-18.07,37.72-20.91C344.57,2.07,356,0,367.09,8.83c17.69,14.09,15.39,40.9,30.69,57.75,8,8.83,21.88,16.05,47.31,6-12,11.74-29.66,24.72-46,15.93C386.81,81.91,386.18,69,373.48,56.62c-21.76-21.23-52.65-15.29-74.16,2-24.27,19.5-35,52.14-38.36,63.72,3.67-4.47,30.8-36.3,66.49-23.9C368.93,112.86,384,173.83,385,178.09c-21.85-40.91-48.86-60.83-66.49-55.76-9.49,2.73-17.9,10-17.9,10-9.34,8-14.12,17.38-19.18,25.89-6.55,11-20.64,34.68-38.36,45.8-11.76,7.38-32.49,13.85-39.64,0-7.44-14.42,6.58-37.82,0-51.77-8.05-17.07-40.52-6.4-62.65,13.94C107.43,196.78,95.18,251.5,90.9,275.67,77.48,230.2,42,185.61,28.57,140.14Z"/><line class="cls-3" x1="222" y1="155.48" x2="232.64" y2="95.38"/><line class="cls-3" x1="229.1" y1="179" x2="246.84" y2="87.54"/><line class="cls-3" x1="241.52" y1="168.55" x2="252.16" y2="111.06"/><path class="cls-4" d="M72.06,171.33a209.17,209.17,0,0,0,14.09,26.15c5.07,8.15,9.92,16,13.63,23a6.7,6.7,0,0,1,.35,6,3.07,3.07,0,0,1-.85,1.25c-1.87,1.28-3.82-.14-6.32-4.46-.71-1.24-1.77-3.25-3.25-6.09S87,212.26,86.29,211c-1.65-2.82-4.13-7.38-7.66-13.35A123.35,123.35,0,0,1,82.38,225a9,9,0,0,1-.35,2.7c-.88,2.68-3.05,2.52-6.79-1-2.09-2-4.45-5.46-7.16-10.32-2.39-4.3-5.13-9.78-8.08-16.25C51.94,182,43.21,163,41,143.08c-1-8.25-.09-12.3.9-13.83.88-1.36,1.59-1.23,2.3.68a10,10,0,0,1,.61,4.89,44.25,44.25,0,0,0-.45,4.53c1.34,15,6.76,28.87,12.13,42.79,4.35,9.92,8.75,19.78,14.26,29.11.83,1.4,1.66,2.77,2.49,4.11.1,0,.45.35,1,1s.87.68.81,0c-1.11-12.2-4.13-24.24-6.66-36.19A55.3,55.3,0,0,0,65,171.81c-1.45-3.17-1.8-5.35-1.07-6.58-.22.38,0-.14.5-1.42.25-.7.58-1,1-.58a21.94,21.94,0,0,1,5,5.12A21.24,21.24,0,0,1,72.06,171.33Z"/><path class="cls-4" d="M105.93,168.71c0,.2.59,7.22,1.78,20.65a116.6,116.6,0,0,1,.43,19,3.5,3.5,0,0,1-.31,1.41c-.41.82-1.23.86-2.53,0-1.79-1-2.79-1.59-2.87-1.62-8.14-12.59-16.34-25.26-24.16-37.94-7.55-12.26-15-24.81-21.65-37.67-2.38-4.6-4.22-8.5-5.55-11.7a6.17,6.17,0,0,1,1.18-3.58c1.31-1.66,2.59-1.66,3.51.14,5.63,11,11.93,23.46,18.6,34.58,7.76,12.94,16.16,25.84,24.78,38.43a96.87,96.87,0,0,0-.64-11.94,120.53,120.53,0,0,1-.84-12.2,8.9,8.9,0,0,0,.74-1.63,8.09,8.09,0,0,1,.81-1.7c.73-1,1.81-.91,3.16.25A10.59,10.59,0,0,1,105.93,168.71Z"/><path class="cls-4" d="M131,146.6a21.18,21.18,0,0,1,2.36,3.44,12,12,0,0,1,1.44,5.5c0,1.91-.08,2.92-.36,3.08-2.29,1.22-5.32-.57-9.42-6.38-4.45-6.31-8.58-11.92-12.17-16.16-1.33,1.83-2.72,3.71-3.89,5.56a11.37,11.37,0,0,0-1.71,7.82c.72,3.16,4.09,9.63,7.84,17.45,3.47,7.24,5.73,12.34,7,15.89.6,1.71.23,2.92-1,3.61-1.59.88-3,.67-4-.69-2-2.73-4.5-7.5-7.3-14.45a184.94,184.94,0,0,0-7.51-17.06,4.29,4.29,0,0,0-2.59-2,4.25,4.25,0,0,1-2.39-1.47,5.74,5.74,0,0,1-.7-1.88,5.2,5.2,0,0,1,.44-2.88,3.81,3.81,0,0,0,.19-2.91c-4-10.3-8-20.6-11.5-31.11C81.72,99.65,80.3,91.45,80,86.09a4.14,4.14,0,0,1,1.45-3.23,3.31,3.31,0,0,1,2.33-1.08c2.11.09,4.12,1.58,6.12,4.88,1.72,2.83,3.57,6.05,5.53,9.47C106.91,113.21,118.24,130.47,131,146.6Zm-24.29-18.7c-2.12-3.58-4.62-7.53-7.45-11.5-2.46-3.44-5-6.83-7.25-10.07a205.31,205.31,0,0,0,9.32,27.95C101.88,133.22,103.63,131.06,106.74,127.91Z"/><path class="cls-4" d="M120.87,55.69c.43,1.39-.11,3.33-1.59,5.76a2.88,2.88,0,0,1-1.57,1.27,10.84,10.84,0,0,0-1.56.59,2.85,2.85,0,0,0-.9,1.5,29.74,29.74,0,0,0,.9,19.87,29.05,29.05,0,0,0,3.51,6.73c.61.84,5.57,6.33,14.31,17.76a84.28,84.28,0,0,1,12,20.8,67.89,67.89,0,0,1,3.77,14.55,25.11,25.11,0,0,1-.36,6.86c-.37,2.34-1,3.84-1.87,4.6a2.31,2.31,0,0,1-1.13.55,3.32,3.32,0,0,1-3.55-1.82,9.28,9.28,0,0,1-.78-3.94,2.29,2.29,0,0,1,.78-1.66,2.52,2.52,0,0,0,.52-2.4,60.4,60.4,0,0,0-3.8-12.31c-2.47-5.73-7.68-13.57-15.61-22.67-6-6.87-12.77-14.28-16.4-22.83a36,36,0,0,1-3.08-14.64,24.29,24.29,0,0,1,4.12-13.56,17.41,17.41,0,0,1,3.91-4.27c2.67-2,4.93-2.83,6.77-2.29A2.29,2.29,0,0,1,120.87,55.69Z"/><path class="cls-4" d="M185.8,22.73c-.41,3.43-1.52,5.87-3.26,6.92-4.54,2.78-20.42,8.91-23,14.5-5.09,10.92,4.45,48.43,9,72.27,1.3,6.89,2.71,13.2,4.23,18.56a32.42,32.42,0,0,1,.92,3.76c.2,1.37,0,2.05-.6,2.18-1.11.25-2.38-.29-3.75-1.95a18.88,18.88,0,0,1-3.38-6.42c-1.08-3.39-2.16-7.27-3.2-11.57-2.88-11.83-4.93-23.94-6.83-35.9-1.84-11.59-4-34.11-5.62-35-.4-.22-4.3,2.25-7.3,4.68a88.63,88.63,0,0,1-7.12,5.47c-3.14,1.91-6,2.28-8.67,1.25-1.45-1.84-2.17-2.7-2.2-2.78a4.44,4.44,0,0,1,.12-2.35c1.8-2.31,5.9-6,12.35-10.74,5.7-4.17,20.2-11.65,22.95-14.91,2.66-.09-4.78,2.45-1.58,1a50.33,50.33,0,0,0,9-5.2c.86-.41,3-1.89,6.42-4.11a19.92,19.92,0,0,1,6.52-2.78c1.26-.27,2,.08,1.86,1.43C184.61,20.56,185.68,21.09,185.8,22.73Z"/><path class="cls-4" d="M209.26,98.37c-2.65,11.34-4.31,31.38-12.55,40.91a1.62,1.62,0,0,1-1.34.26c-2.05-.49-4.69-4.66-8-15.25-3.09-10-4-20.73-4.49-30.81-.75-16,.6-32.43,2.69-48.78a87.93,87.93,0,0,1,4.31-17.3c2-5.4,4.06-8,6.12-8.28,1.18-.18,2.33.52,3.4,2.26s3.88,3.94,8,7.37c3.3,2.71,5.37,7.8,6,15.63a189.18,189.18,0,0,1-1.28,37.93C211.32,88.36,210.33,93.74,209.26,98.37Zm-4.14-21.73c.64-9.09,1.67-19.21-1.35-28.05-.3-.4-.59-.6-.85-.6-.79,0-1.91,2.06-3.24,6.22-1.53,4.77-2.64,7.71-3.29,8.57-.46.61-1,0-1.78-1.77s-1.27-2.68-1.52-2.65-.35.24-.48.66c-3.21,9.39-3.26,19.87-3.41,29.47a119.35,119.35,0,0,0,1.61,22.14c1.39,8,2.48,11.65,3.27,11.76,1.84.26,3.37-4.18,6-15A192.3,192.3,0,0,0,205.12,76.65Z"/></g></svg>