<?xml version="1.0" encoding="utf-8"?>
<!-- Generator: Adobe Illustrator 21.0.2, SVG Export Plug-In . SVG Version: 6.00 Build 0)  -->
<svg version="1.1" id="Layer_1" xmlns="http://www.w3.org/2000/svg" xmlns:xlink="http://www.w3.org/1999/xlink" x="0px" y="0px"
	 viewBox="0 0 50 50" style="enable-background:new 0 0 50 50;" xml:space="preserve">
<style type="text/css">
	.st0{fill:#EB84B4;}
	.st1{fill:#E76970;}
	.st2{fill:#F08274;}
	.st3{fill:#FFFFFF;}
</style>
<g>
	<circle class="st2" cx="25" cy="25" r="25"/>
</g>
<g>
	<path class="st3" d="M25,19c3.3,0,6,2.7,6,6s-2.7,6-6,6s-6-2.7-6-6S21.7,19,25,19 M25,15.8c-5.1,0-9.2,4.1-9.2,9.2s4.1,9.2,9.2,9.2
		s9.2-4.1,9.2-9.2S30.1,15.8,25,15.8L25,15.8z"/>
</g>
<circle class="st3" cx="34.7" cy="15.2" r="2.2"/>
<g>
	<path class="st3" d="M32.6,10.2c4,0,7.2,3.2,7.2,7.2v15.3c0,4-3.2,7.2-7.2,7.2H17.4c-4,0-7.2-3.2-7.2-7.2V17.4c0-4,3.2-7.2,7.2-7.2
		H32.6 M32.6,6.9H17.4c-5.8,0-10.4,4.7-10.4,10.4v15.3c0,5.8,4.7,10.4,10.4,10.4h15.3c5.8,0,10.4-4.7,10.4-10.4V17.4
		C43.1,11.6,38.4,6.9,32.6,6.9L32.6,6.9z"/>
</g>
</svg>
