<svg xmlns="http://www.w3.org/2000/svg" viewBox="0 0 454 480"><defs><style>.cls-1{fill:silver;}.cls-1,.cls-2,.cls-3{stroke:#000;stroke-miterlimit:10;}.cls-2{fill:#f08274;}.cls-3{fill:none;}.cls-4{fill:#fff;}</style></defs><title>flags</title><g id="Layer_11" data-name="Layer 11"><path class="cls-1" d="M9.59,125.79a11.75,11.75,0,0,1,4.55-4.41,12.26,12.26,0,0,1,6.06-1.47L190,472.56a7,7,0,0,1-3,4.41,7.47,7.47,0,0,1-7.58,0Z"/><path class="cls-2" d="M28.57,140.14C61.86,79.2,118,48.72,140.13,33.72c33.69-22.8,77.23-37.11,84.39-17.92,5.2,13.92-11.43,38.3-5.11,51.77,6.07,12.95,27,3.63,30.69,2,19.63-8.69,21.51-23.6,46.67-44.8,10.33-8.71,21.71-18.07,37.72-20.91C344.57,2.07,356,0,367.09,8.83c17.69,14.09,15.39,40.9,30.69,57.75,8,8.83,21.88,16.05,47.31,6-12,11.74-29.66,24.72-46,15.93C386.81,81.91,386.18,69,373.48,56.62c-21.76-21.23-52.65-15.29-74.16,2-24.27,19.5-35,52.14-38.36,63.72,3.67-4.47,30.8-36.3,66.49-23.9C368.93,112.86,384,173.83,385,178.09c-21.85-40.91-48.86-60.83-66.49-55.76-9.49,2.73-17.9,10-17.9,10-9.34,8-14.12,17.38-19.18,25.89-6.55,11-20.64,34.68-38.36,45.8-11.76,7.38-32.49,13.85-39.64,0-7.44-14.42,6.58-37.82,0-51.77-8.05-17.07-40.52-6.4-62.65,13.94C107.43,196.78,95.18,251.5,90.9,275.67,77.48,230.2,42,185.61,28.57,140.14Z"/><line class="cls-3" x1="222" y1="155.48" x2="232.64" y2="95.38"/><line class="cls-3" x1="229.1" y1="179" x2="246.84" y2="87.54"/><line class="cls-3" x1="241.52" y1="168.55" x2="252.16" y2="111.06"/><path class="cls-4" d="M95.73,207.2a4.27,4.27,0,0,1,1.23,2.1,63.3,63.3,0,0,1,1.56,6.3,1.4,1.4,0,0,0-.34.49,8.5,8.5,0,0,0-.32,2.38,9.11,9.11,0,0,1-.28,2.29.49.49,0,0,1-.66.34c-3.39-.72-9.14-1.89-19.16-4.18a196.11,196.11,0,0,1,10.33,20.62c.42,1,1.05,2.44,1.82,4.25s1.24,3.09,1.51,3.91a19.67,19.67,0,0,1,.94,7.8,9.23,9.23,0,0,1-.37,2.43c-.25.83-.48,1-.74.4-.78.8-1.6-.12-2.76-3-4.7-11.15-10.77-21.78-16.64-32.27-2.76-4.93-7.15-12.5-12.81-22.6s-9.66-17.54-12-22.33c-5.08-10.36-10.7-21.43-12.89-33.06a6.24,6.24,0,0,1,.74-3.83c.47-.94,1-1.92,1.6-2.93a11.77,11.77,0,0,1,1.8-1c.64-.3,1,.15,1.22,1.38,2.93,14.11,9.67,27.12,16.19,39.85a289.29,289.29,0,0,1-3.18-28.91,121,121,0,0,1,1.42-27,12.71,12.71,0,0,1,1.91-3.26c2-2.44,3.23-2.3,3.88.64A314.15,314.15,0,0,0,61,156.41a221.33,221.33,0,0,0,8.05,41.69c4.88,1.21,9.78,2.25,14,3.39A43.91,43.91,0,0,1,95.73,207.2Z"/><path class="cls-4" d="M92.67,84c-2.1,3.9-5.13,9.16-8.82,15.94a112.52,112.52,0,0,0-7.58,16.61c.42,4,2.27,12.27,6.85,25.67a4.53,4.53,0,0,0,3-2,35.9,35.9,0,0,0,3-5.29,28.68,28.68,0,0,1,3.07-5.22c1.37-1.62,3.39-2.22,4.29-1.48a10.27,10.27,0,0,1,2.65,4.59,7.08,7.08,0,0,1,.21,3c-.05.26-.08,1.7,0,4.31,0,1.79-.22,3-.8,3.49a41.58,41.58,0,0,1-4.6,8A22.84,22.84,0,0,0,90.19,161c2.68,9.06,5.33,18.13,8.5,27a66.6,66.6,0,0,0,3.54,8.6c2.8,1.5,5.52-1.71,9-8.85a7.6,7.6,0,0,0,.49-2.85,7.84,7.84,0,0,1,.4-2.69c.74-2.32,2.08-.45,3.34,4.81a21.19,21.19,0,0,1,.52,5.58,11.45,11.45,0,0,1-.8,4.41c-3.35,7-6.41,12.33-9.34,15.12-.92.9-2,.7-3.4-.8s-2.87-4.15-4.38-7.9c-4.43-11-9.08-22.07-13.44-33.19a10,10,0,0,1-5-5.86,12.14,12.14,0,0,1-.61-5.1,14,14,0,0,0-.37-5c-.4-1.3-3.41-8.75-7.25-21.19-3.29,1.94-5.69.75-6.92-3.42a19.72,19.72,0,0,1,.34-12.13c1.22-3.54,2.91-7.19,4.35-10.65A92.6,92.6,0,0,1,76.7,92.58q4.15-6.45,8.74-12.6a11.69,11.69,0,0,1,1.11-1.21,6.94,6.94,0,0,1,5.67-2.15,20.37,20.37,0,0,0,.46,2.05,12.78,12.78,0,0,1,.46,2.4A7.14,7.14,0,0,1,92.67,84Z"/><path class="cls-4" d="M135,42.43c-2.42,14.92-2.6,30.1-2.41,45,.22,16.26,1.24,32.79,2.51,49.17.31,4,.62,7.75.92,11.27a16.12,16.12,0,0,1-.41,5.06,8.3,8.3,0,0,1-1.49,3.55c-1.14,1.27-2.19.33-3.41-3.2-6.7-19.26-14-38.27-21.45-57.24-.22-.58-.41-.79-.58-.64-.39.36-.53,1.39-.38,3.1,1.81,18.34,5.76,36.47,9.41,54.47,1.75,8.6,3.36,16.85,4.36,24.11a17.26,17.26,0,0,1-.25,6.75,6.23,6.23,0,0,1-.63,2.05,1.32,1.32,0,0,1-.91.59c-.48.1-.86.25-1,.28-.44.32-.85-.35-1.16-2-.26-1.41-.52-3-.84-4.59-1-5.34-2.42-11.49-4-18.3-3.75-15.81-7.77-31.83-10.63-47.56-2.57-14.17-4.8-29.09-3.8-43.72.13-1.94,1.53-3.85,3.66-5.82a4.41,4.41,0,0,1,4.56-.87c1.79,3.6,4.46,11,9,24.23,3.41,10,6.88,20,10.94,29.79-1.78-23.2-3.51-47.13.14-70.23a7,7,0,0,1,3.09-4.55,9.07,9.07,0,0,1,2-1c1-.38,1.58-.58,1.77-.62C134.59,41.37,134.94,41.68,135,42.43Z"/><path class="cls-4" d="M161.66,91.43c-.74,3.87-1.38,7.75-2,11.52-.76,4.46-1.56,8.08-2.3,10.83-1.67,6.65-3.21,13-4.65,19.08a120.9,120.9,0,0,1-4.36,15.25q-.64,2.62-1.39,5.38a7.63,7.63,0,0,1-1.43,3.29.83.83,0,0,1-.76.19,7.67,7.67,0,0,1-.94-.29c-.34-.13-.64-.68-.71-1.53-.35-4.41-.17-10.43-.33-17-.27-10.88-.57-21.76-.81-32.64q-.38-16.91-.47-33.84c0-9.65,0-17.83.08-24.44-.06-.08-.67-1.14-1.8-2.92a4.89,4.89,0,0,1-.88-3.39,9.47,9.47,0,0,1,.37-1.79,7.47,7.47,0,0,1,2.41-3.61c.86-.71,1.73-1.41,2.58-2,5.13-1.43,10.11.28,14.83,7.59a22.4,22.4,0,0,1,2.78,7,94.57,94.57,0,0,1,1.78,28.44A143.76,143.76,0,0,1,161.66,91.43ZM157.36,69c0-9.45-2.55-16.11-8.2-19.18-1.9,26.63-1.3,53.4-1.16,80.08,4.18-17.88,8.33-36.07,9.19-54.47Q157.35,72.19,157.36,69Z"/><path class="cls-4" d="M184.35,119.06a41,41,0,0,1-.25,5.12,16.89,16.89,0,0,1-1.85,6.12c-.94,1.71-1.52,2.5-1.77,2.41-2.06-.84-3-4.83-2.55-13.45.49-9.36.86-18,.85-24.82a54.53,54.53,0,0,0-5.05,2.42,11.79,11.79,0,0,0-4.86,6.29c-1.21,3.82-2.25,12.13-3.8,22-1.43,9.15-2.54,15.27-3.46,19.31-.46,1.92-1.22,2.71-2.17,2.46-1.23-.33-1.87-1.45-1.82-3.34A124.52,124.52,0,0,1,160,125.53c1.8-9.58,3.1-17,3.55-21.24a6.69,6.69,0,0,0-.64-3.65,6.34,6.34,0,0,1-.78-3,9.84,9.84,0,0,1,.47-2.31,6.36,6.36,0,0,1,1.69-2.55A5.09,5.09,0,0,0,165.87,90c2.63-13.3,5.18-26.68,8.24-39.83,2.59-11.11,5.29-22.28,9.13-33.08a3.76,3.76,0,0,1,2.46-2.61,1.71,1.71,0,0,1,2,.72c1.29,1.91,1.86,5.32,1.55,10.63-.27,4.55-.69,9.49-1.15,14.67C186.69,66.65,184.53,92.86,184.35,119.06Zm-5.16-37.33c.51-5.16,1-11,1.24-17.18.22-5.38.37-10.73.54-15.86-3,11.76-5.74,23.49-8.21,35.38C173.62,83.39,175.77,82.48,179.19,81.73Z"/><path class="cls-4" d="M207.49,116.92c-.11.1-3.89,4.93-10.3,13.63a63.84,63.84,0,0,1-9.24,10.63,1.12,1.12,0,0,1-.85.39c-.64,0-1.18-1-1.56-2.94-.6-2.62-.87-4.1-.9-4.21,1.66-17.1,4.84-34.1,8-50.89C196,66,199.82,48.42,202.46,30.76c1-6.63,1.61-12.32,1.91-17.05.82-1.37,1.72-2,2.73-2,1.92.08,3,1.72,2.9,4.67-.8,16.07-5.07,33.38-8.31,49.9-3.53,18-7.21,36-9.67,54.2a59.4,59.4,0,0,0,6.28-7.69,77.75,77.75,0,0,1,6.52-8.29,3.31,3.31,0,0,0,1.28,0,2.9,2.9,0,0,1,1.35.05c.91.37,1.37,1.86,1.36,4.37A19.09,19.09,0,0,1,207.49,116.92Z"/></g></svg>