<svg xmlns="http://www.w3.org/2000/svg" viewBox="0 0 454 480"><defs><style>.cls-1{fill:silver;}.cls-1,.cls-2,.cls-3{stroke:#000;stroke-miterlimit:10;}.cls-2{fill:#f08274;}.cls-3{fill:none;}.cls-4{fill:#fff;}</style></defs><title>flags</title><g id="Layer_12" data-name="Layer 12"><path class="cls-1" d="M9.59,125.79a11.75,11.75,0,0,1,4.55-4.41,12.26,12.26,0,0,1,6.06-1.47L190,472.56a7,7,0,0,1-3,4.41,7.47,7.47,0,0,1-7.58,0Z"/><path class="cls-2" d="M28.57,140.14C61.86,79.2,118,48.72,140.13,33.72c33.69-22.8,77.23-37.11,84.39-17.92,5.2,13.92-11.43,38.3-5.11,51.77,6.07,12.95,27,3.63,30.69,2,19.63-8.69,21.51-23.6,46.67-44.8,10.33-8.71,21.71-18.07,37.72-20.91C344.57,2.07,356,0,367.09,8.83c17.69,14.09,15.39,40.9,30.69,57.75,8,8.83,21.88,16.05,47.31,6-12,11.74-29.66,24.72-46,15.93C386.81,81.91,386.18,69,373.48,56.62c-21.76-21.23-52.65-15.29-74.16,2-24.27,19.5-35,52.14-38.36,63.72,3.67-4.47,30.8-36.3,66.49-23.9C368.93,112.86,384,173.83,385,178.09c-21.85-40.91-48.86-60.83-66.49-55.76-9.49,2.73-17.9,10-17.9,10-9.34,8-14.12,17.38-19.18,25.89-6.55,11-20.64,34.68-38.36,45.8-11.76,7.38-32.49,13.85-39.64,0-7.44-14.42,6.58-37.82,0-51.77-8.05-17.07-40.52-6.4-62.65,13.94C107.43,196.78,95.18,251.5,90.9,275.67,77.48,230.2,42,185.61,28.57,140.14Z"/><line class="cls-3" x1="222" y1="155.48" x2="232.64" y2="95.38"/><line class="cls-3" x1="229.1" y1="179" x2="246.84" y2="87.54"/><line class="cls-3" x1="241.52" y1="168.55" x2="252.16" y2="111.06"/><path class="cls-4" d="M92.54,203.88A218.25,218.25,0,0,1,94,229.94a122.91,122.91,0,0,1-1.95,23.87,10.75,10.75,0,0,1-.43,1.76c-.37,1-.75,1.11-1.38.14a19,19,0,0,0-1.61-1.89c-5.07-17.23-14.77-33-23.61-48.44-9.25-16.11-19.29-32.2-26.35-49.47a61.35,61.35,0,0,1-4.45-15.42A10.77,10.77,0,0,1,36,136.11c1.38-1.9,2.23-1.69,2.8.75C42.44,152.63,51,167.94,59.12,182c9.32,16.2,19.68,32.33,27.87,49.36a121.16,121.16,0,0,0-.8-15.17c-.79-7.44-1.4-12.57-1.53-15.35a11.92,11.92,0,0,0,.58-2,10.86,10.86,0,0,1,.64-2.1c.62-1.24,1.66-1.12,3,.31A14.07,14.07,0,0,1,92.54,203.88Z"/><path class="cls-4" d="M113.76,177.86a19.38,19.38,0,0,1,1.8,3.95,18.76,18.76,0,0,1,.78,6.75c-.13,2.42-.33,3.73-.52,3.95-1.63,1.72-3.26-.44-6.61-7.19A103.48,103.48,0,0,0,97.46,167c-1,2.19-2,4.46-2.89,6.68a16.48,16.48,0,0,0-.72,9.38c1,3.88,4.75,11.48,7.64,21,2.67,8.86,3.25,15.27,3.13,19.78a7.48,7.48,0,0,1-1.32,4.58c-.93,1.1-1.57.86-1.92-.81-.71-3.41-1.83-9.32-4.11-17.89a112.46,112.46,0,0,0-7.53-20.84,4.81,4.81,0,0,0-2.64-2.37,4.71,4.71,0,0,1-2.45-1.79,9.08,9.08,0,0,1-.89-2.29,7.53,7.53,0,0,1,.09-3.47,5.51,5.51,0,0,0-.18-3.49C78.38,163.1,72.7,150.77,68,138.23c-3.73-10.06-6.74-21.19-5.91-32.09a6.13,6.13,0,0,1,1.55-3.7c.63-.68,1.21-.9,1.77-.63,1.44.79,2.73,3.25,4.45,7.59a123.71,123.71,0,0,0,5.5,11.85C87.65,140.46,102.24,158.2,113.76,177.86ZM90.61,157.71c-2.53-4.09-5.52-8.59-8.86-13.24-2.89-4-5.79-8.06-8.38-12,3.91,11.15,8.27,21.83,13,32.65C86.75,163.86,88.14,161.35,90.61,157.71Z"/><path class="cls-4" d="M116.52,58.93c-.25,3.74-.82,6.37-2,7.89-3.08,4-14.4,13.36-15.64,19.58-2.45,12.27,15.74,41.75,23.73,62.78a141.12,141.12,0,0,1,5.68,18.21,26.59,26.59,0,0,1,.69,4.33,5.58,5.58,0,0,1-.58,3.48c-.88,1.15-1.72,1.13-2.71-.23a21.79,21.79,0,0,1-2.79-6.11c-1.11-3.49-2.47-7.31-4.09-11.41-4.31-10.92-9.24-21.59-14-32.3-4.57-10.21-11.4-31-12.27-31.25-.29-.1-3.06,2.9-5.1,5.73A66.82,66.82,0,0,1,82.49,106c-2.25,2.28-4.56,2.91-6.79,1.93a31.9,31.9,0,0,1-2-2.91,6.44,6.44,0,0,1-.05-2.55c1.24-2.51,4.16-6.52,8.72-11.86a67,67,0,0,0,9-13.06,16.85,16.85,0,0,0,6.12-3.65,42.92,42.92,0,0,0,6.4-7c.6-.59,2.1-2.53,4.59-5.69a21,21,0,0,1,4.61-4.46c.9-.59,1.31-.32,1.2,1.2C115.71,56.91,116.42,57.24,116.52,58.93Z"/><path class="cls-4" d="M117.6,76.73q1.13,4.06,2.45,8.56c3,10.34,6.24,20.66,9.42,31,3.24,10.5,6.31,21.1,8.52,31.87q.81,3.92,1.36,7.64c.1,3.14-.38,5.22-1.29,6.22-1.27,1.4-2.15.51-2.86-2.8s-1.59-6.9-2.64-10.79c-2.87-10.58-6.32-21-9.79-31.4-3.4-10.17-6.72-20.4-9.77-30.66-.74-2.5-1.46-4.9-2.13-7.2.05-2.19.72-3.76,1.91-4.69a3.35,3.35,0,0,1,3.15-.61,1.86,1.86,0,0,1,.36-.77c.15-.11.34.33.52,1.26a14.93,14.93,0,0,0,.45,2C117.37,76.55,117.48,76.71,117.6,76.73Z"/><path class="cls-4" d="M158,33.16c-.51,4.08-1.3,6.66-2.53,7.9C152.25,44.32,141,51.19,139,56.72c-4.1,11.22,7.28,41.56,11.21,62.42,1.21,6.43,2.19,12.88,2.84,19.31a40.26,40.26,0,0,1,.26,4.75c0,1.86-.34,2.93-.76,3.23-.85.61-1.62,0-2.4-1.93a35.55,35.55,0,0,1-1.9-7.31c-.62-3.76-1.37-7.75-2.25-11.92-2.25-10.61-5-21.2-7.5-31.68-2.41-10.18-5.45-30.52-6.31-31-.26-.13-3.2,2.17-5.45,4.49a57.83,57.83,0,0,1-5.4,5.17c-2.41,1.77-4.66,2-6.69.69-1.09-2-1.58-3.08-1.6-3.17a6.62,6.62,0,0,1,.21-2.54C114.72,65,118,61.47,122.94,57a50,50,0,0,0,9.83-11.54A12.18,12.18,0,0,0,139,43.34a30,30,0,0,0,6.61-5.63,66.69,66.69,0,0,0,4.72-4.84,13.74,13.74,0,0,1,4.62-3.43c.85-.33,1.26.14,1.07,1.84C157.36,30.58,158,31.23,158,33.16Z"/><path class="cls-4" d="M174.33,38.94c-.63,9.85-1.56,19.71-2.35,29.53s-1.29,19.92-1.53,29.9a218.72,218.72,0,0,1-2.74,32.2c-1,6.76-2.36,10.61-3.81,11.36-1.27.66-2.17-2.09-3.09-7.87-1.83-11.18-3.9-22.33-5.86-33.48-1.65-9.38-3-18.9-3.92-28.39.11,1-.46-2-1.36-9.12-.77-6.13.18-9.9,2.51-11.1a1.77,1.77,0,0,1,1.62,0,6,6,0,0,1,1.74.94c1.47,2.39,1.05,12.61,2.12,22.44,1.15,10.54,2.16,18.22,2.77,23,.65,5.05,1.24,9.72,1.77,13.94.27,2.16,1,6.15,1.84,12.35a152.73,152.73,0,0,0,1.71-21.92c0-2.84-.13-10.47-.17-22.41a145.28,145.28,0,0,1,1.28-21.73,80.39,80.39,0,0,0,.52-8.37,61.89,61.89,0,0,1,.72-8.72c.51-2.73,1.45-4.38,2.74-4.85C172.51,36,173.67,36.83,174.33,38.94Z"/><path class="cls-4" d="M191.59,79.29C191,82.14,190.42,85,189.87,88c-.65,3.42-1.28,6.26-1.85,8.4q-1.94,7.8-3.59,16C183.09,119,182,124,181.15,126.93c-.33,1.87-.68,3.85-1.07,5.95s-.73,3.19-1.05,3.25c-.16,0-.34-.17-.54-.6s-.42-.93-.66-1.49a8.33,8.33,0,0,1-.47-2.86c-.14-6.15.13-12.82.18-19.37q.12-14.08.24-28.17c.11-11.92.23-20.63.29-26.63.08-8,.13-15.42.13-22.5,0-.12-.51-1.48-1.4-4.13a12.07,12.07,0,0,1-.75-4.59,16.32,16.32,0,0,1,.23-2.13,5.41,5.41,0,0,1,1.73-3.5,19.2,19.2,0,0,1,1.9-1.27c3.88,1.28,7.72,7.12,11.08,16.68a43.45,43.45,0,0,1,1.91,8,98.2,98.2,0,0,1,.51,24.56A105.2,105.2,0,0,1,191.59,79.29ZM189.36,60.1c.22-7.66-1.45-14.44-5.55-19.67-1.29,22.12-1.87,44.26-2.43,66.4,3.16-13.76,6.6-27.58,7.72-41.62C189.23,63.51,189.32,61.81,189.36,60.1Z"/><path class="cls-4" d="M220.31,32a42.68,42.68,0,0,1-6.93,5.88A46.93,46.93,0,0,0,206.21,44c-.81,3.46-2.11,11-4.05,22.27a2.4,2.4,0,0,0,1.7,1.41,6.22,6.22,0,0,0,2.52-.46,4.75,4.75,0,0,1,2.49-.32,3.23,3.23,0,0,1,1.82,3,18.14,18.14,0,0,1-.44,5.11,5.08,5.08,0,0,1-.77,1.94c-.09.1-.49.89-1.2,2.39-.48,1-.88,1.44-1.2,1.19-.75.42-2,.39-3.66.12a4.05,4.05,0,0,0-3.82,1.63,224.58,224.58,0,0,0-4,23.46c-.45,4.17-.67,7.65-.69,10.32.74,5.34,2.56,8.28,5.3,8.82.18.09.43-.43.75-1.54s.56-1.63.69-1.55c.74-.62.72,2.79.35,11.4-.12,2.87-.33,5.53-.62,7.93s-.65,3.65-1,3.57c-2.49-.67-5.13-4.14-7.1-8.89-.62-1.45-1.12-4.35-1.46-8.44a86.66,86.66,0,0,1-.13-12.95c.7-10.68,1.58-21.47,3.27-32.12a17.88,17.88,0,0,1-.39-7,7.7,7.7,0,0,1,1.17-3.1A8.13,8.13,0,0,0,197,69.28c.2-1,1.15-6.75,2.74-18-2-1.48-2.83-4.11-2.39-8.24.41-3.86,1.4-7.25,3.06-9.5,1.36-1.84,3.14-3.74,4.48-5.59a45.44,45.44,0,0,1,6.35-7.36c2.06-1.83,4.08-3.57,6-5.2a.87.87,0,0,1,.69-.1c1,.23,2.1,2.35,3.15,6.23,0,.67,0,1.93,0,3.73s-.06,3.08-.14,3.85A8.31,8.31,0,0,1,220.31,32Z"/></g></svg>