<svg xmlns="http://www.w3.org/2000/svg" viewBox="0 0 454 480"><defs><style>.cls-1{fill:silver;}.cls-1,.cls-2,.cls-3{stroke:#000;stroke-miterlimit:10;}.cls-2{fill:#f08274;}.cls-3{fill:none;}.cls-4{fill:#fff;}</style></defs><title>flags</title><g id="Layer_13" data-name="Layer 13"><path class="cls-1" d="M15.59,125.79a11.75,11.75,0,0,1,4.55-4.41,12.26,12.26,0,0,1,6.06-1.47L196,472.56a7,7,0,0,1-3,4.41,7.47,7.47,0,0,1-7.58,0Z"/><path class="cls-2" d="M34.57,140.14C67.86,79.2,124,48.72,146.13,33.72c33.69-22.8,77.23-37.11,84.39-17.92,5.2,13.92-11.43,38.3-5.11,51.77,6.07,12.95,27,3.63,30.69,2,19.63-8.69,21.51-23.6,46.67-44.8,10.33-8.71,21.71-18.07,37.72-20.91C350.57,2.07,362,0,373.09,8.83c17.69,14.09,15.39,40.9,30.69,57.75,8,8.83,21.88,16.05,47.31,6-12,11.74-29.66,24.72-46,15.93C392.81,81.91,392.18,69,379.48,56.62c-21.76-21.23-52.65-15.29-74.16,2-24.27,19.5-35,52.14-38.36,63.72,3.67-4.47,30.8-36.3,66.49-23.9C374.93,112.86,390,173.83,391,178.09c-21.85-40.91-48.86-60.83-66.49-55.76-9.49,2.73-17.9,10-17.9,10-9.34,8-14.12,17.38-19.18,25.89-6.55,11-20.64,34.68-38.36,45.8-11.76,7.38-32.49,13.85-39.64,0-7.44-14.42,6.58-37.82,0-51.77-8.05-17.07-40.52-6.4-62.65,13.94-33.34,30.63-45.59,85.35-49.87,109.52C83.48,230.2,48,185.61,34.57,140.14Z"/><line class="cls-3" x1="228" y1="155.48" x2="238.64" y2="95.38"/><line class="cls-3" x1="235.1" y1="179" x2="252.84" y2="87.54"/><line class="cls-3" x1="247.52" y1="168.55" x2="258.16" y2="111.06"/><path class="cls-4" d="M90.16,218.15c0,.23,2,9.14,4.05,23.59a149.19,149.19,0,0,1,1.58,18.66c0,.52,0,.92,0,1.2,0,.64.08.52-.09-.55a12.39,12.39,0,0,0-.57-2.28c-4.75-17.53-15.05-33.69-23.94-49.24C61.34,192.24,50.71,175,42.75,156.67c-2.72-6.26-4.37-11.35-5-15.23a10.05,10.05,0,0,1,.79-3.78c.76-1.6,1.29-1.41,1.87,1,4.07,16.65,13.53,33,21.8,48.11,9.62,17.55,20.17,35,28.35,53.45-.55-2.75-1.53-7.07-3.08-13.15-1.73-6.81-2.91-11.7-3.39-14.31a10.08,10.08,0,0,0,.15-1.67,8.25,8.25,0,0,1,.19-1.75c.3-1,1.1-.5,2.28,1.3A25.93,25.93,0,0,1,90.16,218.15Z"/><path class="cls-4" d="M96.27,171.7c4.88,17.37,11,36.31,6.52,54.47a25.74,25.74,0,0,1-.76,2.56c-1.08,3-1.25,3.18-5.59-4.51-5.36-9.88-10.34-20-15.28-30.07-8.85-18-16.93-36.08-23.15-55.22-2.21-7.86-3-14.18-2.93-19.27.12-6,1.37-9,2.44-10.27.61-.73,1.19-.75,1.91.15s2.57,1.33,5.82,1.61c2.57.22,5.21,3,8.58,9.35a366.36,366.36,0,0,1,16.42,34.23C92.69,160.74,94.71,166.44,96.27,171.7ZM83.77,157c-3.77-8.52-7.53-18.09-13.85-25.31q-.52-.24-.74,0c-.45.58-.27,3.28.87,8.33,1.3,5.78,2.16,9.54,2.2,10.94.07,1-.55.82-1.84-.51s-2-1.88-2.12-1.69-.08.48.05,1c2.79,11.74,8,22.93,13.21,33.71,4.61,9.59,8.38,17,11.29,22,4,6.83,5.4,9,5.79,8.06.9-2.24.67-9.13-2.9-22.26A241.29,241.29,0,0,0,83.77,157Z"/><path class="cls-4" d="M105.88,68.45c-3.43,17,.13,35.23,2.57,52,2.3,13.59,5.73,27.2,8.29,40.5,1.91,9.94,4.41,21.24,3.11,31.7a8.86,8.86,0,0,1-1,2.52,2.62,2.62,0,0,1-1.74,1.32C111.91,182,105,168.06,98.2,154.34c-8.08-16.41-16.58-32.94-26-48.78,0-3,.3-4.52.71-4.94a4.65,4.65,0,0,1,1-1.76c.73-.75,2.22-.84,4.74.09,5.59,9.65,10.75,19.67,15.66,29.55,5.78,11.63,11.36,23.63,16.84,35.55-3.67-17.37-8-35-10.81-52.13C98.09,98.59,95.8,84.08,99,70.35a8.23,8.23,0,0,1,4.23-4.91.94.94,0,0,1,.81,0,1.32,1.32,0,0,0,1.24-.31c.5-.35.74-.11.8.85A9.76,9.76,0,0,1,105.88,68.45Z"/><path class="cls-4" d="M138.5,49c-2,2.79-4.94,6.59-8.69,11.62a83.79,83.79,0,0,0-8.05,12.78C121.88,77,123.06,85,126,98.81a3.5,3.5,0,0,0,3.1-.89A23.37,23.37,0,0,0,132.47,94a19.61,19.61,0,0,1,3.38-3.85c1.44-1.06,3.35-1,4.21.06a12.68,12.68,0,0,1,2.15,5.24,6.7,6.7,0,0,1-.06,2.93c-.07.23-.22,1.57-.43,4-.13,1.69-.5,2.67-1.11,3a26.32,26.32,0,0,1-5.28,5.8,16.34,16.34,0,0,0-4.68,7.3c1.79,12.16,3.34,21,4.54,26.78a52.75,52.75,0,0,0,2.19,8.21c2.59,1.94,6-.1,10.68-4.9a4.5,4.5,0,0,0,.9-2.14,4.8,4.8,0,0,1,.78-2.06c1.08-1.67,2.25.39,3,4.58a10.23,10.23,0,0,1-.12,4.1,5.75,5.75,0,0,1-1.47,2.9c-4.9,4.58-9,8.29-12.61,10.18-1.13.62-2.19.45-3.38-.9s-2.18-3.72-3-7.19c-2.68-11-5.44-22-8-33a12.21,12.21,0,0,1-4-6.94,11.39,11.39,0,0,1,.07-4.84c.38-1.79-.79-2.2-1-3.52s-.87-10.35-3.36-22.65c-3.29.87-5.46-.85-6.27-4.81a15.66,15.66,0,0,1,1.22-10.41c1.39-2.74,3.21-5.49,4.73-8a60.41,60.41,0,0,1,7.61-10.18q4.06-4.36,8.36-8.25a9.36,9.36,0,0,1,1-.76A7.78,7.78,0,0,1,138,43.34c.06.27.22.75.5,1.52a7.92,7.92,0,0,1,.47,1.89A4.36,4.36,0,0,1,138.5,49Z"/><path class="cls-4" d="M173.53,51a64.64,64.64,0,0,1-4.07,19c-2.07,5.36-4.42,11-6.49,16.51.33,1.72,1,2.79,1.9,3.24s1.81.91,2.65,1.37c4.51,4.49,6.8,11.52,7.28,19.64a52,52,0,0,1-1.55,16.87,44.42,44.42,0,0,1-5,11.48c-1.85,3-3.79,5.92-5.78,8.65a7,7,0,0,1-1.6,1.61c-1.34,1-2.57.89-2.79-.06-.83-3.66-.57-12-1.53-20.29-1.07-9.25-2.21-18.57-3-27.88a7,7,0,0,1-2.36-4.66,9.18,9.18,0,0,1,.12-3.29,35.19,35.19,0,0,1,1.11-3.91c-1.61-14.65-3.17-42.7-5.07-43.93-.56-.37-4.69.25-5.67-1.41a2.57,2.57,0,0,1,.25-1.34,4.5,4.5,0,0,0,.35-1.41,14.18,14.18,0,0,1,4.43-4,23.13,23.13,0,0,1,3-1.35c1.73-.67,2.86-1.13,3.38-1.36a17.67,17.67,0,0,1,8.32-1.53c6.25.65,10,3.85,11.18,8.49A30.87,30.87,0,0,1,173.53,51Zm-4.66,63.91c0-1.23-.06-2.4-.15-3.5a22.88,22.88,0,0,0-2.08-8.35c-2.6-1.66-4.31-2.24-5-1.86a2.75,2.75,0,0,0-1,1.15q.27,1.71.51,3.79c.28,2.42.58,6.21.85,11.05s.49,8.18.69,10.31a52.09,52.09,0,0,0,1.2,7.55,34.29,34.29,0,0,1,2-5.31,27.9,27.9,0,0,0,1.93-5.17A43,43,0,0,0,168.88,114.88ZM165.5,46.61c-.49-3.47-2.31-5.24-5.52-5.37a8.68,8.68,0,0,1-2.22-.53,2.23,2.23,0,0,0-1.77-.07c-.23.12-.66.4-.75.64-.3.82.11,2.9.25,4.58.18,2.3.67,6.29,1.53,12.7.79,5.91,1.39,11,1.75,14.78.36-.2.84-1.11,1.44-2.71s1-2.48,1.05-2.65a36.06,36.06,0,0,0,3.49-10A32.47,32.47,0,0,0,165.5,46.61Z"/><path class="cls-4" d="M199.82,94.92c-1.34,11.17-.57,33.17-10,42.15a2.89,2.89,0,0,1-1.42.5c-2.07.13-4-1.64-6.49-11-2.53-10.26-3-21.17-3.61-31.54a319.88,319.88,0,0,1,1.1-53.29,77,77,0,0,1,3.44-16.64c1.68-4.78,3.3-6.69,4.79-7.19.85-.29,1.63,0,2.35,1.2s2.71,2.58,5.71,4.93c2.38,1.87,3.94,6.06,4.64,13.66a306.4,306.4,0,0,1,.83,39.58C200.84,83.87,200.39,89.8,199.82,94.92Zm-4.18-22.11c-.06-9.69.52-19.82-2.22-29.23-.24-.36-.46-.52-.65-.48-.59.13-1.36,2.34-2.23,6.87-1,5.2-1.7,8.49-2.22,9.52-.33.76-.81.19-1.46-1.64s-1.09-2.69-1.28-2.63-.27.3-.36.77c-2.2,10.63-2.07,21.8-1.75,32.57A197.34,197.34,0,0,0,185.27,112c1.24,8,2.13,11.12,2.84,11,1.66-.21,3.33-4.74,4.91-16.47A243.22,243.22,0,0,0,195.64,72.81Z"/><path class="cls-4" d="M227.59,19.26c-4.48,14.17-7.9,28.58-11.14,43.07.13,9.9.35,19.84.32,29.69,0,10.07-.18,20.22-.81,30.33-.21-.13-.51.57-.9,2s-.68,1.93-.88,1.5c-.86-1.61-1.44-4.72-1.67-9.72-.12-2.58-.12-7.81-.08-16a142.25,142.25,0,0,0-.54-15.61c-2.68,11-4.53,22.26-6.24,33.45-2.08,13.53-3.31,19.38-4.37,22-1.67-.55-2.68-1.34-2.91-3a14.07,14.07,0,0,1-.1-2.08,34.06,34.06,0,0,1,.74-5.37c.67-3.41,1.08-5.76,1.16-6.3,3.13-21.33,6.77-42.45,11.37-63.51-.19-9.65-1.69-20.45-4.91-29.59a4.35,4.35,0,0,1-.27-1.69,6.73,6.73,0,0,1,2.29-5,2.63,2.63,0,0,1,1.54-.72c1.32-.08,2.53,1.73,3.46,6.25,1.34,6.54,1.84,10.91,1.93,11.34.27-.92,1.79-7.16,4.18-15.85a66.73,66.73,0,0,1,4-11.63,3.1,3.1,0,0,1,2.9.22c.82.62,1.25,2.4,1.15,4.49A7.42,7.42,0,0,1,227.59,19.26Z"/></g></svg>