<svg xmlns="http://www.w3.org/2000/svg" viewBox="0 0 454 480"><defs><style>.cls-1{fill:silver;}.cls-1,.cls-2,.cls-3{stroke:#000;stroke-miterlimit:10;}.cls-2{fill:#eb84b4;}.cls-3{fill:none;}.cls-4{fill:#fff;}</style></defs><title>flags</title><g id="Layer_8" data-name="Layer 8"><path class="cls-1" d="M9.59,125.79a11.75,11.75,0,0,1,4.55-4.41,12.26,12.26,0,0,1,6.06-1.47L190,472.56a7,7,0,0,1-3,4.41,7.47,7.47,0,0,1-7.58,0Z"/><path class="cls-2" d="M28.57,140.14C61.86,79.2,118,48.72,140.13,33.72c33.69-22.8,77.23-37.11,84.39-17.92,5.2,13.92-11.43,38.3-5.11,51.77,6.07,12.95,27,3.63,30.69,2,19.63-8.69,21.51-23.6,46.67-44.8,10.33-8.71,21.71-18.07,37.72-20.91C344.57,2.07,356,0,367.09,8.83c17.69,14.09,15.39,40.9,30.69,57.75,8,8.83,21.88,16.05,47.31,6-12,11.74-29.66,24.72-46,15.93C386.81,81.91,386.18,69,373.48,56.62c-21.76-21.23-52.65-15.29-74.16,2-24.27,19.5-35,52.14-38.36,63.72,3.67-4.47,30.8-36.3,66.49-23.9C368.93,112.86,384,173.83,385,178.09c-21.85-40.91-48.86-60.83-66.49-55.76-9.49,2.73-17.9,10-17.9,10-9.34,8-14.12,17.38-19.18,25.89-6.55,11-20.64,34.68-38.36,45.8-11.76,7.38-32.49,13.85-39.64,0-7.44-14.42,6.58-37.82,0-51.77-8.05-17.07-40.52-6.4-62.65,13.94C107.43,196.78,95.18,251.5,90.9,275.67,77.48,230.2,42,185.61,28.57,140.14Z"/><line class="cls-3" x1="222" y1="155.48" x2="232.64" y2="95.38"/><line class="cls-3" x1="229.1" y1="179" x2="246.84" y2="87.54"/><line class="cls-3" x1="241.52" y1="168.55" x2="252.16" y2="111.06"/><path class="cls-4" d="M59.59,163.07c3.76,12.09,6.59,20.85,7.74,25.7,1.79,7.55,2.91,11.7,3.09,12.41,1,4.44,1,8.23,1.34,9.81.45,2.3,2.76,5.89,4.43,9.32,1.18,2.41,3,6,5.11,10.56s3.5,7.86,4.33,10a82,82,0,0,1,5.16,19.49,7.61,7.61,0,0,1-.77-.23c-.32-.1-.68-.81-1.13-2.14a224.9,224.9,0,0,0-10.76-25C73,222.49,67.58,212.22,62.07,202S51,181.57,45.6,171.29Q38.09,157,33.66,147.48c-.08.68-.48.49-1.18-.53s-1.11-1.49-1.31-1.47c-1.05-3.44-1.24-5.28-.92-5.82a8.46,8.46,0,0,1,2.64-3.93c4.32-4,9.17-3.45,15.55,3.53a39,39,0,0,1,6,10.07A129.33,129.33,0,0,1,59.59,163.07ZM50.15,154c-2-5-4.11-7.66-6.36-8.33a40.13,40.13,0,0,1-5.12.41c7.06,15.85,15.73,30.93,23.68,46.34C58.77,179.43,55.25,166.4,50.15,154Z"/><path class="cls-4" d="M98.27,194a27.69,27.69,0,0,1,1.78,4.46,25.27,25.27,0,0,1,1,7.42c0,2.63-.14,4-.33,4.26-1.55,1.74-3.34-.86-6.54-8.58a170.37,170.37,0,0,0-10.47-21.16c-.84,2.22-1.7,4.47-2.37,6.64a19.23,19.23,0,0,0-.3,9.54c1,4.3,4.31,12.5,7.47,23a144.93,144.93,0,0,1,5,21.73c.31,2.36.16,3.84-.37,4.38s-1.26,0-1.84-2c-1.18-4-3-10.49-5.64-19.66A225.56,225.56,0,0,0,78,201.65a6.62,6.62,0,0,0-2.21-2.87,6.14,6.14,0,0,1-2-2.23,13.55,13.55,0,0,1-.84-2.41,9.23,9.23,0,0,1-.14-3.41,7.35,7.35,0,0,0-.33-3.51c-4.78-13.31-10-26.62-14.15-40-3.44-11-6.79-22.22-7.66-33.87a5.07,5.07,0,0,1,1.06-3.74,1.51,1.51,0,0,1,1.84-.61c1.7.82,3.39,3.31,5.33,7.88,1.67,3.93,3.55,8.22,5.59,12.7C75.7,151.09,87.71,172.18,98.27,194ZM77.82,169.76c-2.16-4.61-4.69-9.68-7.58-14.91-2.49-4.52-5-9-7.39-13.36,3.52,12,7.38,23.74,11.52,35.54C74.63,175.79,75.72,173.38,77.82,169.76Z"/><path class="cls-4" d="M124.69,170a3.34,3.34,0,0,1,.45,1.26c.45,2.5-.18,5.49-1.77,9.15-2.61-1.57-6.26-5-12-11.21A138.14,138.14,0,0,0,96.2,154.56c1.07,3.52,4.18,12.89,7.93,26.69a135.12,135.12,0,0,1,4.63,24,14.64,14.64,0,0,0-.44,1.82,4,4,0,0,1-.7,1.92c-1.46,1.42-2.54-.46-4-6.24-.42-1.7-.94-4.12-1.67-7.28-.84-3.64-1.48-6-1.71-6.92-2.56-9-5.63-18-8.92-26.72-3.17-8.5-4.86-12.82-8.07-21.18-5-13.48-10.32-27-13-41.11C69,92.93,71.53,87.78,76.91,83.08c2.73-2.39,5.48-2.46,8.7.61,3,2.83,5.38,7.37,7.25,13.7a82.24,82.24,0,0,1,2.75,19.33,97.42,97.42,0,0,1-.66,18.08,12,12,0,0,0,.36,5.62,9.11,9.11,0,0,0,3.34,4.35c1.17.85,2.41,1.69,3.6,2.53.08.08,4.66,3.82,12.22,10.49A44.28,44.28,0,0,1,124.69,170ZM87.33,103.23a48.57,48.57,0,0,0-1.49-5.51,11.46,11.46,0,0,0-3-4.78c-1.2-1-2.57-.76-4.12.81a5.27,5.27,0,0,0-1.52,4.52,58.69,58.69,0,0,0,2.52,9.66c.48,1.47,1.8,5.18,4.21,11.56,1.83,4.86,3.34,9.08,4.45,12.47C88.66,122.45,89.25,112.64,87.33,103.23Z"/><path class="cls-4" d="M145.67,135.84a4.82,4.82,0,0,1,.8,2.31c.12.75.24,2.77.33,5.94a.89.89,0,0,0-.47.2,4.56,4.56,0,0,0-.84,1.76,4.87,4.87,0,0,1-.77,1.71c-.21.19-.47.17-.79-.08-3.53-2.42-9.15-6.07-17.87-10.87,1.3,4.81,3.12,11.81,4.75,20.11.19,1,.5,2.39.91,4.19s.66,3.08.78,3.88a13.87,13.87,0,0,1-.46,6.94,4.63,4.63,0,0,1-.91,1.83c-.47.56-.8.55-1-.07-1.14.26-2-.93-2.63-3.73-2.5-10.47-5.27-20.94-8-31.38-1.24-4.72-3.15-12-5.69-21.49s-4.41-16.46-5.65-20.93C105.37,86.12,102.58,76,99.48,66a3.32,3.32,0,0,1,.76-3.12c.58-.71,1.27-1.44,2-2.19a17.32,17.32,0,0,1,2.41-.52c.84-.12,1.38.34,1.64,1.42C109.46,73.85,113,86,116.1,98.28c.75-6.71,1.51-15.18,2.72-24.64a213.6,213.6,0,0,1,4-22.22,7.48,7.48,0,0,1,2-2.26c2.16-1.53,3.48-1.07,4,1.6-.84,10.76-2.5,21.6-3.72,32.21A269,269,0,0,0,123,119.15c4.1,2.26,8.25,4.54,11.91,6.94A50.63,50.63,0,0,1,145.67,135.84Z"/><path class="cls-4" d="M165.15,113.63c-.07.18-1.93,7.08-5.56,20a119.43,119.43,0,0,1-6,17.33,2.68,2.68,0,0,1-.69,1.06c-.58.46-1.18-.08-1.92-1.57-1-2-1.63-3.08-1.69-3.16-2.19-15.79-4.64-31.55-7-47.3-2.33-15.31-4.56-30.7-7.07-46-.91-5.53-1.75-10.16-2.48-13.9a6.54,6.54,0,0,1,2.56-3.44c2.12-1.36,3.65-.89,4.12,1.3,2.82,13.08,4,28.33,6.05,42.46q3.51,24.42,7.25,48.88A100.39,100.39,0,0,0,156.26,118c1.55-5.78,2.7-9.78,3.49-11.82a6.24,6.24,0,0,0,1.11-1.07A5.52,5.52,0,0,1,162,104c.88-.49,1.66.27,2.29,2.22A17,17,0,0,1,165.15,113.63Z"/><path class="cls-4" d="M166.88,24.92c.36,3,.71,6.38,1,10.13,1.18,14.42,1.85,29,2.69,43.41.88,15.33,1.81,30.72,3.11,46,.3,3.54.79,7,.91,10,.14,3.42-.71,5.45-1.88,5.74-1.67.41-2.83-1.29-3.4-5.64s-1.15-9.25-1.7-14.68c-1.53-15.05-2.65-30.2-3.7-45.29-1-13.7-1.71-27.51-3-41.17-.28-2.93-1-6-.95-8a4.68,4.68,0,0,1,2.49-4,3.31,3.31,0,0,1,3.17.15c.19-.38.33-.6.44-.64s.3.38.36,1.35a19,19,0,0,0,.18,2.12C166.67,24.67,166.76,24.86,166.88,24.92Z"/><path class="cls-4" d="M202.81,13.85a12.85,12.85,0,0,1-.73,4.61A4.37,4.37,0,0,1,200,21.19c-.34.19-.82,0-1.43-.54s-1.11-.73-1.46-.62c-1.94.5-4.35,2.11-7.25,5-3.66,3.65-6.94,6.38-7.3,7.14-1.38,2.93.24,12,.52,18.69s.64,13.63,1.09,20.71a1.89,1.89,0,0,0,1.09.17c.84-.11,2.32-1.25,4.41-3,1.91-1.64,3.49-2.15,4.5-1.78.83.31,1.25,1.31,1.17,3-.22,4.41-1.14,8.15-2.83,10-1.24,1.34-3.12,2.83-4.69,4.45a15.82,15.82,0,0,0-3.06,1.89c0,2.21.07,4.69.19,7.43s.33,6.62.67,11.86.56,9,.69,11.49c.44,8.82.35,15.17-.31,19.54-.15,1-.44,1.42-.87,1.41s-.92-.48-1.46-1.42a10.21,10.21,0,0,1-1.16-3.14,76,76,0,0,1-1.26-10c-.09-1.36-.28-6.05-.55-14.74-.19-6.28-.57-11.52-1.07-15.42a4.57,4.57,0,0,0-1.46-3.09,7.22,7.22,0,0,1-2-2.06c-.23-.6-.3-2.87-.33-6.47.54.05,1-.5,1.25-1.69s.63-1.82,1-1.91a.9.9,0,0,1,.53,0c.11-5.39,0-11.38-.37-17.74-.13-2.19-.78-10.62-1.94-22.74a5.29,5.29,0,0,1-3-2.18,7.4,7.4,0,0,1-1.74-4.16A4.73,4.73,0,0,1,174,26.45c2.45-1.47,6.93-5.18,13.1-10,5.43-4.23,9.62-6.25,12.66-6.55a2.37,2.37,0,0,1,2.09.94A4.61,4.61,0,0,1,202.81,13.85Z"/><path class="cls-4" d="M221.28,24a5,5,0,0,1-1.7,3.46,42.45,42.45,0,0,1-4.37,3.24,30,30,0,0,0-5,4.1,4.85,4.85,0,0,0-1.31,2.9c-.41,4.17-.9,11.9-1.56,24a4.67,4.67,0,0,0,1,3.33,3,3,0,0,0,.65.57,3.8,3.8,0,0,0,2.29.28,2.81,2.81,0,0,1,2.2.49c.82.75,1.59,2.62,1.8,5.23a46.7,46.7,0,0,1,0,7.65,8.14,8.14,0,0,1-.5,2.61C214.8,82,214.53,83,214,85c-.32,1.35-.63,1.72-.93,1.14-.61.2-1.65-.57-3.26-1.91-1.34-1.12-2.55-.94-3.49.3-.78,9.58-1.59,19.17-1.79,28.78-.09,4.59,0,8.3.14,11.21a5.31,5.31,0,0,0,.08.64c1.2,6.55,3.22.45,5.48,5.12.16.38.33.18.54-.64s.37-1.09.48-.79c.56.38.7,5.09.74,13.56q0,4.24-.16,6.71c-.12,1.65-.3,2-.57,1.28-2-6.29-4.45-1.23-6.77-7.67a53.55,53.55,0,0,1-2.14-9.24,94.5,94.5,0,0,1-1.2-13.32c-.25-12.39-.13-24.79.47-37.18a5,5,0,0,0-.13-1.35,32.26,32.26,0,0,1-.94-8.89,9,9,0,0,1,.92-3.73,9,9,0,0,0,1-3.46c.1-1.2.45-8.34.94-20.08a5,5,0,0,0-.89-3.16c-1.48-2-2.24-4.78-2.18-8.36.07-4,.78-7.19,2.23-9.13,1.18-1.59,2.79-3.17,3.94-4.64A23.39,23.39,0,0,1,212,14.81a48.86,48.86,0,0,1,5.26-3,1,1,0,0,1,.62,0c.86.32,1.86,1.76,2.88,4.67a4.83,4.83,0,0,1,.26,1.33c0,.58.08,1.38.14,2.43.09,1.55.11,2.71.08,3.4Q221.29,23.89,221.28,24Z"/></g></svg>