<svg xmlns="http://www.w3.org/2000/svg" viewBox="0 0 454 480"><defs><style>.cls-1{fill:silver;}.cls-1,.cls-2,.cls-3{stroke:#000;stroke-miterlimit:10;}.cls-2{fill:#e76970;}.cls-3{fill:none;}.cls-4{fill:#fff;}</style></defs><title>flags</title><g id="Layer_19" data-name="Layer 19"><path class="cls-1" d="M9.59,125.79a11.75,11.75,0,0,1,4.55-4.41,12.26,12.26,0,0,1,6.06-1.47L190,472.56a7,7,0,0,1-3,4.41,7.47,7.47,0,0,1-7.58,0Z"/><path class="cls-2" d="M28.57,140.14C61.86,79.2,118,48.72,140.13,33.72c33.69-22.8,77.23-37.11,84.39-17.92,5.2,13.92-11.43,38.3-5.11,51.77,6.07,12.95,27,3.63,30.69,2,19.63-8.69,21.51-23.6,46.67-44.8,10.33-8.71,21.71-18.07,37.72-20.91C344.57,2.07,356,0,367.09,8.83c17.69,14.09,15.39,40.9,30.69,57.75,8,8.83,21.88,16.05,47.31,6-12,11.74-29.66,24.72-46,15.93C386.81,81.91,386.18,69,373.48,56.62c-21.76-21.23-52.65-15.29-74.16,2-24.27,19.5-35,52.14-38.36,63.72,3.67-4.47,30.8-36.3,66.49-23.9C368.93,112.86,384,173.83,385,178.09c-21.85-40.91-48.86-60.83-66.49-55.76-9.49,2.73-17.9,10-17.9,10-9.34,8-14.12,17.38-19.18,25.89-6.55,11-20.64,34.68-38.36,45.8-11.76,7.38-32.49,13.85-39.64,0-7.44-14.42,6.58-37.82,0-51.77-8.05-17.07-40.52-6.4-62.65,13.94C107.43,196.78,95.18,251.5,90.9,275.67,77.48,230.2,42,185.61,28.57,140.14Z"/><line class="cls-3" x1="222" y1="155.48" x2="232.64" y2="95.38"/><line class="cls-3" x1="229.1" y1="179" x2="246.84" y2="87.54"/><line class="cls-3" x1="241.52" y1="168.55" x2="252.16" y2="111.06"/><path class="cls-4" d="M95.31,221.39a7.88,7.88,0,0,1,.45,1.56,33.92,33.92,0,0,1,.09,10.62,147.22,147.22,0,0,0-9.94-15.09,91.71,91.71,0,0,0-15.45-16.25,260.29,260.29,0,0,1,12.29,27.92C86,239.36,89,249,90.24,258.89c0,.11,0,.8,0,2.07A5.26,5.26,0,0,1,90,263c-.73,1-1.6-2.14-3.58-9.31-.58-2.11-1.38-5-2.53-8.71-1.32-4.24-2.3-6.84-2.67-7.86-3.65-9.74-8.39-19-13.16-28.18-4.65-8.55-7.14-12.74-11.93-20.86-7.69-13.19-15.76-26.36-21-40.66-2.55-6.95-1.47-12.28,2.29-16.68,1.92-2.25,4.33-1.88,7.84,1.58,3.24,3.19,6.34,7.88,9.37,14.18a111.31,111.31,0,0,1,6.68,18.94A117.29,117.29,0,0,1,64.83,183a14.86,14.86,0,0,0,1.61,5.45,13.38,13.38,0,0,0,3.85,4.36c1.19.88,2.42,1.75,3.61,2.64A110,110,0,0,1,86,206.77,43.56,43.56,0,0,1,95.31,221.39ZM50.9,152.26c-.93-2.18-1.76-4-2.55-5.5a17.67,17.67,0,0,0-3.74-4.95c-1.29-1.13-2.45-.93-3.49.56a5,5,0,0,0-.35,4.49,70.72,70.72,0,0,0,4.41,9.75c.76,1.46,2.78,5.15,6.41,11.36,2.76,4.73,5.08,8.8,6.84,12.08C56.77,170.83,54.49,161,50.9,152.26Z"/><path class="cls-4" d="M81,97.4c-1.43,3.55-3.56,8.27-6.09,14.2A85.15,85.15,0,0,0,70,126c.84,3.69,3.43,11.27,8.27,23.65a2.85,2.85,0,0,0,2.41-1.45,24.86,24.86,0,0,0,2.1-4.4A20.58,20.58,0,0,1,85,139.46c1-1.33,2.68-1.69,3.51-.94a10.85,10.85,0,0,1,2.5,4.4,7.31,7.31,0,0,1,.36,2.78c0,.23,0,1.54.21,3.91.13,1.63,0,2.66-.46,3.08a29.64,29.64,0,0,1-3.3,6.7,17.67,17.67,0,0,0-2.48,7.9c3.46,11.33,6.16,20.25,8.05,26.46,1.28,4.2,2.25,7.34,3,9.42,2.16,2.5,4,.54,6.44-5.59a9,9,0,0,0,.3-2.8,9.39,9.39,0,0,1,.24-2.65c.5-2.15,1.57,0,2.51,6.47a40.61,40.61,0,0,1,.38,6.65,17.51,17.51,0,0,1-.56,4.77c-2.35,6.21-4.21,10-6.19,11.13-.62.38-1.35-.6-2.44-2.95a93.37,93.37,0,0,1-3.53-9.88c-3.57-11.25-7.87-22.48-12.15-33.66a13.23,13.23,0,0,1-5.29-10.48,13.8,13.8,0,0,0-.66-4.39c-.42-1.19-3.35-8-8-19.49-2.67,1.32-4.9,0-6.51-3.94a18.89,18.89,0,0,1-1.35-11c.61-3,1.66-6.28,2.44-9.28a62.29,62.29,0,0,1,4.69-12.64c2-3.85,4.08-7.63,6.34-11.33a6.39,6.39,0,0,1,.88-1A5.28,5.28,0,0,1,79.4,90c.13.4.4,1.11.83,2.17a15.11,15.11,0,0,1,.84,2.47A6.51,6.51,0,0,1,81,97.4Z"/><path class="cls-4" d="M121.77,157.32a39.4,39.4,0,0,1,.44,5,35.24,35.24,0,0,1-.68,7.53,15.91,15.91,0,0,1-1,3.91c-1.37.75-2.18-2.9-3.23-11.28a150.2,150.2,0,0,0-4.4-22.39c-1.16,1.77-2.36,3.59-3.39,5.38a17.72,17.72,0,0,0-2.21,8.48c0,4.08,1.33,12.08,2.14,22.84a193.67,193.67,0,0,1,.51,22.95c-.12,2.57-.52,4-1.05,4.12s-1.16-.93-1.35-3.19c-.39-4.58-.86-11.5-1.55-20.71a215.15,215.15,0,0,0-2.51-22A5.42,5.42,0,0,0,102,155a5.06,5.06,0,0,1-1.47-2.28,10.7,10.7,0,0,1-.28-2.28,8.13,8.13,0,0,1,.64-3.11,6.35,6.35,0,0,0,.48-3.21c-1.62-12.59-3.31-25.19-4.63-37.78-1.16-11-1.57-22.37-.19-33.44a5.75,5.75,0,0,1,1.94-3.79,1.79,1.79,0,0,1,2.15-.42c1.67,1.07,2.89,3.89,3.79,8.66.78,4.1,1.6,8.48,2.5,13C112.54,112.53,118.5,134.67,121.77,157.32Zm-11.7-28c-.92-4.55-2.08-9.55-3.57-14.72-1.29-4.46-2.66-8.9-3.93-13.2.34,11.33,1.58,22.59,2.82,33.85A31.81,31.81,0,0,1,110.07,129.29Z"/><path class="cls-4" d="M139.37,106.87c-.48,3.81-.89,7.63-1.33,11.38-.52,4.45-1.12,8.13-1.7,11-1.3,6.84-2.56,13.55-3.81,20.09a175,175,0,0,1-3.92,17.06q-.62,3-1.37,6.34a12.66,12.66,0,0,1-1.28,3.92.38.38,0,0,1-.55.12,5.38,5.38,0,0,1-.64-.51,3.21,3.21,0,0,1-.41-2c0-5.52.29-12.15.16-19.16-.21-10.91-.82-21.82-1.58-32.7-.75-10.7-1.6-21.41-2.46-32.1q-1.11-13.71-1.89-23.61c-.06-.08-.71-1.1-1.94-2.9a5.87,5.87,0,0,1-1.16-3.5,10.62,10.62,0,0,1,.16-1.89,7.06,7.06,0,0,1,1.9-3.83c.75-.76,1.5-1.5,2.25-2.17,4.74-1.49,9.57.28,14.35,6.95a21.59,21.59,0,0,1,3,6.43,92.68,92.68,0,0,1,3.26,26.62A128.13,128.13,0,0,1,139.37,106.87Zm-5-20.55c-.57-8.91-3.29-14.89-8.63-17.45.56,25.88,2.42,51.69,3,77.57,3.1-17.8,6.19-35.91,5.89-54Q134.56,89.3,134.37,86.32Z"/><path class="cls-4" d="M155.3,35.78q-.44,5.52-1,12-2,23.44-4,46.93c-1.35,16.22-2.69,32.45-4.35,48.65-.4,3.85-.68,7.69-1.23,11-.65,4-1.85,6.51-2.9,7.12-1.45.84-1.93-1-1.51-5.93s.82-10.3,1.24-16.18c1.12-16,2-32,3.08-47.92,1-15.05,2.1-30.15,3.23-45.19.26-3.48.21-7.12.69-9.79a7.65,7.65,0,0,1,3.26-5.15,2.36,2.36,0,0,1,3,.23,2.59,2.59,0,0,1,.57-.83c.17-.09.19.5,0,1.73-.2,1.51-.32,2.44-.3,2.66S155.2,35.72,155.3,35.78Z"/><path class="cls-4" d="M193.2,17.76c-2.78,15.85-5.41,31.73-8,47.61-2.79,17-5.5,34-7.77,51.1-.57,4.3-1.08,8.46-1.53,12.44a14.27,14.27,0,0,1-1.47,5c-.77,1.49-1.53,2.3-2.27,2.46-1.43.31-2.27-1.75-2.54-6.46-1.37-23.07-1.69-46.22-2.74-69.31,0-.68-.12-1-.27-.93-.35.15-.66,1.09-.93,2.82-2.74,18.85-4.66,37.82-6.69,56.76-1,9.33-2,18.59-3.12,27.31a18.81,18.81,0,0,1-2,7.06,3.32,3.32,0,0,1-1.08,1.56c-.28.14-.59-.05-.92-.42s-.78-.74-.9-.87c-.44-.16-.59-1.33-.37-3.45.18-1.74.42-3.6.63-5.51.69-6.32,1.39-13.24,2.1-20.67,1.58-16.57,3.08-33.22,4.85-49.71,1.65-15.4,3.56-31,6-46.28a6.46,6.46,0,0,1,3.45-4.69c.92-.51,2.83.19,3.51,1.9,2.94,7.36,1.84,20.63,2.12,30.92.32,11.88.65,23.8,1.55,35.66,3.95-24.42,7.88-48.85,12.5-73.16.43-2.08,1.28-3.27,2.55-3.6a2.72,2.72,0,0,1,1.47.06,10.16,10.16,0,0,1,1.27.43C193,16.12,193.19,16.76,193.2,17.76Z"/><path class="cls-4" d="M214.52,83.1a264.39,264.39,0,0,0-5.49,31c-1.22,9.53-2,19.49-2.71,29.1-.19,2.56-1.23,3.67-3,3.48a2.81,2.81,0,0,1-1.46-.6c-2.38-2.06-3.31-5.57-2.84-11,.14-1.56.46-3.94,1-7.23s.84-5.82,1-7.34c.44-3.38,1.36-8.75,2.46-16.05-4.34,7.79-9,13.44-13.77,17.36a3.38,3.38,0,0,1-1.87.77c-2.27.09-3.93-2.82-4.94-9a47.07,47.07,0,0,1,.21-13.38,157.65,157.65,0,0,1,3.44-17.29,548.08,548.08,0,0,1,19-59.2c3.4-8.45,5.63-11.89,7.35-11.63,1.53.23,2.31,1.89,2.35,5,0,2.61-.41,4.48-1.33,5.52-1.53,1.8-2.42,2.9-2.52,3.11A382.81,382.81,0,0,0,196,69.21a204.41,204.41,0,0,0-7.15,31.64c-.21,1.65-.41,3.3-.57,4.94a7,7,0,0,1,.2,1.77c.06,1.06.28,1.39.67,1,7.14-7.4,12.51-16.83,17.66-25.64.59-1,1.47-3.89,2.62-8.7.85-3.54,1.88-5.21,3.07-4.95-.37-.08.14,0,1.14-.14.52-.06.91.22,1,1a43.28,43.28,0,0,1,.48,9.3A24.43,24.43,0,0,1,214.52,83.1Z"/></g></svg>