<svg xmlns="http://www.w3.org/2000/svg" viewBox="0 0 454 480"><defs><style>.cls-1{fill:silver;}.cls-1,.cls-2,.cls-3{stroke:#000;stroke-miterlimit:10;}.cls-2{fill:#e76970;}.cls-3{fill:none;}.cls-4{fill:#fff;}</style></defs><title>flags</title><g id="Layer_20" data-name="Layer 20"><path class="cls-1" d="M9.59,125.79a11.75,11.75,0,0,1,4.55-4.41,12.26,12.26,0,0,1,6.06-1.47L190,472.56a7,7,0,0,1-3,4.41,7.47,7.47,0,0,1-7.58,0Z"/><path class="cls-2" d="M28.57,140.14C61.86,79.2,118,48.72,140.13,33.72c33.69-22.8,77.23-37.11,84.39-17.92,5.2,13.92-11.43,38.3-5.11,51.77,6.07,12.95,27,3.63,30.69,2,19.63-8.69,21.51-23.6,46.67-44.8,10.33-8.71,21.71-18.07,37.72-20.91C344.57,2.07,356,0,367.09,8.83c17.69,14.09,15.39,40.9,30.69,57.75,8,8.83,21.88,16.05,47.31,6-12,11.74-29.66,24.72-46,15.93C386.81,81.91,386.18,69,373.48,56.62c-21.76-21.23-52.65-15.29-74.16,2-24.27,19.5-35,52.14-38.36,63.72,3.67-4.47,30.8-36.3,66.49-23.9C368.93,112.86,384,173.83,385,178.09c-21.85-40.91-48.86-60.83-66.49-55.76-9.49,2.73-17.9,10-17.9,10-9.34,8-14.12,17.38-19.18,25.89-6.55,11-20.64,34.68-38.36,45.8-11.76,7.38-32.49,13.85-39.64,0-7.44-14.42,6.58-37.82,0-51.77-8.05-17.07-40.52-6.4-62.65,13.94C107.43,196.78,95.18,251.5,90.9,275.67,77.48,230.2,42,185.61,28.57,140.14Z"/><line class="cls-3" x1="222" y1="155.48" x2="232.64" y2="95.38"/><line class="cls-3" x1="229.1" y1="179" x2="246.84" y2="87.54"/><line class="cls-3" x1="241.52" y1="168.55" x2="252.16" y2="111.06"/><path class="cls-4" d="M73.53,97.13c.3,1.92-1.21,5.51-4.38,10.94a14.39,14.39,0,0,1-3,3.64c-1.75,1.5-2.69,2.4-2.8,2.54a11.83,11.83,0,0,0-1.89,3.44c-4,10.22-6,22.21-1.91,32.62a14.6,14.6,0,0,0,4.93,6.84c.88.62,8.5,3.37,20.71,9.39,8.14,4,12.79,9.82,15,16.78,1.8,5.72,2.4,12.74,2.15,21.24-.09,2.83-.87,7.94-2.14,15.54A113.05,113.05,0,0,1,97,234.55a29.9,29.9,0,0,1-1.34,3.57c-1.78,3.57-3,4.56-3.65,2.7-.42-1.12-.61-3.73-.5-7.76a21.51,21.51,0,0,1,1.12-5.37,18,18,0,0,0,.95-6.37c-.44-7.48-1.51-13.56-3.43-18.36-2.72-6.78-9.68-12.08-20.71-16-8.93-3.21-19.56-7.56-24.07-17.34-3.06-6.64-4.3-14.51-3.66-23.15a71.74,71.74,0,0,1,9.5-29.4A69.11,69.11,0,0,1,59,105.73c5.13-5.95,9.24-9.13,12.19-9.76C72.58,95.69,73.36,96.07,73.53,97.13Z"/><path class="cls-4" d="M173.94,24.81c2.42.33,3.38,1.87,3,4.58-.26,1.81-1.32,4.54-3,8.27-2.24,4.89-3.39,7.84-3.56,8.43C164.69,63,161.66,80.8,159.1,98.3c-2.33,16-4.16,32.27-7.11,48.24a10.21,10.21,0,0,1-3.92,6.39,5.18,5.18,0,0,1-2.61,1.27c-2.81.17-4.9-2.2-6.51-8-.11-.56-1.12-6.13-3.58-17.88-1.3-6.21-2.67-13.2-4.11-20.75-2.08,11.18-2.17,22.78-2.41,34-.21,9.71-.39,20-2.93,29.56a10.48,10.48,0,0,1-3,4.39c-2.2,2.16-4.1,2.48-5.29-.29-1.11-2.58-2.17-5.68-3.39-8.67-5.84-13.55-10.32-27.7-14.71-41.72-4.13-13.17-7.72-27.11-13.7-39.65-.55-1.1-.5-2.66.18-4.69a14,14,0,0,1,3.21-5.16c1-1.1,2.1-2.23,3.16-3.16,3.72-3.24,6.62-4.2,8.73-2.83,5.75,20.18,10.65,40.64,15.75,61,.36-3.2.5-8.63.62-16.3A140.2,140.2,0,0,1,119,96.63c.77-5.78.83-12.47,1.54-18.3.89-7.29,4.15-12.73,8.9-16a20.5,20.5,0,0,1,4.11-2.15c.12.72.67.82,1.66.31s1.53-.65,1.65-.46c2.61,4.86,4.39,12.89,5.68,23.9,1.82,15.5,3,24.65,3.39,27,1.41-13.94,3-28.14,5.68-41.65,2.58-13.23,6.08-26.5,12.19-38.89a10.52,10.52,0,0,1,5.47-4.68A8.82,8.82,0,0,1,173.94,24.81Z"/><path class="cls-4" d="M206.92,93.07c-.61,1.36-1.56,2-2.6,1.82a25.15,25.15,0,0,0-2.78-.52,2.5,2.5,0,0,0-2.69,2.07,154.58,154.58,0,0,0-4.4,20.05c-1.71,11-2.05,16.47-2.21,18.1a2.91,2.91,0,0,1-2.52,2.88c-2.16.25-3.91-.62-4.26-2.29a25,25,0,0,1-.23-7.54,88.88,88.88,0,0,1,1.9-10.13c1.09-4.69,1.9-8.43,2.31-11a53.3,53.3,0,0,0,.67-7.21,9.53,9.53,0,0,0-2,.06,24.68,24.68,0,0,0-7.34,2.82,84.22,84.22,0,0,1-7.63,3.75,11.38,11.38,0,0,1-4.33.82c-1.78-.08-2.7-1-2.55-2.66.07-.85,1.22-3.84,3.59-9,5.81-12.68,11.53-25.49,17.76-37.89,5.8-11.55,11.89-23.09,18.78-34.12,1.22-2.33,2.51-4.64,3.84-6.89s3-3.28,4.85-3c2.25.33,3.11,1.67,2.91,3.77s-.5,4.19-.86,6.27a230.46,230.46,0,0,1-6.5,24.9c-3.46,11.35-6,20.5-7.32,26.76q-.88,4.12-1.47,7.92c3.89.5,5.54,2.74,5.77,5.77A9.07,9.07,0,0,1,206.92,93.07Zm-8.23-36.56c-2.93,5.14-5.88,10.5-8.71,16a118.48,118.48,0,0,0-7.2,16.75,30.61,30.61,0,0,0,5.28-2.52c2.63-1.49,4.5-2.17,4.67-2.36,1-1.1,1.55-7.83,3-14.29S198.17,59.12,198.69,56.51Z"/></g></svg>