<svg xmlns="http://www.w3.org/2000/svg" viewBox="0 0 454 480"><defs><style>.cls-1{fill:silver;}.cls-1,.cls-2,.cls-3{stroke:#000;stroke-miterlimit:10;}.cls-2{fill:#e76970;}.cls-3{fill:none;}.cls-4{fill:#fff;}</style></defs><title>flags</title><g id="Layer_21" data-name="Layer 21"><path class="cls-1" d="M9.59,127.79a11.75,11.75,0,0,1,4.55-4.41,12.26,12.26,0,0,1,6.06-1.47L190,474.56a7,7,0,0,1-3,4.41,7.47,7.47,0,0,1-7.58,0Z"/><path class="cls-2" d="M28.57,142.14C61.86,81.2,118,50.72,140.13,35.72c33.69-22.8,77.23-37.11,84.39-17.92,5.2,13.92-11.43,38.3-5.11,51.77,6.07,12.95,27,3.63,30.69,2,19.63-8.69,21.51-23.6,46.67-44.8,10.33-8.71,21.71-18.07,37.72-20.91,10.08-1.79,21.56-3.82,32.61,5,17.69,14.09,15.39,40.9,30.69,57.75,8,8.83,21.88,16.05,47.31,6-12,11.74-29.66,24.72-46,15.93C386.81,83.91,386.18,71,373.48,58.62c-21.76-21.23-52.65-15.29-74.16,2-24.27,19.5-35,52.14-38.36,63.72,3.67-4.47,30.8-36.3,66.49-23.9C368.93,114.86,384,175.83,385,180.09c-21.85-40.91-48.86-60.83-66.49-55.76-9.49,2.73-17.9,10-17.9,10-9.34,8-14.12,17.38-19.18,25.89-6.55,11-20.64,34.68-38.36,45.8-11.76,7.38-32.49,13.85-39.64,0-7.44-14.42,6.58-37.82,0-51.77-8.05-17.07-40.52-6.4-62.65,13.94C107.43,198.78,95.18,253.5,90.9,277.67,77.48,232.2,42,187.61,28.57,142.14Z"/><line class="cls-3" x1="222" y1="157.48" x2="232.64" y2="97.38"/><line class="cls-3" x1="229.1" y1="181" x2="246.84" y2="89.54"/><line class="cls-3" x1="241.52" y1="170.55" x2="252.16" y2="113.06"/><path class="cls-4" d="M66.44,112.72c-.82,17.93,3.66,35.74,7.85,53,3.41,12.72,7.93,25.26,11.9,37.68,3.65,11.44,7.16,23.14,8.78,35.19a11.07,11.07,0,0,1-.3,3.37c-.27.9-.76,1.38-1.54,1.38C86,229.05,77.39,215.45,68.66,202.24c-9.77-14.79-20.21-29.49-30.87-43.85-.7-3.17-.81-4.93-.51-5.39a4.19,4.19,0,0,1,.51-2c.54-.82,2-.83,4.76,0,6.64,8.79,13.09,17.85,19.2,26.86,6.72,9.9,13.26,20.19,19.68,30.45C76,192.26,70.09,175.91,65.58,159.91c-4-14.13-7.3-29-7-44.13a8.47,8.47,0,0,1,3.84-6.85,1.15,1.15,0,0,1,1.06,0,1.37,1.37,0,0,0,1.49-.46c.53-.5.92-.16,1.21,1.07A11.77,11.77,0,0,1,66.44,112.72Z"/><path class="cls-4" d="M110.46,65.65a12.18,12.18,0,0,1-1,5.08,16,16,0,0,1-3.09,5.14,4.79,4.79,0,0,1-2.32,1.38,5.43,5.43,0,0,0-2.33,1.29A71.74,71.74,0,0,0,91.6,91.79c-4.72,7.59-8.55,13.16-8.84,14.69-.66,3.45,2.63,11.32,4.46,17.31s3.93,12.06,6.14,18.07a6.18,6.18,0,0,0,1.38-1.28c1-1.23,2.57-4.27,4.92-8.9,2.19-4.29,4.23-7.06,5.71-8.32,1.27-1.08,2-.88,2.26.67a25.17,25.17,0,0,1-1.84,13.11c-1.54,3.61-3.47,7.49-5,11.35-.71,1.17-1.82,3.25-3.24,6.24.52,2.05,1.17,4.27,1.92,6.66s1.88,5.7,3.34,10.1,2.43,7.61,3,9.75a67.92,67.92,0,0,1,2.68,19.66,7,7,0,0,1-.64,3c-.39.77-.88,1.14-1.48,1.12s-1.09-.44-1.46-1.23a52.31,52.31,0,0,1-2.9-8.1c-.35-1.21-1.43-5.62-3.71-13.74a80.88,80.88,0,0,0-4.85-13.56,1.76,1.76,0,0,0-2.35-1.15c-1.31.46-2.38.64-2.69.41s-1.08-2.49-2.09-6a4.21,4.21,0,0,0,.91-3.08,5.65,5.65,0,0,1,.58-3,2.66,2.66,0,0,1,.6-.6,167.2,167.2,0,0,0-4.94-16.75c-.69-2-3.69-9.33-7.63-20.35a4.94,4.94,0,0,1-4.08.46,3.91,3.91,0,0,1-2.9-2.82c-.58-2,.14-4.29,2.15-6.88,2.74-3.53,7.6-11.1,15.82-22.17,7.23-9.74,13.72-16.52,18.65-20.58a7,7,0,0,1,3.39-1.74C109.85,64,110.38,64.51,110.46,65.65Z"/><path class="cls-4" d="M140.77,52.73c-2.54,3.36-6.28,7.89-11,13.83a125.39,125.39,0,0,0-10.4,14.77c-.19,3.62.36,11.08,2,23.08a6.24,6.24,0,0,0,3.51-1.78A44.65,44.65,0,0,0,129,98a32.66,32.66,0,0,1,4.2-4.5c1.72-1.37,3.89-1.78,4.64-1.06a7.84,7.84,0,0,1,1.7,4.22,5.53,5.53,0,0,1-.45,2.68c-.11.23-.45,1.48-1,3.77-.36,1.58-.89,2.57-1.59,3A52.23,52.23,0,0,1,130,113a25.68,25.68,0,0,0-5.94,8.25c.54,10.8,1.33,18.88,2.15,24.27a38.63,38.63,0,0,0,1.78,7.82c2.7,1.44,6.48-1.32,12-7.23a6.16,6.16,0,0,0,1.14-2.47,6.15,6.15,0,0,1,1-2.33c1.32-2,2.4-.12,3,4.87a16.08,16.08,0,0,1-.26,5.17,7.9,7.9,0,0,1-1.65,3.84c-5.36,5.67-10.13,10.09-14.17,12.42-1.27.76-2.51.51-3.85-.91s-2.37-3.83-3.13-7.25c-2.17-9.82-4.28-19.85-5.72-29.85a6.29,6.29,0,0,1-3.57-5.18,10.07,10.07,0,0,1,.6-4.59,11.7,11.7,0,0,0,.78-4.47c-.1-1.16-1.22-7.81-2.8-19-3.77,1.81-6,.81-6.67-3a17.08,17.08,0,0,1,2.07-11.07c1.78-3.27,4-6.59,6-9.77a97,97,0,0,1,9.41-13.07c3.33-3.87,6.76-7.62,10.27-11.22a10.05,10.05,0,0,1,1.29-1,8.8,8.8,0,0,1,6.79-1.39c.07.36.26,1,.56,2a9.09,9.09,0,0,1,.46,2.29A5.25,5.25,0,0,1,140.77,52.73Z"/><path class="cls-4" d="M165.4,33.55c-.07,1.76-1.11,3.83-3.13,6.22a2.7,2.7,0,0,1-1.74,1,8,8,0,0,0-1.53.26,3.56,3.56,0,0,0-1.25,1.49,45.37,45.37,0,0,0-5.45,22.78,34.7,34.7,0,0,0,1,8.15c.27,1,3,8,7,21.86a81.51,81.51,0,0,1,3.53,24.48,70.17,70.17,0,0,1-2.42,16.61,40.33,40.33,0,0,1-3.43,7.73c-1.42,2.64-2.7,4.32-3.79,5.09a2.51,2.51,0,0,1-1.2.5c-1.4,0-2.09-.82-2.09-2.54a15.94,15.94,0,0,1,1.07-4.66,4.19,4.19,0,0,1,1.38-1.83,4.58,4.58,0,0,0,1.47-2.68,66.26,66.26,0,0,0,1.57-14.29c0-6.67-1.84-16-5.91-27.09-3.25-8.91-6.91-18.43-7.39-28.09a53.42,53.42,0,0,1,1.93-17.63,38.13,38.13,0,0,1,8.16-15.2,18.55,18.55,0,0,1,4.79-4c2.94-1.59,5.09-1.78,6.45-.55A2.88,2.88,0,0,1,165.4,33.55Z"/><path class="cls-4" d="M217.82,23.92c-.59,3.66-1.58,5.77-2.87,6.08-3.35.86-16,1.88-19.06,5.88-7.8,10.24-6.62,51.4-8.78,77.19-.62,7.4-1.11,14.28-1.33,20.31a27.16,27.16,0,0,1-.38,4.2c-.32,1.49-.86,2.11-1.59,2-1.39-.14-2.58-1.12-3.4-3.26a19.4,19.4,0,0,1-1.12-7.64c.12-3.81.35-8.09.68-12.78.9-12.86,2.27-25.73,3.61-38.55s5.12-36.93,3.68-38.32c-.28-.27-4,1.05-7.07,2.82-3.53,2-6,3.46-7.37,4q-4.75,1.92-7.71-.83c-.72-2.44-1.08-3.62-1.08-3.73a7,7,0,0,1,.78-2.67c2.21-2.18,6.79-5.34,13.24-8.66,5.72-2.94,9.91-5.67,12.71-8.53a16.86,16.86,0,0,0,7.13.46,24.73,24.73,0,0,0,7.46-2.11c.67-.09,2.43-.85,5-1.8a6.66,6.66,0,0,1,4.59-.09c.76.28,1.23,1.05,1,2.54C217.29,20.86,217.9,22,217.82,23.92Z"/></g></svg>