<svg xmlns="http://www.w3.org/2000/svg" viewBox="0 0 454 480"><defs><style>.cls-1{fill:silver;}.cls-1,.cls-2,.cls-3{stroke:#000;stroke-miterlimit:10;}.cls-2{fill:#a47bb5;}.cls-3{fill:none;}.cls-4{fill:#fff;}</style></defs><title>flags</title><g id="Layer_23" data-name="Layer 23"><path class="cls-1" d="M9.59,125.79a11.75,11.75,0,0,1,4.55-4.41,12.26,12.26,0,0,1,6.06-1.47L190,472.56a7,7,0,0,1-3,4.41,7.47,7.47,0,0,1-7.58,0Z"/><path class="cls-2" d="M28.57,140.14C61.86,79.2,118,48.72,140.13,33.72c33.69-22.8,77.23-37.11,84.39-17.92,5.2,13.92-11.43,38.3-5.11,51.77,6.07,12.95,27,3.63,30.69,2,19.63-8.69,21.51-23.6,46.67-44.8,10.33-8.71,21.71-18.07,37.72-20.91C344.57,2.07,356,0,367.09,8.83c17.69,14.09,15.39,40.9,30.69,57.75,8,8.83,21.88,16.05,47.31,6-12,11.74-29.66,24.72-46,15.93C386.81,81.91,386.18,69,373.48,56.62c-21.76-21.23-52.65-15.29-74.16,2-24.27,19.5-35,52.14-38.36,63.72,3.67-4.47,30.8-36.3,66.49-23.9C368.93,112.86,384,173.83,385,178.09c-21.85-40.91-48.86-60.83-66.49-55.76-9.49,2.73-17.9,10-17.9,10-9.34,8-14.12,17.38-19.18,25.89-6.55,11-20.64,34.68-38.36,45.8-11.76,7.38-32.49,13.85-39.64,0-7.44-14.42,6.58-37.82,0-51.77-8.05-17.07-40.52-6.4-62.65,13.94C107.43,196.78,95.18,251.5,90.9,275.67,77.48,230.2,42,185.61,28.57,140.14Z"/><line class="cls-3" x1="222" y1="155.48" x2="232.64" y2="95.38"/><line class="cls-3" x1="229.1" y1="179" x2="246.84" y2="87.54"/><line class="cls-3" x1="241.52" y1="168.55" x2="252.16" y2="111.06"/><path class="cls-4" d="M75.18,92.87c1.81-.22,3.1.89,4,3.41a43,43,0,0,1,1.37,8.2c.52,5,1,8,1.13,8.56,3.44,17.27,9.07,34.22,14,50.95,4.24,14.29,8.64,29.07,9.61,44.16a13.73,13.73,0,0,1-1.43,6.69,5.74,5.74,0,0,1-1.36,2c-1.62,1.2-3.16-.09-5.6-4.91-.21-.47-2-5-7.62-15.83-3-5.71-6.5-12.33-10.47-19.65,2.7,11,6.52,21.73,9.72,32.47,4.06,13.62,4.74,21.95,4.5,27a9.76,9.76,0,0,1-1.26,4.11c-1.12,2.1-2.19,2.39-3.5-.18-1.23-2.41-2.59-5.26-4.19-8.13q-12.14-21-24.26-42.05C51.34,175.13,43,160.42,34,146.13a11.1,11.1,0,0,1-1.58-4.91,7.76,7.76,0,0,1,.69-4.39,16.82,16.82,0,0,1,1.35-2.31c1.74-2.25,3.61-2.4,5.78-.39,11.57,21.42,23.85,42.44,35.56,63.78-.79-3-2.53-8.27-5.26-15.77s-4.45-13.42-5.5-17c-1.75-5.95-4.32-12.27-6.18-18.14-2.29-7.23-2.05-12.34.15-15.24a7.4,7.4,0,0,1,2.16-1.91c.39.72.84.85,1.36.38s.86-.6,1-.41c4,4.89,8.75,12.74,14.29,23.38,4.39,8.43,8.79,16.9,13.13,25.38-4.17-13.49-8.77-27-12.7-40.4-3.66-12.46-7-25.28-7.89-38.47a6.76,6.76,0,0,1,1.9-5.13A4.7,4.7,0,0,1,75.18,92.87Z"/><path class="cls-4" d="M114.17,65.13c-1.75,3.51-4.43,8.26-7.94,14.55a115.48,115.48,0,0,0-7.49,15.74c.55,3.89,2.66,11.95,6.39,24.59a5.46,5.46,0,0,0,3.3-2,37,37,0,0,0,3.4-5,28.4,28.4,0,0,1,3.44-4.86c1.49-1.49,3.56-2,4.48-1.26a9.29,9.29,0,0,1,2.48,4.34,5.77,5.77,0,0,1,0,2.81c-.07.24-.18,1.56-.33,4-.09,1.65-.45,2.71-1.09,3.19a43.6,43.6,0,0,1-5.44,7.44,24.46,24.46,0,0,0-4.83,8.92c2.13,11.17,3.86,19.24,5.25,24.46a35.25,35.25,0,0,0,2.56,7.35c2.89.89,6.6-2.54,11.55-9a5.82,5.82,0,0,0,.89-2.48,5.93,5.93,0,0,1,.76-2.33c1.11-2,2.43-.41,3.55,3.87a11.68,11.68,0,0,1,.24,4.52,7.2,7.2,0,0,1-1.35,3.65c-5,6.22-9.67,11.44-13.69,14.74a3,3,0,0,1-4,.29c-1.44-1-2.63-3-3.65-6.19-3.12-9.77-6.32-19.65-9-29.59a7.06,7.06,0,0,1-4.43-5.16,10.93,10.93,0,0,1,0-4.92,12.19,12.19,0,0,0,.15-4.8c-.28-1.23-2.41-8.21-6.11-20.28-3.63,2-6.21,1-7.59-3.1a18.86,18.86,0,0,1,0-12.14c1.2-3.54,2.88-7.19,4.17-10.56a81.68,81.68,0,0,1,6.75-13.83q3.75-6,7.74-11.56a6.93,6.93,0,0,1,1.06-1.05,7.91,7.91,0,0,1,6.61-1.4c.17.37.54,1,1.09,2a11.25,11.25,0,0,1,1.06,2.35A5,5,0,0,1,114.17,65.13Z"/><path class="cls-4" d="M160.66,126.92a24.06,24.06,0,0,1,.83,4.06,13.72,13.72,0,0,1-.55,5.64c-.57,1.8-1,2.69-1.24,2.77-2.15.52-3.84-1.83-5.32-8.71-1.61-7.47-3.39-14.52-5.2-20-1.56,1.52-3.21,3.09-4.68,4.71a14.48,14.48,0,0,0-3.59,7.78c-.31,3.56.64,11.12,1.11,19.72a108.07,108.07,0,0,1-.05,16.61,3.75,3.75,0,0,1-2.08,3.27c-1.47.68-2.41.37-2.68-1-.55-2.84-.77-7.81-.81-15.39a150.91,150.91,0,0,0-1-19.27,3.87,3.87,0,0,0-1.65-2.65,3.72,3.72,0,0,1-1.65-2.08,7.44,7.44,0,0,1-.08-2.19,7.25,7.25,0,0,1,1.19-3,5.22,5.22,0,0,0,1-3.13c-.73-12.61-1.82-25.25-2.7-37.79-.74-10.68-1.57-21.52-1.27-32.29A3.8,3.8,0,0,1,132,40.59a2.59,2.59,0,0,1,2.54-.26c2.18,1,4,3.63,5.45,8.22,1.22,3.94,2.37,8.29,3.49,12.85C149.71,83.12,154.81,105.11,160.66,126.92ZM146.2,100.09c-.88-4.49-2-9.54-3.57-14.83-1.34-4.57-2.8-9.15-4.21-13.57.21,11.25.89,22.47,1.61,33.69A31.78,31.78,0,0,1,146.2,100.09Z"/><path class="cls-4" d="M187.11,125.77a5.22,5.22,0,0,1,.18,1.31,5.81,5.81,0,0,1-2.27,5.07c-2-3.27-4.55-8.74-8.07-17.4-3.93-9.68-7.42-17-9.75-20.73.1,3.38.43,12.6,1,24.93.46,9.29.64,15.48.51,19.63a4.64,4.64,0,0,0-.69,1c-.38.6-.72.89-1,.88-1.86.14-3-1.6-3.49-6.34-.14-1.39-.24-3.36-.33-6-.11-3-.2-5.1-.23-5.89-.43-6.43-1.08-14.7-2-24.78-.81-8.22-1.24-12.5-2.15-20.81-1.45-13.45-3-26.92-4-40.38-.46-6.26,2.6-10.08,9-12.28,3.23-1.11,6.49-.12,9.41,4.05,2.7,3.85,4.16,9.14,4.52,15.76a69.39,69.39,0,0,1-1.95,18.47,68.78,68.78,0,0,1-4.89,15,9.77,9.77,0,0,0-1.05,4.85,12.38,12.38,0,0,0,1.83,5.42c.8,1.38,1.64,2.78,2.43,4.18,0,.11,3,5.75,7.44,16.6A106.28,106.28,0,0,1,187.11,125.77ZM171.44,46.19a40.49,40.49,0,0,0-.3-5.57A12.77,12.77,0,0,0,169,35c-1-1.44-2.49-1.75-4.34-1a3.64,3.64,0,0,0-2.29,3.42,74.94,74.94,0,0,0,.73,9.51c.17,1.49.71,5.28,1.48,11.85.59,5,.94,9.29,1.11,12.67C169.29,61.58,171.36,53.12,171.44,46.19Z"/><path class="cls-4" d="M215,22.8c-2.16,1.69-5.27,3.78-9.27,6.53a50.07,50.07,0,0,0-9,7.67c-.56,3.47-1.13,11.31-2,24.71a2.8,2.8,0,0,0,2.49,1,10.52,10.52,0,0,0,3.3-1.39,8.39,8.39,0,0,1,3.29-1.26,3.16,3.16,0,0,1,2.87,2.76,18.72,18.72,0,0,1,.12,6.07,6.59,6.59,0,0,1-.77,2.54c-.1.15-.53,1.22-1.27,3.21-.5,1.38-1,2-1.43,1.8-.93.74-2.53,1.11-4.84,1.36a6.84,6.84,0,0,0-4.87,3c-1.46,11.21-2.22,19.67-2.46,25.55a69.61,69.61,0,0,0,.08,9.09c1.46,4.15,4,5.82,7.36,6.06.23.06.5-.33.83-1.2s.59-1.29.75-1.24c.85-.53,1,2.58.8,8.23a29.33,29.33,0,0,1-.53,4.8c-.28,1.32-.61,1.9-1,1.81a22.07,22.07,0,0,1-8.81-4.64c-.89-.73-1.75-2.28-2.54-4.91a35.69,35.69,0,0,1-1.35-9.51c-.25-10.82,0-21.83.69-32.66a16.72,16.72,0,0,1-1.5-7.85,9.12,9.12,0,0,1,1.13-3.9,9.67,9.67,0,0,0,1.23-3.69c.12-1.2.55-8.56.93-20.56-2.89-.86-4.41-3.31-4.47-7.29-.06-3.72.75-6.93,2.59-9.19,1.57-1.93,3.62-3.82,5.22-5.58a34.68,34.68,0,0,1,7.84-6.57,73,73,0,0,1,8.28-4.25,3.63,3.63,0,0,1,1-.19c1.57-.08,3.45.72,5.45,2.73,0,.38.17,1.11.34,2.23a12.77,12.77,0,0,1,.19,2.53A4,4,0,0,1,215,22.8Z"/></g></svg>