<?xml version="1.0" encoding="utf-8"?>
<!-- Generator: Adobe Illustrator 21.0.2, SVG Export Plug-In . SVG Version: 6.00 Build 0)  -->
<svg version="1.1" id="Layer_1" xmlns="http://www.w3.org/2000/svg" xmlns:xlink="http://www.w3.org/1999/xlink" x="0px" y="0px"
	 viewBox="0 0 50 50" style="enable-background:new 0 0 50 50;" xml:space="preserve">
<style type="text/css">
	.st0{fill:#EB84B4;}
	.st1{fill:#E76970;}
	.st2{fill:#F08274;}
	.st3{fill:#FFFFFF;}
</style>
<g>
	<circle class="st1" cx="25" cy="25" r="25"/>
</g>
<g>
	<g>
		<g>
			<path class="st3" d="M28,39.2c-0.1-0.5-0.2-0.9-0.3-1.4c-0.5-2.1-0.6-4.4-0.7-6.5c-0.1-2.1-0.2-4.3-0.3-6.4
				c0-0.5-0.1-1.1-0.1-1.6c0-0.5,0-1.1,0-1.6c0-1.1,0-2.2,0-3.3c0-2.2,0-4.5,0.1-6.8c0-0.7,0-1.3,0.1-2c0-0.3,0-0.5,0-0.8
				c0-0.1,0-0.3,0-0.4c0-0.1-0.1-0.3-0.2-0.3c-0.3,0-0.5,0.3-0.7,0.6c-0.2,0.2-0.3,0.5-0.5,0.8c-0.1,0.3-0.3,0.5-0.4,0.8
				c-0.2,0.4-0.5,1-0.7,1.6c-0.9,2.2-1.7,4.4-2.3,6.5c0.7-2.2,1.5-4.4,2.4-6.5l0.3-0.8l0.3-0.7c0.1-0.2,0.2-0.5,0.4-0.7
				c0.1-0.2,0.3-0.5,0.4-0.7c0.2-0.2,0.3-0.5,0.6-0.5c0.2,0,0.2,0.3,0.2,0.4c0,0.2,0,0.3,0,0.5l0,0.9l-0.1,3.4
				c0,2.7-0.1,5.5-0.1,8.2c0,1.4,0,2.7,0.1,4.1c0.1,1.3,0.1,2.7,0.2,4c0.1,1.3,0.1,2.7,0.2,4c0.1,1.4,0.2,2.8,0.5,4.1
				c-0.3-0.8-0.5-1.6-0.7-2.5c-0.2-0.9-0.3-2-0.4-3c-0.1-2.5-0.2-5.1-0.4-7.5c-0.1-1.3-0.1-2.5-0.1-3.7c0-1.2,0-2.5,0-3.7
				c0.1,0,0.2,0,0.3,0c0-2,0-4.1,0-6.1l0-1.1l0-0.3c0-0.1,0-0.3-0.1-0.3c-0.3,0.1-0.4,0.3-0.5,0.6c-0.1,0.1-0.1,0.3-0.2,0.4L25,11
				l-0.4,0.8c-0.9,2.1-1.7,4.3-2.4,6.6c-1.4,4.5-2.4,9.1-2.8,14c0.1-0.5,0.1-0.2,0.2-0.1l0,0.1l0-0.1c0,0.1,0.1,0,0.2-0.8
				c-0.1,0.8-0.1,0.9-0.2,0.8c0.5-4.8,1.5-9.4,2.9-13.9c0.7-2.2,1.5-4.4,2.4-6.6l0.3-0.8l0.3-0.7l0.1-0.2c0.1-0.1,0.2-0.3,0.3-0.3
				c0.1,0.1,0,0.3,0.1,0.4l0,0.2l0,0.1l0,0l0,0.3c0,1.9-0.1,3.8-0.1,5.8c0-1.9,0-3.9,0.1-5.8l0-0.6c0-0.1,0-0.2-0.1-0.3
				c-0.1,0-0.2,0.2-0.2,0.3l-0.1,0.2l-0.4,0.9c-0.8,1.9-1.6,3.9-2.2,5.9c-1.3,4-2.3,8.1-2.9,12.3c-0.6,4.2-0.9,8.5-0.9,12.7
				c0,0.5,0,1.1,0.1,1.5l0,0.3l0,0.1l0,0l0,0L19,44.2l-0.4,0.1l-0.3,0c-0.2,0-0.3,0.1-0.5,0.2c-0.1,0.1-0.1,0-0.2,0
				c0,0-0.1,0.1-0.1,0.1c0,0,0-0.1-0.1-0.1c0,0-0.1-0.1-0.2-0.1c-0.1-0.1-0.3-0.1-0.5-0.2c-0.2-0.1-0.5-0.2-0.7-0.2l-0.2,0
				c-0.1,0,0,0,0,0l0,0l0,0l0-0.1l0.1-0.3c0.1-1,0.3-2.1,0.4-3.2c0.2-2.2,0.4-4.4,0.6-6.6c0.1-0.9,0.2-2.7,0.2-3.7
				c0.4-3.7,0.5-7.3,0.4-11c0.2,0.5,0.5-0.2,0.7-0.1c0.2,0.1,0.4,1,0.3,4.7c0.1,0,0.2,0,0.3,0c0.2-3.7,0.5-6.3,0.8-7
				c0.3-0.7,0.8,0.4,1,4.2c0.2,4.2,0.1,9.2-0.4,14.3c-0.2,2.6-0.5,5.2-0.8,7.8l-0.1,1l-0.1,0.6c0,0.1,0,0.2-0.1,0.4l0,0.1
				c0,0-0.1,0.2-0.1,0.3l0,0.1c0,0,0,0-0.1,0.2c-0.1,0.1-0.2,0.2-0.3,0.3c-0.3,0.2-0.6,0.3-0.9,0.4c-0.3,0-0.5,0-0.7-0.1
				c-0.2-0.1-0.5-0.2-0.7-0.4c-0.2-0.2-0.4-0.5-0.4-0.5L16,45.2c0-0.1-0.1-0.2-0.1-0.3l0-0.1l0-0.2l0-0.3l0-0.6l0-1c0-1.4,0-2.7,0-4
				c0.2-7.6,1.4-15.2,3.9-22.4c0.7-2,1.5-4.1,2.4-6.2c0.3-0.6,0.4-0.8,0.9-1.9c0.5-0.9,1-1.8,1.5-2.5c0.5-0.7,1-1.2,1.5-1.5
				c0.2-0.1,0.5-0.2,0.7-0.3c0.2,0,0.5,0,0.9,0c0.5,0.3,0.7,0.4,0.9,0.6c0.2,0.2,0.4,0.6,0.5,1l0.2,0.8c0,0.3,0,0.7,0.1,1
				c0.1,0.7,0,1.4,0,2.1l-0.1,5.2c0,3.1-0.1,6.2-0.1,9.1c0.1,1.8,0.3,4.4,0.4,6.7c0.1,1.1,0.1,2.2,0.2,3.1c0.1,0.9,0.1,1.6,0.2,2
				c0.1,1.3,0,1.4-0.2,1.2c-0.3-1.5-0.5-2.9-0.5-4.4c-0.1-1.5-0.2-3-0.3-4.5c-0.1-1.5-0.2-3-0.3-4.5c0-1.5,0-3,0-4.5
				c0-2.3,0.1-4.5,0.1-6.8l0-1.8c0-0.9,0-1.7,0-2.6l0-0.6l-0.1-0.5c0-0.4-0.1-0.6-0.2-0.9c-0.1-0.3-0.2-0.5-0.3-0.7
				c-0.1-0.2-0.3-0.4-0.6-0.5c-0.4,0-0.7,0.1-1,0.2c-0.3,0.2-0.6,0.4-0.8,0.6c-0.6,0.5-1.2,1.4-1.7,2.4c-0.3,0.5-0.5,1-0.8,1.5
				l-0.5,1.1c-0.3,0.7-0.6,1.3-0.9,2c0.3-0.7,0.6-1.3,0.9-2l0.5-1c0.2-0.5,0.5-1,0.8-1.5c0.5-1,1.1-1.8,1.7-2.4
				c0.3-0.3,0.6-0.5,0.8-0.6c0.3-0.1,0.6-0.3,1-0.2c0.3,0.1,0.5,0.4,0.6,0.5c0.1,0.2,0.2,0.4,0.3,0.7c0.1,0.3,0.2,0.5,0.2,0.9
				L28.6,7l0,0.6c0,0.8,0,1.7,0,2.5l0,1.8c0,2.3-0.1,4.5-0.1,6.8l0,4.5l0.2,4.5l0.2,4.5c0.1,1.5,0.2,2.9,0.5,4.4
				c-0.2-0.2-0.4-0.4-0.5,0c0,0,0.1,0.5,0.2,1c0.1,0.6,0.3,1.2,0.5,1.7c0.4,1.8,0.5,2.5,0.3,2.6c-0.2,0.1-0.7-0.5-1.2-1.3
				C28.5,40.3,28.3,39.7,28,39.2z"/>
		</g>
	</g>
</g>
<g>
	<g>
		<g>
			<path class="st3" d="M35.7,18.9c-0.1,0-0.1,0.1-0.2,0.1c-1.2,0.8-2.3,1.8-3.6,2.7c-1,0.6-1.9,1.4-2.8,2.1
				c2.2-1.5,4.3-3.1,6.6-4.6c-0.1,0.3-0.2,0.6-0.5,0.9c-0.8,0.6-1.5,1.1-2.1,1.6c0-0.1-0.1-0.2-0.2-0.2c-1.7,1.7-3.8,2.5-5.5,4.2
				c0.1,0,0.1,0.1,0.1,0.1l0,0l0,0c0,0,0,0.1,0.2,0c-0.1,0.1-0.1,0.1-0.2,0c1.9-1.4,3.6-2.7,5.5-4c-1.5,1.1-2.9,2.2-4.3,3.2
				c-1.4,1.1-2.9,2.2-4.4,3.3c-0.1,0.1-0.4,0.3-0.5,0.4c-0.6,0.2-1.2,0.5-1.7,0.9c-0.1-0.4-1-0.7,0.1-1.3c0-0.1-0.1-0.2-0.2-0.3
				c-1.2,0.4-2.2-0.2-1.4-1.2c1-1.1,2.6-1.9,3.9-3.1c1-0.8,1.9-1.6,3-2.2c1.5-0.9,3-2.1,4.4-2.9c0.5-0.3,1.2-1.2,1.5-1.2
				c0.2-0.1,0.4,0,0.5,0.2c-0.8,0.7-1.5,1.3-2.3,1.9c-1,0.7-2.1,1.4-3.1,2c1.1-0.6,2.1-1.3,3.1-2c0.8-0.6,1.6-1.2,2.4-1.8
				c0.1,0.1,0.2,0.3,0.3,0.4c0,0,0.2-0.2,0.3-0.3c0.7-0.2,1,0.3,1,0.8C35.8,18.6,35.8,18.7,35.7,18.9z"/>
		</g>
	</g>
</g>
</svg>
