<svg xmlns="http://www.w3.org/2000/svg" viewBox="0 0 454 480"><defs><style>.cls-1{fill:silver;}.cls-1,.cls-2,.cls-3{stroke:#000;stroke-miterlimit:10;}.cls-2{fill:#f08274;}.cls-3{fill:none;}.cls-4{fill:#fff;}</style></defs><title>flags</title><g id="Layer_14" data-name="Layer 14"><path class="cls-1" d="M9.59,125.79a11.75,11.75,0,0,1,4.55-4.41,12.26,12.26,0,0,1,6.06-1.47L190,472.56a7,7,0,0,1-3,4.41,7.47,7.47,0,0,1-7.58,0Z"/><path class="cls-2" d="M28.57,140.14C61.86,79.2,118,48.72,140.13,33.72c33.69-22.8,77.23-37.11,84.39-17.92,5.2,13.92-11.43,38.3-5.11,51.77,6.07,12.95,27,3.63,30.69,2,19.63-8.69,21.51-23.6,46.67-44.8,10.33-8.71,21.71-18.07,37.72-20.91C344.57,2.07,356,0,367.09,8.83c17.69,14.09,15.39,40.9,30.69,57.75,8,8.83,21.88,16.05,47.31,6-12,11.74-29.66,24.72-46,15.93C386.81,81.91,386.18,69,373.48,56.62c-21.76-21.23-52.65-15.29-74.16,2-24.27,19.5-35,52.14-38.36,63.72,3.67-4.47,30.8-36.3,66.49-23.9C368.93,112.86,384,173.83,385,178.09c-21.85-40.91-48.86-60.83-66.49-55.76-9.49,2.73-17.9,10-17.9,10-9.34,8-14.12,17.38-19.18,25.89-6.55,11-20.64,34.68-38.36,45.8-11.76,7.38-32.49,13.85-39.64,0-7.44-14.42,6.58-37.82,0-51.77-8.05-17.07-40.52-6.4-62.65,13.94C107.43,196.78,95.18,251.5,90.9,275.67,77.48,230.2,42,185.61,28.57,140.14Z"/><line class="cls-3" x1="222" y1="155.48" x2="232.64" y2="95.38"/><line class="cls-3" x1="229.1" y1="179" x2="246.84" y2="87.54"/><line class="cls-3" x1="241.52" y1="168.55" x2="252.16" y2="111.06"/><path class="cls-4" d="M59.49,109.42c1.26-.14,2.16.75,2.85,2.86a57.82,57.82,0,0,1,1.4,7,71.92,71.92,0,0,0,1.59,7.56c5,17.27,13,33.71,20.17,50,6.36,14.39,13.43,29.32,16.24,45a10.66,10.66,0,0,1-.65,5.94,2.94,2.94,0,0,1-1,1.53c-1.35.64-2.87-1.14-5.86-6.56-.26-.52-2.57-5.5-9.72-17.62-3.77-6.39-8.22-13.77-13-21.74,4.38,11.23,9.56,22.19,14.12,33.31,5.82,14.19,7.19,22.28,7.3,26.84a5.48,5.48,0,0,1-.9,3.19c-.89,1.35-1.82,1.15-3.3-1.92-1.35-2.81-2.93-6.06-4.75-9.41-9-15.95-18.45-31.69-27.5-47.47C48.4,174,40,159.76,34.17,144.62a11.5,11.5,0,0,1-.68-3.83,6.83,6.83,0,0,1,.49-2.92,10.42,10.42,0,0,1,.7-1.37c.87-1.27,1.65-1.15,2.73.67,7.78,22.85,22.26,43.65,34.37,64.31-1.17-3-3.55-8.39-7.07-16s-5.81-13.32-7.17-16.76c-2.34-5.89-5.14-11.84-7.18-17.27-2.51-6.64-2.62-10.64-1.23-12.57a3.34,3.34,0,0,1,1.44-1.14c.34.67.69.87,1,.58s.6-.33.74-.14C55.74,143,60.52,150.91,67,162c5.36,9.09,10.85,18.21,16.31,27.29-6.08-13.54-12.6-27.14-18-40.71-4.3-10.77-8.65-22.06-9.28-34a5.47,5.47,0,0,1,1.41-3.9A3.19,3.19,0,0,1,59.49,109.42Z"/><path class="cls-4" d="M69.49,100.63c.83,2.62,1.89,5.7,3.19,9.22,5.26,14.23,11.23,28.22,17.17,42.17s12.21,28.1,17.52,42.42c1.08,2.91,2,5.55,2.68,7.87.5,3.16.13,5.33-.72,6.94-1.21,2.28-2.13,2.18-3.34-1.1s-2.83-7.32-4.85-12.11C95,181.46,88.34,167,82,152.57c-5.86-13.38-11.72-26.92-16.54-40.75-1-2.77-1.75-5.22-2.36-7.33a7,7,0,0,1,1.84-4.88,4,4,0,0,1,2.9-1.43,2.42,2.42,0,0,1,.35-.81c.14-.15.31.2.48,1.05a11.57,11.57,0,0,0,.46,1.88C69.26,100.49,69.37,100.63,69.49,100.63Z"/><path class="cls-4" d="M129.6,165.57a2.59,2.59,0,0,1,.42,1c.45,2-.05,4.35-1.37,7.31-2.26-.9-5.58-3.39-11.38-8.86a159.78,159.78,0,0,0-16-13.65c1.26,3.36,4.94,12.48,9.22,24.65,3.22,9.15,4.69,15.37,5.14,19.72a13,13,0,0,0-.42,1.54,4.09,4.09,0,0,1-.69,1.72c-1.42,1.61-2.47.65-4-4-.45-1.36-1-3.36-1.84-6.06-.95-3.11-1.68-5.21-2-6-2.38-6.44-5.83-14.68-10.27-24.63C92.82,150.25,90.87,146,87.21,138c-5.47-12.52-11.44-25.17-14-38.54-1.12-5.75,1.67-10.3,7.06-15.08,2.73-2.42,5.32-3,8.43-.52,2.87,2.3,5.26,6.48,7.25,12.54A82.83,82.83,0,0,1,99.18,115a91,91,0,0,1,0,17.42,10.91,10.91,0,0,0,.59,5.41,9.76,9.76,0,0,0,3.62,4.26c1.24.85,2.54,1.69,3.78,2.52.09.08,5,3.89,12.55,10.19A45.11,45.11,0,0,1,129.6,165.57ZM90.4,102a45.32,45.32,0,0,0-1.58-5.19,10,10,0,0,0-3.06-4.33c-1.19-.9-2.56-.53-4.13,1a4.88,4.88,0,0,0-1.56,4.23,46.7,46.7,0,0,0,2.6,8.89c.51,1.38,1.9,4.84,4.57,11,2,4.66,3.74,8.76,5,12C92.5,117.9,92,108.65,90.4,102Z"/><path class="cls-4" d="M129,54c-1.81,3-4.48,6.91-7.86,12A85.71,85.71,0,0,0,114,78.92c.31,3.54,1.81,11.07,5.15,23.79a3.35,3.35,0,0,0,2.88-1,22,22,0,0,0,3-3.81,18.37,18.37,0,0,1,3-3.73c1.3-1,3.08-1.06,3.91-.08A11.89,11.89,0,0,1,134.07,99a6.37,6.37,0,0,1,0,2.74c-.06.21-.15,1.47-.27,3.76-.06,1.58-.36,2.5-.92,2.78a24,24,0,0,1-4.63,5.52,15,15,0,0,0-4,6.9c2.17,11.17,4.06,19.36,5.5,24.76a54.36,54.36,0,0,0,2.55,7.83c2.53,2,5.47.3,9.32-4a4,4,0,0,0,.66-2,4.35,4.35,0,0,1,.56-2c.85-1.56,2,.49,2.92,5a14.11,14.11,0,0,1,.23,4.4,5.1,5.1,0,0,1-1,2.95c-3.74,4-7.28,7-10.47,8.38-1,.45-2,.1-3.31-1.36a20.4,20.4,0,0,1-3.46-7.11c-3.21-10.07-6.49-20.23-9.28-30.47a11.11,11.11,0,0,1-4.09-6.17,10.23,10.23,0,0,1-.14-4.47,11.33,11.33,0,0,0,0-4.31c-.26-1.2-2.37-8.33-5.34-19.79-3.14,1-5.34-.45-6.36-4.2a15.2,15.2,0,0,1,.56-10.18c1.19-2.76,2.82-5.6,4.14-8.25a63.84,63.84,0,0,1,6.8-10.8q3.71-4.72,7.69-9.11a7.54,7.54,0,0,1,1-.84,6.52,6.52,0,0,1,5.43-1.08c.08.31.28.88.6,1.76a10,10,0,0,1,.58,2.1A4.87,4.87,0,0,1,129,54Z"/><path class="cls-4" d="M160.75,120c-.07.17-1.84,7-5,18.2a83.48,83.48,0,0,1-5.14,14.17,2.27,2.27,0,0,1-.56.83c-.46.37-.92,0-1.47-1.13-.79-1.52-1.27-2.44-1.31-2.5-2-14.91-4.57-29.78-6.89-44.6-2.46-15.68-4.76-31.47-6.93-47.21q-1.15-8.37-1.83-13.53a7.33,7.33,0,0,1,2.67-3.34c2.11-1.39,3.52-1.06,3.84,1,2.08,13.49,3.07,29.06,5,43.47,2.15,16.2,4.58,32.49,6.92,48.73a94.1,94.1,0,0,0,3-10.36c1.34-5.41,2.38-9.29,3.09-11.26a5.31,5.31,0,0,0,1-1,4.77,4.77,0,0,1,1.05-1c.79-.44,1.47.36,2,2.31A18.34,18.34,0,0,1,160.75,120Z"/><path class="cls-4" d="M183.12,26.59c-1.87,2.3-4.62,5.24-8.24,9.07a72.08,72.08,0,0,0-8.13,10.07c-.36,3.69-.43,11.85,0,25.67a2.45,2.45,0,0,0,2.57.38,13,13,0,0,0,3.15-2.32,10.56,10.56,0,0,1,3.15-2.2,2.67,2.67,0,0,1,3.19,1.91,17.89,17.89,0,0,1,.85,6,7.25,7.25,0,0,1-.47,2.74c-.09.18-.4,1.37-.91,3.56-.34,1.52-.76,2.25-1.26,2.23a12.82,12.82,0,0,1-4.81,2.87,9.15,9.15,0,0,0-4.62,4.53c-.3,11.7-.23,20.38,0,26.28a72.09,72.09,0,0,0,.8,8.91c1.81,3.51,4.62,4.07,8.6,2.76.27,0,.57-.54.88-1.52s.58-1.49.79-1.52c1-.9,1.58,1.94,1.8,7.28a18.43,18.43,0,0,1-.34,4.71c-.3,1.37-.73,2.08-1.24,2.2a18.41,18.41,0,0,1-10.5-.3c-1-.34-1.84-1.49-2.72-3.75a32.68,32.68,0,0,1-1.83-8.86c-1-11-1.87-22-2.26-33.05a15.75,15.75,0,0,1-2.26-7.62A10.67,10.67,0,0,1,160,82.3a11.56,11.56,0,0,0,.86-4.07c0-1.26-.37-8.88-.79-21.27-2.86-.21-4.48-2.4-4.7-6.46a16.8,16.8,0,0,1,2.25-10c1.48-2.35,3.38-4.71,4.91-6.93a53.1,53.1,0,0,1,7.39-8.67c2.52-2.34,5.07-4.54,7.61-6.54a3.8,3.8,0,0,1,.93-.47c1.38-.49,3-.13,4.71,1.45,0,.39.15,1.12.31,2.24a16.33,16.33,0,0,1,.23,2.57A5.48,5.48,0,0,1,183.12,26.59Z"/><path class="cls-4" d="M200.12,18.55a8.08,8.08,0,0,1-2.2,5.05.89.89,0,0,1-1.18.27,4.15,4.15,0,0,0-1-.45c-.28,0-.57.36-.87,1-2.75,5.57-4.31,12.79-4.72,22a78.26,78.26,0,0,0,.14,9.74c1.14,9.84,2.1,19.68,3,29.54.63,10.17,1.29,20.33.65,30.52a100,100,0,0,1-2.23,16.42,18.61,18.61,0,0,1-2.41,5.38c-1,1.56-1.86,2.2-2.61,2.12a1.41,1.41,0,0,1-.83-.43,5.6,5.6,0,0,1-1.4-4.08,12.74,12.74,0,0,1,.84-3.81,1.09,1.09,0,0,1,1-.78c.5-.06.85-.59,1.06-1.64A90.36,90.36,0,0,0,189,115.24c.47-11.47-.59-23.19-2.08-34.6-1.54-11.82-3.24-23.92-3-35.8a75.47,75.47,0,0,1,2.22-17.72c1.48-5.58,3.47-9.26,5.92-11.63a6.37,6.37,0,0,1,3.24-1.87,3.64,3.64,0,0,1,4.29,2.15A5.73,5.73,0,0,1,200.12,18.55Z"/><path class="cls-4" d="M217.52,20.05a6.71,6.71,0,0,1-1.94,4.65c-.34.32-.67.27-1-.09a5.19,5.19,0,0,0-.86-.8c-.24,0-.5.2-.77.76-2.5,5.05-4.18,12.24-5,21.86a102,102,0,0,0-.41,10.33c.43,10.75.8,21.5,1,32.26s.1,21.78-.9,32.62A114.59,114.59,0,0,1,205,138.2a14,14,0,0,1-2.35,4.79c-.94,1.27-1.79,1.64-2.52,1.26a2.26,2.26,0,0,1-.81-.76,8.24,8.24,0,0,1-1.32-4.83,11.47,11.47,0,0,1,.89-3.71.71.71,0,0,1,1-.47c.48.12.83-.31,1.06-1.34a103.24,103.24,0,0,0,2.1-14.36c1-12.34.5-24.89,0-37.26-.51-12.8-1.43-25.84-.54-38.63a94.61,94.61,0,0,1,2.79-18.08c1.5-5.5,3.27-8.83,5.39-10.6a3.45,3.45,0,0,1,2.77-1c1.68.27,2.89,1.46,3.65,3.68A8.72,8.72,0,0,1,217.52,20.05Z"/></g></svg>